<svg id="Layer_1" data-name="Layer 1" xmlns="http://www.w3.org/2000/svg" viewBox="0 0 42.89 46.48"><title>AMN</title><g id="_Group_" data-name="&lt;Group&gt;"><g id="_Group_2" data-name="&lt;Group&gt;"><g id="_Group_3" data-name="&lt;Group&gt;"><path id="_Path_" data-name="&lt;Path&gt;" d="M24.9,14.1c-2.1-1.9-.6-4.6,2-4.6s5.8,1.6,5.7,4.5c-.1,4.5-5.7,6.3-6.5,10.5s4.6,5.9,3.2,10.1c-1.3,3.8-4.6,6.6-2.5,10.8.8,1.6,3.1.2,2.3-1.4-1.6-3.3,2.6-6.8,3.1-10,.4-2.4-.5-4.1-1.9-5.9-1.2-1.5-2.1-2.7-.9-4.7.9-1.4,2.4-2.5,3.4-3.8a9,9,0,0,0,2.3-6.5c-.2-4.4-5.9-7.2-10-6.1A5.24,5.24,0,0,0,23,16c1.3,1.1,3.2-.8,1.9-1.9Z" transform="translate(-8.56 -6.76)"/></g></g><g id="_Group_4" data-name="&lt;Group&gt;"><path id="_Path_2" data-name="&lt;Path&gt;" d="M15.2,29.9H15a1.49,1.49,0,0,0-.6.1,3.24,3.24,0,0,0-1.8,1.3,6.71,6.71,0,0,0-1.2,3.2c-.2,1.4-.5,3-.6,4.7a10,10,0,0,0,.8,4.9,3.59,3.59,0,0,0,.7,1,3.92,3.92,0,0,0,1,.8,12.63,12.63,0,0,0,2.6,1.4,23.47,23.47,0,0,0,6.2,1.5,52.11,52.11,0,0,0,6.9.5,49.44,49.44,0,0,0,6.7-.1,18,18,0,0,0,3.2-.6l.4-.1.4-.1a2.35,2.35,0,0,1,.8-.2,5.78,5.78,0,0,0,1.4-.5,16.12,16.12,0,0,0,4.8-3.2,14.62,14.62,0,0,0,1.6-2.1c.2-.3.4-.8.6-1.1l.3-.6c.1-.2.1-.4.2-.5a11.17,11.17,0,0,0,.3-4.4,7.58,7.58,0,0,0-1.2-3.3A7.42,7.42,0,0,0,47,30.7a2.05,2.05,0,0,0-.7-.5,4.56,4.56,0,0,1,.8.4A6.13,6.13,0,0,1,49,32.2a8.43,8.43,0,0,1,1.9,3.4,11,11,0,0,1,.4,5.2.55.55,0,0,0-.4.6,6.37,6.37,0,0,0-.2.7,9.38,9.38,0,0,1-.6,1.5,11.65,11.65,0,0,1-1.7,2.8A17.71,17.71,0,0,1,43,50.7c-.5.3-1.1.5-1.7.8a6.89,6.89,0,0,0-.8.3l-.4.2-.4.1a23.25,23.25,0,0,1-3.6.8,44.6,44.6,0,0,1-7.3.3,58.47,58.47,0,0,1-7.2-.7,24.59,24.59,0,0,1-7-2.1,17.26,17.26,0,0,1-3.1-1.9,5.84,5.84,0,0,1-1.3-1.4,5.07,5.07,0,0,1-.9-1.6,10.78,10.78,0,0,1-.5-6.3,27.68,27.68,0,0,1,1.3-4.8A8.22,8.22,0,0,1,12.2,31a5.27,5.27,0,0,1,2.3-1h.6A.1.1,0,0,1,15.2,29.9Z" transform="translate(-8.56 -6.76)"/></g></g></svg>