<svg id="Layer_1" data-name="Layer 1" xmlns="http://www.w3.org/2000/svg" viewBox="0 0 29.58 55.79"><defs><style>.cls-1{fill:#171617;}</style></defs><title>BER</title><g id="_Group_" data-name="&lt;Group&gt;"><g id="_Group_2" data-name="&lt;Group&gt;"><g id="_Group_3" data-name="&lt;Group&gt;"><path id="_Path_" data-name="&lt;Path&gt;" class="cls-1" d="M16.91,2.22c-1.5,8.4-.2,17.6-.3,26.1-.1,9.3-.5,18.7-1.4,28a1.59,1.59,0,0,0,2.7,1.1c2.2-2.5,4.4-5.3,5-8.6a1.43,1.43,0,0,0-2.6-1.1c-1.8,2.4-2.9,5.1-4.7,7.4.9.4,1.8.8,2.7,1.1.4-9.3.8-18.6.8-28,0-8.2.7-17.9-1.9-26,0-.1-.3-.2-.3,0Z" transform="translate(-15.21 -2.11)"/></g></g><g id="_Group_4" data-name="&lt;Group&gt;"><g id="_Group_5" data-name="&lt;Group&gt;"><path id="_Path_2" data-name="&lt;Path&gt;" class="cls-1" d="M17.21,34.62c1.4,0,2.8.8,4.2.9,2.2.3,4.5.1,6.7.2,3.9.1,8.8,1.2,12.2-.9a.94.94,0,0,0,0-1.6c-3.6-2.1-9-.7-13.1-.5-3.1.1-7.3-.2-10.1,1.4-.2.1-.1.5.1.5Z" transform="translate(-15.21 -2.11)"/></g></g><g id="_Group_6" data-name="&lt;Group&gt;"><g id="_Group_7" data-name="&lt;Group&gt;"><path id="_Path_3" data-name="&lt;Path&gt;" class="cls-1" d="M37,34.62c1.2,2,1,3.9,1.1,6.2a.75.75,0,0,0,1.5,0,17.85,17.85,0,0,0-.1-4,3.68,3.68,0,0,0-2.2-2.5.22.22,0,0,0-.3.3Z" transform="translate(-15.21 -2.11)"/></g></g><g id="_Group_8" data-name="&lt;Group&gt;"><g id="_Group_9" data-name="&lt;Group&gt;"><path id="_Path_4" data-name="&lt;Path&gt;" class="cls-1" d="M17.21,23.92c6.3,4,17.7,4.1,23.8-.6a.82.82,0,0,0,0-1.2c-1.4-2.7-.9-5.2,1.4-7.5,2.6,1.1,3.7-4.4,0-3.8-2.6.4-2.9,3.2-3.4,5.4-.6,2.5-1.2,5.2.8,7.1.1-.5.3-1,.4-1.4-7.3,1-15.2,2.8-22.4.9a.63.63,0,0,0-.6,1.1Z" transform="translate(-15.21 -2.11)"/></g></g><g id="_Group_10" data-name="&lt;Group&gt;"><g id="_Group_11" data-name="&lt;Group&gt;"><path id="_Path_5" data-name="&lt;Path&gt;" class="cls-1" d="M30.11,11.92c-.4.5-.3.9-.2,1.6a13.1,13.1,0,0,1,0,2.8,4.48,4.48,0,0,0-.1,1.2l2.1.8c0-.1.1-.2.1-.3a5.19,5.19,0,0,0,.5-2.4c0-1.2,0-2.9-1.6-2.9s-2.9,2.4-3.1,3.7c-.2,1.6-.1,3.4,1.4,4.4a2.62,2.62,0,0,0,3.9-1.7,7.29,7.29,0,0,0-.7-5c-.2-.4-1.5-3.1-2.3-2.2Z" transform="translate(-15.21 -2.11)"/></g></g></g></svg>