<svg id="Layer_1" data-name="Layer 1" xmlns="http://www.w3.org/2000/svg" viewBox="0 0 22.68 38.56"><defs><style>.cls-1{fill:#171617;}</style></defs><title>CHAM</title><g id="_Group_" data-name="&lt;Group&gt;"><g id="_Group_2" data-name="&lt;Group&gt;"><g id="_Group_3" data-name="&lt;Group&gt;"><path id="_Path_" data-name="&lt;Path&gt;" class="cls-1" d="M21.08,12.57a52.14,52.14,0,0,1,5.7.8c2.2.3,4.4.6,6.5,1.1a1.67,1.67,0,0,0,1.5-.4,1.39,1.39,0,0,0,.4-1.5,1.17,1.17,0,0,0-1-1c-4.3-.7-8.9-1.5-13.2,0-.5.3-.4,1,.1,1Z" transform="translate(-18.66 -10.72)"/></g></g><g id="_Group_4" data-name="&lt;Group&gt;"><g id="_Group_5" data-name="&lt;Group&gt;"><path id="_Path_2" data-name="&lt;Path&gt;" class="cls-1" d="M20.58,11.67c-.5,6.5-.7,13-1,19.5-.2,5.6-1.7,12.2-.4,17.7.1.6.9.5,1.1,0,2-5.3,1.2-12.1,1.4-17.7a181.27,181.27,0,0,0-.3-19.5.42.42,0,0,0-.8,0Z" transform="translate(-18.66 -10.72)"/></g></g><g id="_Group_6" data-name="&lt;Group&gt;"><g id="_Group_7" data-name="&lt;Group&gt;"><path id="_Path_3" data-name="&lt;Path&gt;" class="cls-1" d="M19.68,48.87c1.8,0,3.2.2,4.9-.4a48.85,48.85,0,0,0,4.8-2,35,35,0,0,0,8.2-5.6c3.2-3.2-4.1-5.7-3.8-1.6,0,.7-2.2,2.2-2.6,2.6a26.27,26.27,0,0,1-4,2.8c-2.4,1.4-5,2.8-7.5,4-.1,0-.1.2,0,.2Z" transform="translate(-18.66 -10.72)"/></g></g><g id="_Group_8" data-name="&lt;Group&gt;"><g id="_Group_9" data-name="&lt;Group&gt;"><path id="_Path_4" data-name="&lt;Path&gt;" class="cls-1" d="M20.28,36.17c2.9,1.1,7.7-.6,10.3-1.9,2.8-1.4,7.5-3.7,8.2-7,.2-1-.7-2.1-1.7-1.7a7.79,7.79,0,0,0-3,2.1,29.8,29.8,0,0,1-5.3,3.4c-1.6.8-3.1,1.7-4.7,2.4-1.4.7-2.8,1-3.9,2.1-.3.2-.2.5.1.6Z" transform="translate(-18.66 -10.72)"/></g></g><g id="_Group_10" data-name="&lt;Group&gt;"><g id="_Group_11" data-name="&lt;Group&gt;"><path id="_Path_5" data-name="&lt;Path&gt;" class="cls-1" d="M27.58,24.87a15.67,15.67,0,0,0,8.8,1.7c1-.1,1-1.6.3-2.1-2.5-1.5-5.9-1-8.7-.9-.7.1-1,1-.4,1.3Z" transform="translate(-18.66 -10.72)"/></g></g><g id="_Group_12" data-name="&lt;Group&gt;"><g id="_Group_13" data-name="&lt;Group&gt;"><path id="_Path_6" data-name="&lt;Path&gt;" class="cls-1" d="M21.08,24.17c2.1.6,5.6-1,7.5-1.6a39.85,39.85,0,0,0,11.8-6,2.09,2.09,0,0,0,.9-2.3.76.76,0,0,0-.1-.4,1.28,1.28,0,0,0-1-1c-1.7-.4-2.4.5-3.6,1.6a38.64,38.64,0,0,1-6.2,4.4c-2.1,1.3-6.6,5-9.3,4.8-.3-.1-.3.4,0,.5Z" transform="translate(-18.66 -10.72)"/></g></g></g></svg>