<svg id="Layer_1" data-name="Layer 1" xmlns="http://www.w3.org/2000/svg" viewBox="0 0 51 49.59"><defs><style>.cls-1{fill:#171617;}</style></defs><title>DOL</title><g id="_Group_" data-name="&lt;Group&gt;"><g id="_Group_2" data-name="&lt;Group&gt;"><path id="_Path_" data-name="&lt;Path&gt;" class="cls-1" d="M21.77,37.08c-2.9,1.7-3.3,6-2.4,8.9s2.7,8,6,8.8a.88.88,0,0,0,1.1-.8c-.2-2.1-1.6-3.8-2.6-5.7a13.91,13.91,0,0,1-1.9-4.9,18.76,18.76,0,0,1,.8-5.2.76.76,0,0,0-1-1.1Z" transform="translate(-4.5 -5.2)"/></g></g><g id="_Group_3" data-name="&lt;Group&gt;"><g id="_Group_4" data-name="&lt;Group&gt;"><g id="_Group_5" data-name="&lt;Group&gt;"><path id="_Path_2" data-name="&lt;Path&gt;" class="cls-1" d="M45.27,5.38c-6,3.5-10.6,8.9-16.2,13.1-4.8,3.7-9.3,7.8-14,11.7-3.4,2.8-9.1,5.9-10.2,10.5-1,4.3,0,8.5,3.3,11.4,1.8,1.5,4.6-.4,3.4-2.6-.9-1.7-2.9-4.9-2.9-6.8,0-3.2,3-5.3,5-7.3a134.34,134.34,0,0,1,10.4-9.6c3.6-3.1,7-6.3,10.6-9.3,4.1-3.3,8.5-5.2,12.1-9.1.9-1.1-.3-2.7-1.5-2Z" transform="translate(-4.5 -5.2)"/></g></g><g id="_Group_6" data-name="&lt;Group&gt;"><g id="_Group_7" data-name="&lt;Group&gt;"><path id="_Path_3" data-name="&lt;Path&gt;" class="cls-1" d="M21.87,7.88c.6,4.3,6.7,8.1,9.6,11.2,4,4.3,6.9,9.7,11.2,13.6,1.3,1.1,3.5,0,3-1.7-1.7-5.5-6.4-10.5-10.3-14.6-2.9-3.1-8.2-9.6-13-9-.4-.1-.5.1-.5.5Z" transform="translate(-4.5 -5.2)"/></g></g><g id="_Group_8" data-name="&lt;Group&gt;"><g id="_Group_9" data-name="&lt;Group&gt;"><path id="_Path_4" data-name="&lt;Path&gt;" class="cls-1" d="M21.47,46c4.8,9.2,18.9,5.1,25.3-.1,4.6-3.8,6.8-8.9,8.3-14.4,1.8-6.4-2.3-9.6-7.5-12.6a1.5,1.5,0,0,0-2.2,1.7,80.76,80.76,0,0,0,3.5,8c1.3,2.9,2.2,4.7,1.2,7.8a15.12,15.12,0,0,1-3.7,6.2c-5.3,5.5-19.3,11.1-24.9,3.5,0-.3-.1-.2,0-.1Z" transform="translate(-4.5 -5.2)"/></g></g><g id="_Group_10" data-name="&lt;Group&gt;"><g id="_Group_11" data-name="&lt;Group&gt;"><path id="_Path_5" data-name="&lt;Path&gt;" class="cls-1" d="M29,45.38c2.9-.5,3.5-4.7,3.9-7.2.9-5.3,2.7-10.5,2.6-15.9a.92.92,0,0,0-1.7-.5c-2.8,4-3.4,8.9-4.2,13.6-.4,2.8-1.9,7.1-.8,9.7-.1.2.1.3.2.3Z" transform="translate(-4.5 -5.2)"/></g></g><g id="_Group_12" data-name="&lt;Group&gt;"><g id="_Group_13" data-name="&lt;Group&gt;"><path id="_Path_6" data-name="&lt;Path&gt;" class="cls-1" d="M34.77,30.08c.1-2.9-1.3-5.2-2.3-7.9s-1.7-5.6-2.9-8.1a.8.8,0,0,0-1.5.2c-.6,2.8.4,6,1.6,8.6,1.3,2.8,2.4,5.6,4.9,7.4,0,0,.2-.1.2-.2Z" transform="translate(-4.5 -5.2)"/></g></g></g></svg>