<svg id="Layer_1" data-name="Layer 1" xmlns="http://www.w3.org/2000/svg" viewBox="0 0 40.2 44.12"><defs><style>.cls-1{fill:#171617;}</style></defs><title>EL2</title><g id="el"><path id="_Path_" data-name="&lt;Path&gt;" class="cls-1" d="M25.6,14.5c7.1,3.9-7.9,3.3-10.4,8.2-3.3,6.5,1.3,13.4,2.6,17.1a19.35,19.35,0,0,1,.9,6.7A1.35,1.35,0,0,0,20,47.9c3.5,0,12.8.1,17-.8,5.2-1,8.1-5.4,9.4-9.3a11.65,11.65,0,0,0-.1-4.9,1.28,1.28,0,0,1,1.9-1.4A4.62,4.62,0,0,1,50,32.8c1.9,3.1-3.4,16.1-12.3,16.7s-20.1-.3-22.5,1.3l-1.7,1.3a5.16,5.16,0,0,1-.5-2.9c.3-1.4,2.4-1.5,2-6.2-.5-5.5-6.6-11.6-4.3-18.2S14.3,13,25.6,14.5Z" transform="translate(-10.18 -7.98)"/><path id="_Path_2" data-name="&lt;Path&gt;" class="cls-1" d="M40.4,8c-2.9.3-9.2,9.4-11,14.3s-2.3,10-1.6,10.4,1.2-1.7,3.3-7,8.1-14.2,10.3-15.6a2.89,2.89,0,0,1,2.3-.6A3.83,3.83,0,0,0,40.4,8Z" transform="translate(-10.18 -7.98)"/><path id="_Path_3" data-name="&lt;Path&gt;" class="cls-1" d="M49.6,15.4s-2.5-1.3-5.1,1.2c-4.4,4.2-7.1,11.8-8.5,16.2s-2.9,5.5-3,1.2,3.3-14,8.7-18.7C45.1,12.3,49.4,11.4,49.6,15.4Z" transform="translate(-10.18 -7.98)"/><path id="_Path_4" data-name="&lt;Path&gt;" class="cls-1" d="M31.5,41.1c0,1.9-2.3,3.4-4.2,3.4a3.4,3.4,0,0,1,0-6.8C29.2,37.8,31.5,39.3,31.5,41.1Z" transform="translate(-10.18 -7.98)"/></g></svg>