<svg id="Layer_1" data-name="Layer 1" xmlns="http://www.w3.org/2000/svg" viewBox="0 0 35.2 49.44"><defs><style>.cls-1{fill:#171617;stroke:#171617;stroke-linejoin:round;stroke-width:0.3px;}</style></defs><title>ELD2</title><path id="ELD" class="cls-1" d="M26,36.4c-1.1,5.2-9.7,16.1-6.9,15.5a4.3,4.3,0,0,0,3.3-3.4s8.8-3,9.1-.2c.6,5.3,2.2,8.1,3.8,4.6s-1.5-6.6-4.1-7.1-7.7.3-7.7.3,3.5-8,4.7-7.9,3.9,2.4,8,4c4.8,1.9,10,3.2,10.2,3,.4-.3,1.3-1,1.3-1.3s-1.2-.7-1.2-.7l2.4-3.1L47.5,39s-2.8,3-3.7,3.3-4.5-1.2-7.8-3-5.5-2.2-6.7-4.3-1-8-1-8l1.2-3a27.65,27.65,0,0,1,7.7,2.5c2.9,1.7,2.8,2.5,3.6,2.1s-5.9-5.8-8.5-6.2l-2.1-.3,3.7-6.7s5.9,4,8.9,3.5,7.4-6.3,5.7-9.7-6.2-5.8-9.8-1.8,1.7,6.6,4,5.9,3.1-2.4.8-2.7-4.1-1-1.9-2.2,7.9,1.4,5.3,4.9S39.7,17.5,37,15s-1.6-3.9-3.3-3.6S26.2,27.6,19.1,24.2A14.25,14.25,0,0,1,14.9,21L14,23.3s4.4,3.1,4.4,4.5S15.5,32,15.5,32L18,34.1l3.5-5.9H25S27.1,31.2,26,36.4Z" transform="translate(-13.85 -5.16)"/></svg>