<svg id="Layer_1" data-name="Layer 1" xmlns="http://www.w3.org/2000/svg" viewBox="0 0 33.59 47.83"><defs><style>.cls-1{fill:#171617;}</style></defs><title>ETH</title><g id="ETH"><g id="_Group_" data-name="&lt;Group&gt;"><g id="_Group_2" data-name="&lt;Group&gt;"><path id="_Path_" data-name="&lt;Path&gt;" class="cls-1" d="M16.27,52.47c-1.1-.8.8-2.9,1.4-3.5s1-.9,1.5-1.4a9.15,9.15,0,0,0,.9-1.7,1.33,1.33,0,0,0-1.5-1.9,5.05,5.05,0,0,0-3.3,2.2,13,13,0,0,0-1.9,3.7c-.6,1.9.5,5.1,3,3.7a.72.72,0,0,0-.1-1.1Z" transform="translate(-13.2 -6.08)"/></g></g><g id="_Group_3" data-name="&lt;Group&gt;"><g id="_Group_4" data-name="&lt;Group&gt;"><path id="_Path_2" data-name="&lt;Path&gt;" class="cls-1" d="M27.87,50a11.21,11.21,0,0,0-3.3-7.2c-1.5-1.7-3.7-2.8-4.6-5-1.2-2.8-1-3,1.7-3.9,3.6-1.2,7-.6,10.4-2.9a10.56,10.56,0,0,0,4-5.1c1.8-5.5-1.7-11.2-6.7-13.5-1.7-.8-4.9-2.1-6.9-1.5-2.7.8-4.1,4.7-5.6,6.8l2.1.9A100.47,100.47,0,0,0,22.37,8c.5-1.9-2.6-2.7-2.9-.8A78,78,0,0,1,16.57,18c-.5,1.3,1.4,1.8,2.1.9,1-1.3,2.6-3.9,4.1-4.5,1-.4,3.6.8,4.5,1.3,3,1.5,5.7,4.2,5.6,7.8-.3,7.5-9,8.4-14.8,7.9a1.56,1.56,0,0,0-1.3.7,7.19,7.19,0,0,0,.7,7.7c1,1.5,2.6,2.5,3.9,3.8a43.4,43.4,0,0,1,5.3,6.7.64.64,0,0,0,1.2-.3Z" transform="translate(-13.2 -6.08)"/></g></g><g id="_Group_5" data-name="&lt;Group&gt;"><g id="_Group_6" data-name="&lt;Group&gt;"><path id="_Path_3" data-name="&lt;Path&gt;" class="cls-1" d="M40.17,28.37c.1,0,.1-.2,0-.2s-.1.2,0,.2Z" transform="translate(-13.2 -6.08)"/></g></g><g id="_Group_7" data-name="&lt;Group&gt;"><g id="_Group_8" data-name="&lt;Group&gt;"><path id="_Path_4" data-name="&lt;Path&gt;" class="cls-1" d="M37.47,26.17a18.63,18.63,0,0,0,1.7,4.1c1.3,2.5,1,4.8,1.1,7.5.2,4.1-.3,9.3,1.7,12.8a2,2,0,0,0,3.6-1c.1-2.3-.7-3.6-1.4-5.8a44.88,44.88,0,0,1-1.7-8.1c-.2-1.5-.2-3.6-1-4.9-1.1-1.8-2.8-2.8-3.7-4.9,0-.2-.3,0-.3.3Z" transform="translate(-13.2 -6.08)"/></g></g><g id="_Group_9" data-name="&lt;Group&gt;"><g id="_Group_10" data-name="&lt;Group&gt;"><path id="_Path_5" data-name="&lt;Path&gt;" class="cls-1" d="M33.87,49.37c2.5-.9,4-2.8,5.6-4.9s3.3-4.3,3.4-7.1a1.14,1.14,0,0,0-1.9-.8c-1.8,1.8-2.5,4.2-3.8,6.4s-2.8,3.8-3.6,6.1c0,.2.2.4.3.3Z" transform="translate(-13.2 -6.08)"/></g></g><g id="_Group_11" data-name="&lt;Group&gt;"><g id="_Group_12" data-name="&lt;Group&gt;"><path id="_Path_6" data-name="&lt;Path&gt;" class="cls-1" d="M43.77,19.27a14.28,14.28,0,0,1-.3,2.9,15.06,15.06,0,0,0,.1,3,1.34,1.34,0,0,0,2.6.4c.5-1.3.9-2.4.4-3.7a8.8,8.8,0,0,0-1.8-2.9c-.3-.6-1-.2-1,.3Z" transform="translate(-13.2 -6.08)"/></g></g><g id="_Group_13" data-name="&lt;Group&gt;"><g id="_Group_14" data-name="&lt;Group&gt;"><path id="_Path_7" data-name="&lt;Path&gt;" class="cls-1" d="M27.37,31.37h0a1.91,1.91,0,0,0-.7-1.4c-.7-.4-1-.8-1.8-1.2-.3-.1,0,0-.2-.1s-.3-.2-.5-.2A1,1,0,0,0,23,29a2.32,2.32,0,0,0,.4,2.4,4.64,4.64,0,0,0,2.2,1.4,1.39,1.39,0,0,0,1.5-.4,1.49,1.49,0,0,0,.3-1Z" transform="translate(-13.2 -6.08)"/></g></g></g></svg>