<svg id="Layer_1" data-name="Layer 1" xmlns="http://www.w3.org/2000/svg" viewBox="0 0 34.07 38.09"><defs><style>.cls-1{fill:#171617;}</style></defs><title>FAL</title><g id="_Group_" data-name="&lt;Group&gt;"><g id="_Group_2" data-name="&lt;Group&gt;"><g id="_Group_3" data-name="&lt;Group&gt;"><path id="_Path_" data-name="&lt;Path&gt;" class="cls-1" d="M27.22,11.27c-.7,2.8,1.4,4.8,2.7,7.1,3,5.4,1.4,9.1-.3,14.5s-.7,12.3,4.2,15.9c1.3,1,3.3-1,2.3-2.3-3.2-4.6-5.1-8-4.1-13.8.5-3.1,1.3-6.2,1.2-9.4-.1-3.7.1-12.8-5.8-12.3-.1.1-.2.2-.2.3Z" transform="translate(-12.97 -10.95)"/></g></g><g id="_Group_4" data-name="&lt;Group&gt;"><g id="_Group_5" data-name="&lt;Group&gt;"><path id="_Path_2" data-name="&lt;Path&gt;" class="cls-1" d="M16.32,12.17a5,5,0,0,0-2.9,2.2,3.6,3.6,0,0,0,2.1,5.2,3.64,3.64,0,0,0,2.7-.4,3.89,3.89,0,0,0,1.8-3.1V16c0,.3-.1.6-.1.9,0-.1.1-.2.1-.4-.1.3-.2.5-.3.8a.35.35,0,0,1,.1-.2,3,3,0,0,0-.5.7l.3-.3a3.1,3.1,0,0,0,.9-1.9,3.08,3.08,0,0,0-.4-2.1,4,4,0,0,0-3.8-1.3Z" transform="translate(-12.97 -10.95)"/></g></g><g id="_Group_6" data-name="&lt;Group&gt;"><g id="_Group_7" data-name="&lt;Group&gt;"><path id="_Path_3" data-name="&lt;Path&gt;" class="cls-1" d="M18.62,26.47h0a.47.47,0,0,0,.7-.1.1.1,0,0,1,.1-.1.62.62,0,0,0-.7-.9c-1.4.3-2.4,2.6-3.1,3.7a1.62,1.62,0,0,0,.9,2.3,57.94,57.94,0,0,0,16.1.9c2.6-.1,5.1-.6,7.7-.6,2.1,0,4,.5,6.1.2a.82.82,0,0,0,.5-1.2c-2.1-3.6-7-2.7-10.6-2.6-6.5.3-12.9-.2-19.3.2.5.7,1,1.3,1.5,2a13.65,13.65,0,0,0,.7-2.9c.5-.8.2-1.3-.7-1.4a.4.4,0,0,0,.1.5Z" transform="translate(-12.97 -10.95)"/></g></g><g id="_Group_8" data-name="&lt;Group&gt;"><g id="_Group_9" data-name="&lt;Group&gt;"><path id="_Path_4" data-name="&lt;Path&gt;" class="cls-1" d="M43.92,37.77c.2,0,.2-.4,0-.4s-.2.4,0,.4Z" transform="translate(-12.97 -10.95)"/></g></g><g id="_Group_10" data-name="&lt;Group&gt;"><g id="_Group_11" data-name="&lt;Group&gt;"><path id="_Path_5" data-name="&lt;Path&gt;" class="cls-1" d="M39.82,43.67a7.3,7.3,0,0,0,4.8-3.6c.9-1.7.9-4.7-.7-6.1a1.24,1.24,0,0,0-1.7,0,9.88,9.88,0,0,0-2.1,3.9,39.92,39.92,0,0,1-1.1,4.7c-.2.5.2,1.3.8,1.1Z" transform="translate(-12.97 -10.95)"/></g></g></g></svg>