<svg id="Layer_1" data-name="Layer 1" xmlns="http://www.w3.org/2000/svg" viewBox="0 0 36.66 35.6"><defs><style>.cls-1{fill:#171617;}</style></defs><title>GUL</title><g id="_Group_" data-name="&lt;Group&gt;"><g id="_Group_2" data-name="&lt;Group&gt;"><g id="_Group_3" data-name="&lt;Group&gt;"><path id="_Path_" data-name="&lt;Path&gt;" class="cls-1" d="M12.88,12.4c7.3,3.8,13.9,13.2,18.4,19.9,3.4,5,6.5,13,12.9,14.6a.84.84,0,0,0,.8-1.4c-2.8-3.5-5.8-6.4-8.1-10.5a104.67,104.67,0,0,0-6.8-10.5c-4.2-5.4-10-11.9-17.2-12.3-.1,0-.1.2,0,.2Z" transform="translate(-11.67 -12.2)"/></g></g><g id="_Group_4" data-name="&lt;Group&gt;"><g id="_Group_5" data-name="&lt;Group&gt;"><path id="_Path_2" data-name="&lt;Path&gt;" class="cls-1" d="M12.78,45.7c1.4-1.4,3.6-2,5.2-3.2,1.8-1.3,3.5-2.7,5.3-4,3.1-2.4,6.2-4.6,8.7-7.6a1.74,1.74,0,0,0-2.1-2.7c-4,2.2-7.2,5.3-10.6,8.2-2.8,2.4-6.5,4.9-7.6,8.7a.68.68,0,0,0,1.1.6Z" transform="translate(-11.67 -12.2)"/></g></g><g id="_Group_6" data-name="&lt;Group&gt;"><g id="_Group_7" data-name="&lt;Group&gt;"><path id="_Path_3" data-name="&lt;Path&gt;" class="cls-1" d="M35.88,39.3c1.3,4.1,5.7,8.3,10.1,8.5,2.6.1,3.1-3.3,1.2-4.6-1.6-1.1-3.5-1.4-5.3-2.3s-3.3-1.7-5-2.5a.74.74,0,0,0-1,.9Z" transform="translate(-11.67 -12.2)"/></g></g><path id="_Path_4" data-name="&lt;Path&gt;" class="cls-1" d="M28.48,37.2,21.18,44c-.5.5-.4,2,.4,2h14c.7,0,1-.6.5-1.1l-6.3-7.6A.94.94,0,0,0,28.48,37.2Z" transform="translate(-11.67 -12.2)"/></g></svg>