<svg id="Layer_1" data-name="Layer 1" xmlns="http://www.w3.org/2000/svg" viewBox="0 0 46.52 41.74"><defs><style>.cls-1{fill:#171617;}</style></defs><title>HEL</title><g id="_Group_" data-name="&lt;Group&gt;"><g id="_Group_2" data-name="&lt;Group&gt;"><g id="_Group_3" data-name="&lt;Group&gt;"><path id="_Path_" data-name="&lt;Path&gt;" class="cls-1" d="M29.95,16.17c2-1.1-.4-3.8.4-5.6a5.73,5.73,0,0,0-1.4.4c3.4,2.5,6.8,5.1,10,7.9,2.7,2.4,5.2,5.5,8.2,7.6,2.1,1.5,6.4,2.1,6.1-1.7a.91.91,0,0,0-1.8-.2c-1,2.6-6.6-3.3-7.3-3.9-1.6-1.5-3.2-2.9-4.9-4.3-3-2.5-6.1-4.9-9.2-7.1a1,1,0,0,0-1.4.4c-.6,1.3-1.1,2.5-.6,3.9.1.3,1.4,2,1.4,2.1-.4.2,0,.7.5.5Z" transform="translate(-6.74 -9.13)"/></g></g><g id="_Group_4" data-name="&lt;Group&gt;"><g id="_Group_5" data-name="&lt;Group&gt;"><path id="_Path_2" data-name="&lt;Path&gt;" class="cls-1" d="M32.55,18.47c-4.6-2.7-10.2-5-15.4-2.5-4.1,2-7.4,8-5.5,12.3.7,1.7,3,1.2,3.9,0,2.2-3.1.4-7.1,4.3-9.3s8.4-.7,12.2.7c.7.2,1.2-.9.5-1.2Z" transform="translate(-6.74 -9.13)"/></g></g><g id="_Group_6" data-name="&lt;Group&gt;"><g id="_Group_7" data-name="&lt;Group&gt;"><path id="_Path_3" data-name="&lt;Path&gt;" class="cls-1" d="M24.75,24.17a10.66,10.66,0,0,0-8.6,5.7c-1.5,2.8-1.8,9,2.4,9.6,1.2.2,2.8-.8,2.2-2.2a8.55,8.55,0,0,0-1.5-2.2,4.78,4.78,0,0,1-.1-4.5,8.43,8.43,0,0,1,5.8-4.9.77.77,0,0,0-.2-1.5Z" transform="translate(-6.74 -9.13)"/></g></g><g id="_Group_8" data-name="&lt;Group&gt;"><g id="_Group_9" data-name="&lt;Group&gt;"><path id="_Path_4" data-name="&lt;Path&gt;" class="cls-1" d="M6.85,36.17c4.7,3.7,6.3,11,12.2,13.2,3.5,1.3,7.8.5,8.9-3.4a.77.77,0,0,0-1.3-.7c-7.4,7-13.8-6.3-19.4-9.5-.3-.2-.7.2-.4.4Z" transform="translate(-6.74 -9.13)"/></g></g><g id="_Group_10" data-name="&lt;Group&gt;"><g id="_Group_11" data-name="&lt;Group&gt;"><path id="_Path_5" data-name="&lt;Path&gt;" class="cls-1" d="M32.75,50.87c.1,0,.1-.2,0-.2s-.2.2,0,.2Z" transform="translate(-6.74 -9.13)"/></g></g><g id="_Group_12" data-name="&lt;Group&gt;"><g id="_Group_13" data-name="&lt;Group&gt;"><path id="_Path_6" data-name="&lt;Path&gt;" class="cls-1" d="M31.95,50.47a8,8,0,0,0,5.8-4.6c1-2.1,1.8-5.7-.3-7.4a1.35,1.35,0,0,0-2.2.6c-.6,1.7.1,3.7-.5,5.5a11.1,11.1,0,0,1-3.4,4.8c-.6.5,0,1.2.6,1.1Z" transform="translate(-6.74 -9.13)"/></g></g><g id="_Group_14" data-name="&lt;Group&gt;"><g id="_Group_15" data-name="&lt;Group&gt;"><path id="_Path_7" data-name="&lt;Path&gt;" class="cls-1" d="M43.55,43.87a19.33,19.33,0,0,0-.7-13.2c-1.3-3.1-4.1-8.7-8.2-5.4a2,2,0,0,0-.3,2.5c.6,1.3,1.8,1.6,3,2.2a5.84,5.84,0,0,1,3.5,4.1c1.1,3.1,1.5,6.6,2.1,9.8.1.3.5.2.6,0Z" transform="translate(-6.74 -9.13)"/></g></g><g id="_Group_16" data-name="&lt;Group&gt;"><g id="_Group_17" data-name="&lt;Group&gt;"><path id="_Path_8" data-name="&lt;Path&gt;" class="cls-1" d="M29,36.57a5.39,5.39,0,0,0,.7-1.3c.1-.3.1-.5.2-.8,0-.1.1-.2.1-.3-.1.1,0,.1.1-.1a3.13,3.13,0,0,0,.2-1.9,2.07,2.07,0,0,0-1.5-1.5,2.67,2.67,0,0,0-2.1.5,3.62,3.62,0,0,0-1,2.7,4,4,0,0,0,.3,2.4,1.94,1.94,0,0,0,3,.3Z" transform="translate(-6.74 -9.13)"/></g></g></g></svg>