<svg id="Layer_1" data-name="Layer 1" xmlns="http://www.w3.org/2000/svg" viewBox="0 0 42.35 40.2"><defs><style>.cls-1{fill:#171617;}</style></defs><title>IO</title><g id="_Group_" data-name="&lt;Group&gt;"><g id="_Group_2" data-name="&lt;Group&gt;"><g id="_Group_3" data-name="&lt;Group&gt;"><path id="_Path_" data-name="&lt;Path&gt;" class="cls-1" d="M28.27,49.95c-.7-6.9.1-14.3,1.1-21.1a84.13,84.13,0,0,1,1.9-8.7c.8-3.1,2.5-5.8,2.3-9a1.26,1.26,0,0,0-2.1-.9c-3.8,4.2-4.2,12.7-4.7,18.2-.7,7.4.2,14.2,1.3,21.5.1.2.2.2.2,0Z" transform="translate(-8.82 -9.9)"/></g></g><g id="_Group_4" data-name="&lt;Group&gt;"><g id="_Group_5" data-name="&lt;Group&gt;"><path id="_Path_2" data-name="&lt;Path&gt;" class="cls-1" d="M21.47,47a16.46,16.46,0,0,1,9-1.6c3,.3,4.9,1.9,7.5,2.9,1.9.7,3.2-2.3,1.4-3.3-2.8-1.5-6.4-1.1-9.5-.8a25.59,25.59,0,0,0-8.5,2.7c-.2,0-.1.1.1.1Z" transform="translate(-8.82 -9.9)"/></g></g><g id="_Group_6" data-name="&lt;Group&gt;"><g id="_Group_7" data-name="&lt;Group&gt;"><path id="_Path_3" data-name="&lt;Path&gt;" class="cls-1" d="M17.87,21.85c-.6,3.8,2,6.5,5.6,7,5.6.9,10.6.2,15.3-2.9,1.8-1.2.1-4.2-1.7-2.9-2.4,1.7-5.1,3.2-8.1,3.1s-8.9-.9-9.6-4.4c-.2-.6-1.4-.7-1.5.1Z" transform="translate(-8.82 -9.9)"/></g></g><g id="_Group_8" data-name="&lt;Group&gt;"><g id="_Group_9" data-name="&lt;Group&gt;"><path id="_Path_4" data-name="&lt;Path&gt;" class="cls-1" d="M43.17,38.35c5.4-3.8,8.2-10.8,8-17.3-.2-5-3.6-12-9.4-11-1.4.2-1.9,2.1-1.3,3.2,2.4,4,6.8,4.8,7.3,10.3.6,5.7-3.9,9.5-5,14.6.1.1.2.3.4.2Z" transform="translate(-8.82 -9.9)"/></g></g><g id="_Group_10" data-name="&lt;Group&gt;"><g id="_Group_11" data-name="&lt;Group&gt;"><path id="_Path_5" data-name="&lt;Path&gt;" class="cls-1" d="M13.87,18.95c.2,0,.2-.4,0-.4s-.2.4,0,.4Z" transform="translate(-8.82 -9.9)"/></g></g><g id="_Group_12" data-name="&lt;Group&gt;"><g id="_Group_13" data-name="&lt;Group&gt;"><path id="_Path_6" data-name="&lt;Path&gt;" class="cls-1" d="M13.47,16c-3.6,4.2-4.9,9.3-4.6,14.8.2,4,1.6,9.7,6.1,10.5,1.9.4,3.8-1.6,2.6-3.4-2.1-3.4-5.2-3.8-5.3-8.5a25.56,25.56,0,0,1,2.6-12.2c.5-1-.7-2-1.4-1.2Z" transform="translate(-8.82 -9.9)"/></g></g></g></svg>