<svg id="Layer_1" data-name="Layer 1" xmlns="http://www.w3.org/2000/svg" viewBox="0 0 42.44 48.68"><defs><style>.cls-1{fill:#171617;}</style></defs><title>IST</title><g id="_Group_" data-name="&lt;Group&gt;"><g id="_Group_2" data-name="&lt;Group&gt;"><g id="_Group_3" data-name="&lt;Group&gt;"><path id="_Path_" data-name="&lt;Path&gt;" class="cls-1" d="M21.19,5.71a29,29,0,0,0-8.6,10.1c-1.7,3.3-4.4,8.4-3.7,12.2.5,3.1,4.1,5.5,6.4,7.3s4.9,3.3,6.7,5.5c2.3,2.8,2.1,6.2,3.4,9.5.5,1.3,2.7,1.7,3.1,0,1.7-8.6-4.9-12.5-10.9-16.7-1.7-1.1-5.1-3.3-6-5.2s.4-5.3,1.1-7.2a52,52,0,0,1,8.8-15.1c.2-.2-.1-.6-.3-.4Z" transform="translate(-8.78 -5.66)"/></g></g><g id="_Group_4" data-name="&lt;Group&gt;"><g id="_Group_5" data-name="&lt;Group&gt;"><path id="_Path_2" data-name="&lt;Path&gt;" class="cls-1" d="M47.69,11.71a16.38,16.38,0,0,1-3.4,6.2c-2.2,2.3-4.4,2.4-7.4,2.8a10.39,10.39,0,0,0-7.6,4.7c-2.4,3.4-2.7,7.7-3,11.7-.4,5.2-1.7,11.1-.4,16.1.4,1.6,2.5,1.4,3.1,0,1.8-4.6,1.3-10.3,1.6-15.1.2-2.9.3-6,1.4-8.7,1.5-3.7,3.9-4.8,7.7-5.4,6.3-1,9.1-6,8.9-12.2-.2-.4-.8-.5-.9-.1Z" transform="translate(-8.78 -5.66)"/></g></g><g id="_Group_6" data-name="&lt;Group&gt;"><g id="_Group_7" data-name="&lt;Group&gt;"><path id="_Path_3" data-name="&lt;Path&gt;" class="cls-1" d="M51,22.91c-2.9,4.1-8,7.3-13.1,7.4-3.3.1-5-.3-7.5,2-3.4,3.2-8.1,11.1-4.7,15.5a.71.71,0,0,0,1.1-.1c2.1-3.2,1.2-7.3,3.5-10.8,1.2-1.8,2.6-3.5,4.8-3.9,1.4-.3,3,.1,4.5-.1,5.7-.9,9.7-4.6,11.6-10,.1-.1-.1-.1-.2,0Z" transform="translate(-8.78 -5.66)"/></g></g><g id="_Group_8" data-name="&lt;Group&gt;"><g id="_Group_9" data-name="&lt;Group&gt;"><path id="_Path_4" data-name="&lt;Path&gt;" class="cls-1" d="M15.59,14.41c-1.2,2.5-1,4.9-.3,7.6.4,1.6,1.2,3.1,1.5,4.6.6,2.6-.2,4.5-1,6.8-.4,1.2,1.4,2.3,2.2,1.3,5.7-6.6-3.8-13.3-1.8-20.1a.32.32,0,0,0-.6-.2Z" transform="translate(-8.78 -5.66)"/></g></g></g></svg>