<svg id="Layer_1" data-name="Layer 1" xmlns="http://www.w3.org/2000/svg" viewBox="0 0 46.2 52.1"><defs><style>.cls-1{fill:#171617;}</style></defs><title>ITH</title><g id="_Group_" data-name="&lt;Group&gt;"><path id="_Path_" data-name="&lt;Path&gt;" class="cls-1" d="M28.1,17.25s-15.3,20.1-15.3,22,2.7,2,5,3.2,5.3,4.6,5,5.8-10,6.8-10,6.8L7,56l.8-3s5.2-1.2,7.5-3.3,2.3-2.4,2.3-3.3-10.7-4.2-10.7-6.3,16.5-20.3,16.7-21.9-5.3-6.5-5.2-7.5,4-6.8,4-6.8l.8,3s-2.2,3.4-2.2,4.2C21.2,12,28.1,17.25,28.1,17.25Z" transform="translate(-6.9 -3.95)"/><path id="_Path_2" data-name="&lt;Path&gt;" class="cls-1" d="M40.6,9.45s3.5,1.3,2.3,3.5-7.1,1.9-7.5,3.8,13.2,21.7,13,22.9-9.1,8.6-9.1,8.6l2,2.3L47.5,54s-6.3-5.5-2.2-8.5,7.8-4.4,7.8-6-6.1-8.2-6.1-8.2L40.9,20a3.91,3.91,0,0,1,1.7-4.3C45.1,14.05,50.6,9.25,40.6,9.45Z" transform="translate(-6.9 -3.95)"/><path id="_Path_3" data-name="&lt;Path&gt;" class="cls-1" d="M29.9,46.75s6.6-4.1,4.2-8.8c-6.9-9.5.7-13.7-.3-14.7s-7.5,3.5-6.7,6.8,4.8,9.9,3,11.9S29.9,46.75,29.9,46.75Z" transform="translate(-6.9 -3.95)"/></g></svg>