<svg id="Layer_1" data-name="Layer 1" xmlns="http://www.w3.org/2000/svg" viewBox="0 0 38.34 43.12"><defs><style>.cls-1{fill:#171617;}</style></defs><title>JAH</title><g id="_Group_" data-name="&lt;Group&gt;"><g id="_Group_2" data-name="&lt;Group&gt;"><g id="_Group_3" data-name="&lt;Group&gt;"><path id="_Path_" data-name="&lt;Path&gt;" class="cls-1" d="M14.79,51.34a67.8,67.8,0,0,0,.9-19.6c-.2-3.2-.6-6.5-.7-9.8,0-2.9,1.3-5.1,1.7-7.8a1.72,1.72,0,0,0-2.1-2.1c-5.3,1.2-3.6,9-3.1,12.8,1,8.8,2.1,17.6,2.8,26.4a.26.26,0,0,0,.5.1Z" transform="translate(-10.83 -8.44)"/></g></g><g id="_Group_4" data-name="&lt;Group&gt;"><g id="_Group_5" data-name="&lt;Group&gt;"><path id="_Path_2" data-name="&lt;Path&gt;" class="cls-1" d="M12.19,21.44c13,4.3,22.1,14.8,33.5,21.6.8.5,1.4-.6.9-1.2-4.6-5.4-11.4-9.6-17.3-13.4-5.5-3.6-10.5-6.6-17.1-7.3-.1-.1-.2.2,0,.3Z" transform="translate(-10.83 -8.44)"/></g></g><g id="_Group_6" data-name="&lt;Group&gt;"><g id="_Group_7" data-name="&lt;Group&gt;"><path id="_Path_3" data-name="&lt;Path&gt;" class="cls-1" d="M45.09,47.74c1-5.8,1.9-11.5,2.4-17.4.5-5.7.2-12.3,1.6-17.8a3.09,3.09,0,0,0-1.4-3.4c-.3-.1-.6-.3-.9-.4a2.56,2.56,0,0,0-3.7,2.9c.5,2,1.1,3.1,1.1,5.3,0,3.5-.3,7-.4,10.5-.2,6.7-.2,13.4.1,20.1.1.6,1.1.8,1.2.2Z" transform="translate(-10.83 -8.44)"/></g></g><g id="_Group_8" data-name="&lt;Group&gt;"><g id="_Group_9" data-name="&lt;Group&gt;"><path id="_Path_4" data-name="&lt;Path&gt;" class="cls-1" d="M15.09,40.74c9.6-8.1,21.4-13.2,31.6-20.5a.65.65,0,1,0-.7-1.1c-6.6,3-12.6,7-18.7,10.9-4.8,3-9.3,5.8-12.7,10.4-.2.2.3.5.5.3Z" transform="translate(-10.83 -8.44)"/></g></g><g id="_Group_10" data-name="&lt;Group&gt;"><g id="_Group_11" data-name="&lt;Group&gt;"><path id="_Path_5" data-name="&lt;Path&gt;" class="cls-1" d="M28.79,44c-1.6.5-4.6,2.3-4.3,4.4.1,1.1,1.5,1.9,2.3,2.4a5.26,5.26,0,0,0,3.7.6,4.15,4.15,0,0,0,3.2-5,4,4,0,0,0-5.1-2.7c-.8.3-1,1.7,0,1.8a3.42,3.42,0,0,1,2.6,1.4c.5,1-.4,2-1.3,2.3s-3.8,0-3.6-1.6c.1-1.1,1.9-2.1,2.8-2.5.7-.3.3-1.3-.3-1.1Z" transform="translate(-10.83 -8.44)"/></g></g></g></svg>