<svg id="Layer_1" data-name="Layer 1" xmlns="http://www.w3.org/2000/svg" viewBox="0 0 44.54 49.16"><defs><style>.cls-1{fill:#171617;}</style></defs><title>KO</title><g id="_Group_" data-name="&lt;Group&gt;"><g id="_Group_2" data-name="&lt;Group&gt;"><g id="_Group_3" data-name="&lt;Group&gt;"><path id="_Path_" data-name="&lt;Path&gt;" class="cls-1" d="M27.56,8.13c-2,14.8-.9,30.4-1.1,45.4,0,1.4,2.2,1.4,2.3,0,.2-14.9,1.6-30.5,0-45.3-.1-.6-1.1-.8-1.2-.1Z" transform="translate(-7.73 -5.42)"/></g></g><g id="_Group_4" data-name="&lt;Group&gt;"><g id="_Group_5" data-name="&lt;Group&gt;"><path id="_Path_2" data-name="&lt;Path&gt;" class="cls-1" d="M28.56,10.83a23.86,23.86,0,0,1,1.2-2.2,2.15,2.15,0,0,0-2.1-3.2A2.1,2.1,0,0,0,26,6.73a2.32,2.32,0,0,0,.4,2.4c.5.6,1.1,1.2,1.6,1.8a.38.38,0,0,0,.6-.1Z" transform="translate(-7.73 -5.42)"/></g></g><path id="_Path_3" data-name="&lt;Path&gt;" class="cls-1" d="M46.76,18.73s2.3-6.8-2.6-6.3-10.9,5.9-4.9,11.3,10.3,8.8,7.5,14.1-10.7,5.7-10.7,5.5.2,1.7.3,3.2c.1,1.1,1,1.2,2.1,1,2.6-.6,12.6-6.2,11.4-16.1-.3-2.3-3.3-1.6-1.3-4.6,1.2-1.9,3.1-.5,3.4,1s-.4,1.8,0,3.9c1.4,6.2-2.1,12.6-8.4,16.3a17.18,17.18,0,0,1-5.8,2.1,3.46,3.46,0,0,1-4.1-3.4c0-2.6-.1-5.7.1-5.9s6.7.3,9-3.4c5-8-9.9-10.2-8.3-18.9,1.8-9.3,13-9,15-6s1.4,9.3-2.9,9.8-7.6-2.2-5.2-4.3S46.76,18.73,46.76,18.73Z" transform="translate(-7.73 -5.42)"/><path id="_Path_4" data-name="&lt;Path&gt;" class="cls-1" d="M7.76,35.23h9.9a.57.57,0,0,1,.2,1.1c-1.7.8-3.7,2-3.9,4.2a19.28,19.28,0,0,0,1.3,7.9.41.41,0,0,1-.7.4C12.06,46,7.26,40.13,7.76,35.23Z" transform="translate(-7.73 -5.42)"/><path id="_Path_5" data-name="&lt;Path&gt;" class="cls-1" d="M16.56,29.23a11.4,11.4,0,0,1-.7-8.4c1.4-4.8,4-4.5,2.5-7.7s-4.6.5-4.9,2.1-1.6,12.1-3,12.7-2.2,3.7-.4,3.4,3-1.9,4.5-.6,2.8,3.2,4.6,2.3,1.2-3-.4-3A2.4,2.4,0,0,1,16.56,29.23Z" transform="translate(-7.73 -5.42)"/></g></svg>