<svg id="Layer_1" data-name="Layer 1" xmlns="http://www.w3.org/2000/svg" viewBox="0 0 36.27 45.83"><defs><style>.cls-1{fill:#171617;}</style></defs><title>LEM</title><g id="_Group_" data-name="&lt;Group&gt;"><g id="_Group_2" data-name="&lt;Group&gt;"><g id="_Group_3" data-name="&lt;Group&gt;"><path id="_Path_" data-name="&lt;Path&gt;" class="cls-1" d="M34.12,7.33c-5.7,3.4-7.5,9.9-6.9,16.3.4,4.7,1.8,9.4,2.3,14.1.5,4.4-1,8.4-.8,12.7a2.56,2.56,0,0,0,4.3,1.8c4.9-4.6,2.5-12.9.8-18.6-2.3-7.8-4.8-17.2,2.7-23.1,1.9-1.4-.5-4.3-2.4-3.2Z" transform="translate(-11.86 -7.08)"/></g></g><g id="_Group_4" data-name="&lt;Group&gt;"><g id="_Group_5" data-name="&lt;Group&gt;"><path id="_Path_2" data-name="&lt;Path&gt;" class="cls-1" d="M43,49.63c3.3-4.2,4-8.7,1.5-13.6-2.1-4.1-4.4-6.6-3.4-11.4a19.15,19.15,0,0,1,6-10.8c3.5-3.5-3-8.5-5.3-4.1-3.1,5.2-6.1,12.4-5.6,18.6.2,3.1,1.8,5.3,3.3,8,2.3,3.9,3.2,8,1.8,12.4a1,1,0,0,0,1.7.9Z" transform="translate(-11.86 -7.08)"/></g></g><g id="_Group_6" data-name="&lt;Group&gt;"><g id="_Group_7" data-name="&lt;Group&gt;"><path id="_Path_3" data-name="&lt;Path&gt;" class="cls-1" d="M13.82,22.33c-1.4,2.3-1.4,6.1-1.9,8.7a2,2,0,0,0,.9,2.2c2.3,1.6,6.1-.3,8.5-.7,4.9-1,10.3-2.2,15.3-1.5a1.53,1.53,0,0,0,1.5-2.5c-2.5-2.8-6.6-1.5-10-1.1-1.8.2-3.6.5-5.4.8-1.1.2-7,2.2-7.9,1.6.3.7.6,1.5.9,2.2.4-3.1,2.4-8.4-1.8-9.8,0,.1,0,.1-.1.1Z" transform="translate(-11.86 -7.08)"/></g></g></g></svg>