<svg id="Layer_1" data-name="Layer 1" xmlns="http://www.w3.org/2000/svg" viewBox="0 0 50.76 43.06"><defs><style>.cls-1{fill:#171617;}</style></defs><title>LO</title><g id="_Group_" data-name="&lt;Group&gt;"><path id="_Path_" data-name="&lt;Path&gt;" class="cls-1" d="M23.24,32.58c.3-.9-7.3,10.5-9,11.5s-3.8-1.7-4.2-2.5-4.7,1.8-2.8,5.3,3.7,5.2,4.2,4.5S17.24,48.28,23.24,32.58Z" transform="translate(-4.62 -8.47)"/><g id="_Group_2" data-name="&lt;Group&gt;"><g id="_Group_3" data-name="&lt;Group&gt;"><path id="_Path_2" data-name="&lt;Path&gt;" class="cls-1" d="M26.74,23.08A48.48,48.48,0,0,0,29.44,10c-1,.3-2.1.6-3.1.8,4.2,7.1,4,15.9,6.6,23.6C35,40.58,39,45.18,43.34,50a1.53,1.53,0,0,0,1.9.3c3.2-1.6,5.8-4,5.6-7.8-.1-1-1.5-1.9-2.3-.9-1.7,2-2.8,4.4-4.9,6l1.9.3c-11.6-9.5-13-24.5-16.1-38.2-.4-1.9-3.3-1.4-3.3.4,0,4.3.3,8.7.2,13-.1.2.3.2.4,0Z" transform="translate(-4.62 -8.47)"/></g></g><g id="_Group_4" data-name="&lt;Group&gt;"><g id="_Group_5" data-name="&lt;Group&gt;"><path id="_Path_3" data-name="&lt;Path&gt;" class="cls-1" d="M18.74,19.18c-7.2,2.8-11.7,9.1-14,16.3-.7,2,1.9,3,3.3,1.9,6.1-4.9,15.4-8.7,23.3-7.8,8.3.9,14.8,5.2,21.4,9.9,1.4,1,2.9-.6,2.6-2-.7-3.5-1.7-7.4-3.8-10.3-2.4-3.4-5.6-3.3-8.7-5.5-1.3-1-2.5,1-1.6,2.1a5.08,5.08,0,0,1,1.6,4.1c-2.6.3-1.8,4.2.5,3.4,4.9-1.8,1.4-5.7.2-8.8-.8.3-1.7.7-2.5,1a8.69,8.69,0,0,0,4.1,3.2c5.3,2.3,7.1,5.7,6.8,11.3,1-.4,2-.8,3.1-1.3-6.1-6.4-16.1-10.7-24.9-11.1-8.6-.4-18.2,3.8-24.7,9.1,1.1.6,2.2,1.3,3.3,1.9,2.1-6.4,6.4-10.9,11.6-15.1.8-.9-.3-2.8-1.6-2.3Z" transform="translate(-4.62 -8.47)"/></g></g><g id="_Group_6" data-name="&lt;Group&gt;"><g id="_Group_7" data-name="&lt;Group&gt;"><path id="_Path_4" data-name="&lt;Path&gt;" class="cls-1" d="M33.34,47.88c-1.3-1.6-1.7-3.6-3.7-4.6a1.79,1.79,0,0,0-2.3.7,11.67,11.67,0,0,0-1.4,3.5.73.73,0,0,0,1.1.8c1-.7,1.5-1.8,2.4-2.5-.4,0-.8.1-1.1.1s-.5-.4-.3.1l.3.6a6.89,6.89,0,0,0,1.1,1.3,20.89,20.89,0,0,0,2.2,2c1.5,1,2.6-.9,1.7-2Z" transform="translate(-4.62 -8.47)"/></g></g></g></svg>