<svg id="Layer_1" data-name="Layer 1" xmlns="http://www.w3.org/2000/svg" viewBox="0 0 39.71 49.33"><defs><style>.cls-1{fill:#171617;}</style></defs><title>LUM</title><path id="_Compound_Path_" data-name="&lt;Compound Path&gt;" class="cls-1" d="M49.08,19.37C45,.87,22.08,5.27,18,7.27S1.28,23.67,20.58,33c0,0-3.6-9.5,6.8-16.1s16.4.7,17.4,4c6.3,22.1-29.6,15.5-32.2,24.3-1.5,5.1,5.9,9.5,5.9,9.5s-5.5-5.9-2.8-9C20.08,40.67,55.48,48,49.08,19.37ZM17,20.87a3.6,3.6,0,1,1,3.6-3.6A3.59,3.59,0,0,1,17,20.87Z" transform="translate(-10.15 -5.33)"/></svg>