<svg id="Layer_1" data-name="Layer 1" xmlns="http://www.w3.org/2000/svg" viewBox="0 0 35.45 42.64"><defs><style>.cls-1{fill:#171617;}</style></defs><title>MAL</title><g id="_Group_" data-name="&lt;Group&gt;"><g id="_Group_2" data-name="&lt;Group&gt;"><g id="_Group_3" data-name="&lt;Group&gt;"><path id="_Path_" data-name="&lt;Path&gt;" class="cls-1" d="M13.14,29.17c-3,2.3,2.6,6.4,4.6,7.2,3.7,1.4,8.5.4,10.2-3.5.3-.6-.3-1.5-1-1-2.1,1.3-4.2,2.6-6.7,2.6a7.33,7.33,0,0,1-4.9-1.9c-1.1-1-1.1-2.2-1.8-3.3a.76.76,0,0,0-.4-.1Z" transform="translate(-12.27 -8.68)"/></g></g><g id="_Group_4" data-name="&lt;Group&gt;"><g id="_Group_5" data-name="&lt;Group&gt;"><path id="_Path_2" data-name="&lt;Path&gt;" class="cls-1" d="M16,19.87c-2.4,2.6-.3,6.1,1.9,8a10.49,10.49,0,0,0,4,2.2,5,5,0,0,0,4.6-.6.83.83,0,0,0-.2-1.5,21.36,21.36,0,0,0-2.7-.9,10.6,10.6,0,0,1-3-1,6.47,6.47,0,0,1-3.5-5.8c.1-.5-.7-.8-1.1-.4Z" transform="translate(-12.27 -8.68)"/></g></g><g id="_Group_6" data-name="&lt;Group&gt;"><g id="_Group_7" data-name="&lt;Group&gt;"><path id="_Path_3" data-name="&lt;Path&gt;" class="cls-1" d="M25.24,15.07c-.2,5.3-.5,10.6-.7,15.9-.2,4.4-.9,8.8,1.1,12.8a1.22,1.22,0,0,0,2.1,0c1.9-4.1,1-8.4.7-12.8l-1.2-15.9a1,1,0,0,0-2,0Z" transform="translate(-12.27 -8.68)"/></g></g><g id="_Group_8" data-name="&lt;Group&gt;"><g id="_Group_9" data-name="&lt;Group&gt;"><path id="_Path_4" data-name="&lt;Path&gt;" class="cls-1" d="M26,14.57c1.6,3.2,5.8,5.2,8.6,7.4,3.7,2.7,7.2,6.2,11.3,8.4a1.23,1.23,0,0,0,1.5-1.9c-2.8-3.4-7.1-6.1-10.6-8.6-2.9-2-7-5.5-10.6-5.5-.2,0-.3.1-.2.2Z" transform="translate(-12.27 -8.68)"/></g></g><g id="_Group_10" data-name="&lt;Group&gt;"><g id="_Group_11" data-name="&lt;Group&gt;"><path id="_Path_5" data-name="&lt;Path&gt;" class="cls-1" d="M26.24,25.07c1.5-.7,3.1-1.2,4.6-1.9,1.2-.6,2.9-1.4,3.6-2.6a1.22,1.22,0,0,0-1.1-1.8c-1.4-.1-3.2,1-4.4,1.8a23.77,23.77,0,0,0-3.6,3.5c-.4.5.2,1.3.9,1Z" transform="translate(-12.27 -8.68)"/></g></g><g id="_Group_12" data-name="&lt;Group&gt;"><g id="_Group_13" data-name="&lt;Group&gt;"><path id="_Path_6" data-name="&lt;Path&gt;" class="cls-1" d="M26.54,43.27c-2.4-.7-4.2,2.1-3.9,4.3a4.27,4.27,0,0,0,4.8,3.7,4.15,4.15,0,0,0,2.9-6,4,4,0,0,0-5.8-1.4.27.27,0,0,0,.2.5,2.68,2.68,0,0,1,3.4,1.3c.7,1.3-.2,2.6-1.2,3.4-1.6,1.3-3.1-.5-3-2.2s1.5-2.2,2.6-2.9c.4-.2.4-.6,0-.7Z" transform="translate(-12.27 -8.68)"/></g></g><g id="_Group_14" data-name="&lt;Group&gt;"><g id="_Group_15" data-name="&lt;Group&gt;"><path id="_Path_7" data-name="&lt;Path&gt;" class="cls-1" d="M38.34,24.17c4,2.3,8-3.9,8.2-7.2.1-2.3-.3-5.1-1.9-6.9-2-2.2-5.4-1.8-6.2,1.3a2.15,2.15,0,0,0,1,2.4c.9.4,2.4.4,2.9-.8.2-.6.4-.4-.3-.5a3.59,3.59,0,0,1,1,.7,2.46,2.46,0,0,1,.4,2.7c-.6,1.9-1.6,7.8-4.6,7.1-.7,0-1.1.9-.5,1.2Z" transform="translate(-12.27 -8.68)"/></g></g></g></svg>