<svg id="Layer_1" data-name="Layer 1" xmlns="http://www.w3.org/2000/svg" viewBox="0 0 42.84 49.59"><defs><style>.cls-1{fill:#171617;}</style></defs><title>NEF</title><g id="_Group_" data-name=" Group "><g id="_Group_2" data-name=" Group 2"><g id="_Group_3" data-name=" Group 3"><path id="_Path_" data-name=" Path " class="cls-1" d="M34.76,0a46.92,46.92,0,0,0-19.5,8.6c-4.1,3-10.3,7.7-10.6,13.4-.2,4.5,4.3,3.5,7.4,3.2s8.9-.9,8.4-5.3a1.33,1.33,0,0,0-2.3-.9c-2.1,1.9-5.5,2.3-8.3,2.4-2.6.1-1.5.1.1-2.6a24.28,24.28,0,0,1,4.3-4.8c6.1-5.4,13.7-9.2,21-12.7C36.16,1,35.56-.09,34.76,0Z" transform="translate(0 0)"/></g></g><g id="_Group_4" data-name=" Group 4"><g id="_Group_5" data-name=" Group 5"><path id="_Path_2" data-name=" Path 2" class="cls-1" d="M21.56,23.61c1.7.7,4.2.3,6.1.5a38.22,38.22,0,0,0,6.8.6,9.61,9.61,0,0,0,8.2-7.1c1.3-4-5.1-5.8-6.3-1.7-.7,2.2-.9,3.6-3.4,4.3a25.94,25.94,0,0,1-5.6.5c-2.1.2-5,0-6.2,2C21,23.11,21.16,23.41,21.56,23.61Z" transform="translate(0 0)"/></g></g><g id="_Group_6" data-name=" Group 6"><g id="_Group_7" data-name=" Group 7"><path id="_Path_3" data-name=" Path 3" class="cls-1" d="M22.66,28c.7.3,1.6,1,2.3.4a.94.94,0,0,0,0-1.5c-.7-.5-1.6.1-2.3.4C22.46,27.51,22.46,27.91,22.66,28Z" transform="translate(0 0)"/></g></g><g id="_Group_8" data-name=" Group 8"><g id="_Group_9" data-name=" Group 9"><path id="_Path_4" data-name=" Path 4" class="cls-1" d="M21.76,28.31c.8.5,1.5,1.1,2.3,1.6-.3-1-.5-1.9-.8-2.9-2.1,4.1-.8,8.5-4.3,12.3-4.4,4.9-11,5.4-16.8,3.1-1.8-.7-3.1,2.3-1.3,3.1,12.9,6.2,25.7-4,26.3-17.5a2.11,2.11,0,0,0-2.1-2.1c-.9,0-1.8-.2-2.7-.2a1.41,1.41,0,0,0-.6,2.6Z" transform="translate(0 0)"/></g></g><g id="_Group_10" data-name=" Group 10"><g id="_Group_11" data-name=" Group 11"><path id="_Path_5" data-name=" Path 5" class="cls-1" d="M1.06,49.21a2.28,2.28,0,0,0,2.9-.3,1.61,1.61,0,0,0,.4-1.6,1.63,1.63,0,0,0-1.2-1.2,2.2,2.2,0,0,0-1.4.2c-.2.1-.1.1.1,0,.5.1.7,0,.4,0a1.57,1.57,0,0,0-1.9.9A1.59,1.59,0,0,0,1.06,49.21Z" transform="translate(0 0)"/></g></g><g id="_Group_12" data-name=" Group 12"><g id="_Group_13" data-name=" Group 13"><path id="_Path_6" data-name=" Path 6" class="cls-1" d="M31.56,6.51a2.77,2.77,0,0,1-.1.9A2.7,2.7,0,0,0,33,10a2.58,2.58,0,0,0,3.8-2.9A2.87,2.87,0,0,0,33.86,5a5.85,5.85,0,0,0-1.3.2C32,5.21,31.56,6,31.56,6.51Z" transform="translate(0 0)"/></g></g><g id="_Group_14" data-name=" Group 14"><g id="_Group_15" data-name=" Group 15"><path id="_Path_7" data-name=" Path 7" class="cls-1" d="M41.16,38.91A4.87,4.87,0,0,0,38,36a4.71,4.71,0,0,0-4.3.6,3.56,3.56,0,0,0-1.4,2.9,4,4,0,0,0,.8,2.3,7.1,7.1,0,0,0,1,1.4,5.64,5.64,0,0,0,2.4,1.3,10.38,10.38,0,0,0-1-.4c.1.1.3.1.4.2a4.34,4.34,0,0,0,2.5.5,3.13,3.13,0,0,0,2.2-1.1,4.25,4.25,0,0,0,1-1.7A4.06,4.06,0,0,0,41.16,38.91Z" transform="translate(0 0)"/></g></g></g></svg>