<svg id="Layer_1" data-name="Layer 1" xmlns="http://www.w3.org/2000/svg" viewBox="0 0 31.45 43.23"><defs><style>.cls-1{fill:#171617;}</style></defs><title>OHM</title><g id="_Group_" data-name="&lt;Group&gt;"><g id="_Group_2" data-name="&lt;Group&gt;"><g id="_Group_3" data-name="&lt;Group&gt;"><path id="_Path_" data-name="&lt;Path&gt;" class="cls-1" d="M15,8.61c-3,7.8,5.5,13.3,11.8,15.2,3.5,1.1,6-1,8.9-2.9,1.8-1.2,3.4-2.7,5.2-3.9,1.2-.9,1.1-1.6,2.5-.3-.6-.5,1.1,3.2.9,2.7a.59.59,0,0,0,1.1-.1c.5-2.4-.5-3.9-2-5.7a.76.76,0,0,0-.9-.1c-3.4,2.4-10.7,8.8-15.1,7.3-5.1-1.7-10.1-7.3-11.7-12.2a.38.38,0,0,0-.7,0Z" transform="translate(-14.27 -8.39)"/></g></g><g id="_Group_4" data-name="&lt;Group&gt;"><g id="_Group_5" data-name="&lt;Group&gt;"><path id="_Path_2" data-name="&lt;Path&gt;" class="cls-1" d="M14.33,21.71c1.1,2.5,1,5.1,3.5,6.7s7.6,3.4,10.5,3.4c3.3,0,6.6-3.2,9.4-4.8,1.1-.6,2.2-1.2,3.3-1.7a12.27,12.27,0,0,1,1.2,2.6c-.5,1.2-2.5,1.4-3.5,2a1.38,1.38,0,0,0-.5,2c.1.2.3.4.4.6a2.45,2.45,0,0,0,2.5,1c2.5-.6,4.6-2.4,4.6-5.1,0-1.8-1.7-5.4-3.6-6-1.1-.3-2.2.5-3.1,1-3.1,1.8-5.5,4.7-9.2,5-6,.5-10.5-3.8-14.8-7.2-.5-.2-.9.1-.7.5Z" transform="translate(-14.27 -8.39)"/></g></g><g id="_Group_6" data-name="&lt;Group&gt;"><g id="_Group_7" data-name="&lt;Group&gt;"><path id="_Path_3" data-name="&lt;Path&gt;" class="cls-1" d="M34.33,51.61a.15.15,0,1,0,0-.3.15.15,0,0,0,0,.3Z" transform="translate(-14.27 -8.39)"/></g></g><path id="_Path_4" data-name="&lt;Path&gt;" class="cls-1" d="M16.63,31.51s3,1.3,4,5.7,2.6,10.3,2.6,10.3a14,14,0,0,0,6.7,2.3,46.09,46.09,0,0,0,7.1,0s.4-.9-.7-1c-2.6-.1-8-1.4-9.7-1.5-3.6-.3-3.4-13.2-3.4-14.2S20.23,30.81,16.63,31.51Z" transform="translate(-14.27 -8.39)"/><g id="_Group_8" data-name="&lt;Group&gt;"><g id="_Group_9" data-name="&lt;Group&gt;"><path id="_Path_5" data-name="&lt;Path&gt;" class="cls-1" d="M27.23,31.11a24.36,24.36,0,0,0,.1,11.7c.7,2.5,4.5,4.1,6.9,3.8s3.6-4.4.6-4.8a7.39,7.39,0,0,0-3.3.2,4.53,4.53,0,0,1-1.6.3c-1.1-.2-1.4-1.5-1.5-2.6s.1-2.5.1-3.8c0-1.6-.2-3.1-.2-4.7.1-.6-.9-.8-1.1-.1Z" transform="translate(-14.27 -8.39)"/></g></g><g id="_Group_10" data-name="&lt;Group&gt;"><g id="_Group_11" data-name="&lt;Group&gt;"><path id="_Path_6" data-name="&lt;Path&gt;" class="cls-1" d="M29.53,29a3.78,3.78,0,0,0-1.2,1,6.28,6.28,0,0,0-.3,1.9,45.33,45.33,0,0,0-.3,5.2c0,.3.4.3.5.1.4-1.5.8-3,1.1-4.5a9.07,9.07,0,0,0,.5-2.1c0-.5-.3-1-.2-1.4.1-.2,0-.3-.1-.2Z" transform="translate(-14.27 -8.39)"/></g></g></g></svg>