<svg id="Layer_1" data-name="Layer 1" xmlns="http://www.w3.org/2000/svg" viewBox="0 0 38.17 39.9"><defs><style>.cls-1{fill:#171617;}</style></defs><title>ORT</title><path id="_Compound_Path_" data-name="&lt;Compound Path&gt;" class="cls-1" d="M43,12c-4.5,0-7.5,7-5.1,9s5.4,1,4.8-1.6-1.9-4.4.9-3.7c7.9,2.2-.1,16.3-6.5,11.5-2.7-2.7-5.7-17.1-5.7-17.1l-2.6.5s-4.4,13.2-6.2,14.7c-8.6,3-8.7-10.4-7.1-10.1,3.9.8-.6,4.6,2.8,5.4s5.1-.4,4-3.7a7,7,0,0,0-7.7-4.8c-3.2.6-6.2,7.3-.3,13.1a23.25,23.25,0,0,0,7,4.5s-1.1,3.2-1.4,4.1c-2,6.6-1.6,16.2,10.3,16.2,14.7,0,8.4-19.1,8.4-19.1s10.5-2.7,10.5-10.1C49.08,15.05,47.48,12,43,12Zm-14.2,34.1c-4.3,0-6.8-2.6-6.8-7.5s8.1-20.4,8.1-20.4,6.2,15,6.2,20S33,46.05,28.78,46.05Z" transform="translate(-10.92 -10.05)"/></svg>