<svg id="Layer_1" data-name="Layer 1" xmlns="http://www.w3.org/2000/svg" viewBox="0 0 36.44 41.7"><defs><style>.cls-1{fill:#171617;}</style></defs><title>PUL</title><g id="_Group_" data-name="&lt;Group&gt;"><path id="_Path_" data-name="&lt;Path&gt;" class="cls-1" d="M39.19,27.45a8,8,0,0,1-16,0c0-4.4,8-18.3,8-18.3S39.19,23,39.19,27.45Z" transform="translate(-11.78 -9.15)"/><path id="_Path_2" data-name="&lt;Path&gt;" class="cls-1" d="M35.09,40.45l3,9.8s1-7.3,2.8-9.3,7-5.7,7.3-9-1.9-10.6-3.3-15.3c-.6-1.9-3-2.9-2.2.6s4.5,11.3,1.5,15c-2.1,2.6-6,4.7-8.1,5.8A1.93,1.93,0,0,0,35.09,40.45Z" transform="translate(-11.78 -9.15)"/><path id="_Path_3" data-name="&lt;Path&gt;" class="cls-1" d="M24.89,41l-1.3,9.8s-2.7-7.3-4.5-9.3-7-5.7-7.3-9S19,20.75,20.39,16c.6-1.9,3-2.9,2.2.6s-8.4,12.2-5.4,15.9c2.1,2.6,4.6,5,6.8,6A2.33,2.33,0,0,1,24.89,41Z" transform="translate(-11.78 -9.15)"/></g></svg>