<svg id="Layer_1" data-name="Layer 1" xmlns="http://www.w3.org/2000/svg" viewBox="0 0 37.35 44.75"><defs><style>.cls-1{fill:#171617;}</style></defs><title>RAL</title><g id="_Group_" data-name="&lt;Group&gt;"><path id="_Path_" data-name="&lt;Path&gt;" class="cls-1" d="M36.87,43.08c.2,1.8,3.4,6.4,3.4,6.4a90.88,90.88,0,0,1,6-12s5.9-7.4-.8-17.4S44,8.28,42,7.68s-4.3,5.7-1.3,11.9C47.37,33.38,36.67,41.28,36.87,43.08Z" transform="translate(-11.32 -7.62)"/><path id="_Path_2" data-name="&lt;Path&gt;" class="cls-1" d="M29.27,34.28l5.5,6.7S40,35,40,28.48s-5.5-8.7-5-11.3c0,0-1.3,3.3,0,5.5A8.46,8.46,0,0,1,29.27,34.28Z" transform="translate(-11.32 -7.62)"/><path id="_Path_3" data-name="&lt;Path&gt;" class="cls-1" d="M18.57,29.68s-3.7.3-2.8-3.8-.9-6.2-1.7-5.7,1.9,2-.3,4.9a15.3,15.3,0,0,0-2.3,6.5,14.34,14.34,0,0,0,4.2,12.5l-4,4.3,1.3,4,4.5-6.7s4.2,3,8.2,3,7.5-4.7,7.5-4.7l-4.3-4s1,4.3-1.7,5.2-8-1.5-8-1.5,5.4-4.3,5.3-5-1.6-1-2.3-1-4.3,4.3-4.3,4.3a7.91,7.91,0,0,1-3.5-8.3l4.3-.2v-3.8Z" transform="translate(-11.32 -7.62)"/></g></svg>