<svg id="Layer_1" data-name="Layer 1" xmlns="http://www.w3.org/2000/svg" viewBox="0 0 40.07 47.37"><defs><style>.cls-1{fill:#171617;}</style></defs><title>SHAEL</title><path id="_Path_" data-name="&lt;Path&gt;" class="cls-1" d="M47.38,13.47c-.9,2.4-.4,7.3-4.5,9.1s-6,2.5-8.9-.8-3.9-6.9-2-9.3,2.5-4.9-1-6-3.3,3.9-2.8,5.6,2.1,8.5.9,10.5-5.4,10.2-8.5,11.5-8.8,2-7.8-5.1,4.3-8.1,6.1-6.3,4.6,4,5.5-.3-5.6-8.4-8.4-7.8-6.3,6.6-6,14.3c0,0-.5,14,5.3,13.3s12.8-11.6,12.8-11.6l-.1,5.6a2.92,2.92,0,0,0-1.8,2.6,2.25,2.25,0,0,0,1.9,2.2s-.2,11.5.6,12.6,2.2-6.2,2.8-6.8,2.2,1.4,5.3-1.1,5.2-4.8,5.2-6.3c0,0-1.5-1.4-3,1s-3.3,4.1-4.7,3.8-3.7-.9-4.1-6,1.5-11.5,1.5-11.5a9.79,9.79,0,0,0,7.9.7c4.8-1.4,8.7-4.7,10-8.3S48.78,9.67,47.38,13.47Z" transform="translate(-9.97 -6.32)"/></svg>