<svg id="Layer_1" data-name="Layer 1" xmlns="http://www.w3.org/2000/svg" viewBox="0 0 41.52 53.2"><defs><style>.cls-1{fill:#171617;}</style></defs><title>SOL</title><g id="_Group_" data-name="&lt;Group&gt;"><path id="_Path_" data-name="&lt;Path&gt;" class="cls-1" d="M21.65,3.41s-2.7,5.3-1.2,10.2,4,10.8,7.8,9.3,6.7-6.8,6.8-9.3-2.5-5.7-1.5-7.2,5.7.7,5.5,4.3-3.8,11.3-6.5,12.9a17,17,0,0,1-7,2.5l1.7,4.1L39,22.41l2.5,1.5s-10.5,6.3-12,8-3.3,6-3.3,6-6.2-12-7.7-17.8S17.15,2.91,21.65,3.41Z" transform="translate(-9.24 -3.4)"/><g id="_Group_2" data-name="&lt;Group&gt;"><g id="_Group_3" data-name="&lt;Group&gt;"><path id="_Path_2" data-name="&lt;Path&gt;" d="M47.35,14.51a.35.35,0,0,1,.1-.2,2.05,2.05,0,0,0-.7-2.7,2,2,0,0,0-2.7.7.35.35,0,0,1-.1.2,2.05,2.05,0,0,0,.7,2.7,2,2,0,0,0,2.7-.7Z" transform="translate(-9.24 -3.4)"/></g></g><g id="_Group_4" data-name="&lt;Group&gt;"><g id="_Group_5" data-name="&lt;Group&gt;"><path id="_Path_3" data-name="&lt;Path&gt;" d="M49.45,25.91c.1,0,.2-.1.3-.1a1.88,1.88,0,0,0,.7-2.7,2,2,0,0,0-2.7-.7c-.1,0-.2.1-.3.1a1.88,1.88,0,0,0-.7,2.7,2.16,2.16,0,0,0,2.7.7Z" transform="translate(-9.24 -3.4)"/></g></g><g id="_Group_6" data-name="&lt;Group&gt;"><g id="_Group_7" data-name="&lt;Group&gt;"><path id="_Path_4" data-name="&lt;Path&gt;" d="M47.75,34.91a2.29,2.29,0,0,0,1.1-2.6,2,2,0,0,0-3.9,1.1v-1c0-.1.1-.2.1-.3l.7-.7a.1.1,0,0,0-.1.1,2,2,0,0,0-.7,2.7,2.08,2.08,0,0,0,2.8.7Z" transform="translate(-9.24 -3.4)"/></g></g><g id="_Group_8" data-name="&lt;Group&gt;"><g id="_Group_9" data-name="&lt;Group&gt;"><path id="_Path_5" data-name="&lt;Path&gt;" d="M42.85,43.11a2,2,0,0,0,0-4,2,2,0,0,0,0,4Z" transform="translate(-9.24 -3.4)"/></g></g><g id="_Group_10" data-name="&lt;Group&gt;"><g id="_Group_11" data-name="&lt;Group&gt;"><path id="_Path_6" data-name="&lt;Path&gt;" d="M36.35,46.51v-.1a2.07,2.07,0,0,0-2-2,2,2,0,0,0-2,2v.1a2,2,0,0,0,4,0Z" transform="translate(-9.24 -3.4)"/></g></g><g id="_Group_12" data-name="&lt;Group&gt;"><g id="_Group_13" data-name="&lt;Group&gt;"><path id="_Path_7" data-name="&lt;Path&gt;" d="M26.75,49l.1-.1a2,2,0,1,0-2.8-2.8l-.1.1A2,2,0,0,0,24,49a1.93,1.93,0,0,0,2.8,0Z" transform="translate(-9.24 -3.4)"/></g></g><g id="_Group_14" data-name="&lt;Group&gt;"><g id="_Group_15" data-name="&lt;Group&gt;"><path id="_Path_8" data-name="&lt;Path&gt;" d="M17.65,56.51c-1.4-.5-3.9-1.3-4.9-2.7-4.1-5.6,4.2-6.3,7-6.4a45,45,0,0,0,9-.9,26.23,26.23,0,0,0,14.2-9c5.9-7.6,6.6-20.7-1.3-27.2-.7-.6-1.9.2-1.3,1,4.6,6.4,5.4,16.5,1,23.1C36,42.71,27,43.91,18,44.51c-3.9.3-9,2.2-8.7,6.9.3,4.3,4.7,5,8.1,5.1.4.2.4,0,.3,0Z" transform="translate(-9.24 -3.4)"/></g></g></g></svg>