<svg id="Layer_1" data-name="Layer 1" xmlns="http://www.w3.org/2000/svg" viewBox="0 0 35.11 39.36"><defs><style>.cls-1{fill:#171617;}</style></defs><title>SUR</title><g id="_Group_" data-name="&lt;Group&gt;"><g id="_Group_2" data-name="&lt;Group&gt;"><g id="_Group_3" data-name="&lt;Group&gt;"><path id="_Path_" data-name="&lt;Path&gt;" class="cls-1" d="M15.63,19.16a1.69,1.69,0,0,1,.5-.2H14c4.6,2.3.3,10.5,4.3,12.7,2.4,1.3,6-2.1,7.6-3.6,2.8-2.8,3.8-6.1,2.4-9.9-.5-1.2-2.3-2.8-1.4-3.9s3.9-.3,5.1-.1c2.8.6,5.2,2,8.1,2.2,1.5.1,1.9-1.8,1.1-2.7-3.9-4.6-11-3.4-16.3-2.5-.4.1-.9.5-.9.9-.4,2.5.5,3.8,1.4,6,1.5,3.6,1,7.8-2.7,10-3.9,2.2-4.3.8-4.3-2.2s.5-11-4-10.9c-3.3.2-2.2,5.8,1.2,4.2Z" transform="translate(-12.44 -10.32)"/></g></g><g id="_Group_4" data-name="&lt;Group&gt;"><g id="_Group_5" data-name="&lt;Group&gt;"><path id="_Path_2" data-name="&lt;Path&gt;" class="cls-1" d="M47.13,38c-3.1-2.4-1.3-6-3.8-8.7a6.7,6.7,0,0,0-7.1-1.6c-2.6,1-4.1,3.5-4.7,6.2-1.2,5.4-.6,9.9-6,13,.8.4,1.6.9,2.3,1.3-.3-3.7,2.2-8,2.7-11.7a59.18,59.18,0,0,0,.4-10.3,1,1,0,0,0-2,0,75.32,75.32,0,0,1-1.8,12.5c-.7,3.1-2.6,6.3-2.4,9.5a1.53,1.53,0,0,0,2.3,1.3c6.1-3.4,6.2-8,7.5-14.2a7.74,7.74,0,0,1,1.1-3c4.1-1,5.7-.3,4.8,2.2.2.7-.1,1.4.2,2.1.8,2.1,3,3.1,5,3.8a1.46,1.46,0,0,0,1.5-2.4Z" transform="translate(-12.44 -10.32)"/></g></g><g id="_Group_6" data-name="&lt;Group&gt;"><g id="_Group_7" data-name="&lt;Group&gt;"><path id="_Path_3" data-name="&lt;Path&gt;" class="cls-1" d="M29.53,30a3.6,3.6,0,1,0-3.6-3.6,3.72,3.72,0,0,0,3.6,3.6Z" transform="translate(-12.44 -10.32)"/></g></g></g></svg>