<svg id="Layer_1" data-name="Layer 1" xmlns="http://www.w3.org/2000/svg" viewBox="0 0 44.06 43.66"><defs><style>.cls-1{fill:#171617;}</style></defs><title>TAL</title><g id="_Group_" data-name="&lt;Group&gt;"><g id="_Group_2" data-name="&lt;Group&gt;"><g id="_Group_3" data-name="&lt;Group&gt;"><path id="_Path_" data-name="&lt;Path&gt;" class="cls-1" d="M8.17,31.33c3.1-2.6,5.6-6.6,8-9.8,2.7-3.5,6.7-6.7,8.8-10.5.6-1-.4-2.7-1.7-2.2-3.9,1.6-6.6,5.8-9,9.2-2.6,3.7-5.5,8.8-6.3,13.2,0,.1.1.2.2.1Z" transform="translate(-7.97 -8.17)"/></g></g><g id="_Group_4" data-name="&lt;Group&gt;"><g id="_Group_5" data-name="&lt;Group&gt;"><path id="_Path_2" data-name="&lt;Path&gt;" class="cls-1" d="M23.17,11.63c2.4,5.3,4.2,10.5,3.4,16.4-.6,3.9-1.8,7.9-.5,11.7a.73.73,0,0,0,1.4,0c1-3,.8-6.2,1.3-9.3a29.28,29.28,0,0,0,.5-7.8c-.6-4.6-3-7.7-6-11.1,0-.1-.2,0-.1.1Z" transform="translate(-7.97 -8.17)"/></g></g><g id="_Group_6" data-name="&lt;Group&gt;"><g id="_Group_7" data-name="&lt;Group&gt;"><path id="_Path_3" data-name="&lt;Path&gt;" class="cls-1" d="M14,28.63a47.35,47.35,0,0,0,13.5,1.9c4,.1,8.3.5,12-1.3a.8.8,0,0,0-.2-1.5c-3.8-.9-7.9,0-11.8.2-4.5.2-9,0-13.5.3-.1.1-.2.3,0,.4Z" transform="translate(-7.97 -8.17)"/></g></g><g id="_Group_8" data-name="&lt;Group&gt;"><g id="_Group_9" data-name="&lt;Group&gt;"><path id="_Path_4" data-name="&lt;Path&gt;" class="cls-1" d="M28.17,47.93a122.54,122.54,0,0,0,9.2-9.9c2.3-2.9,5-5.6,6.4-9a.73.73,0,0,0-1.1-.8c-3.3,2.3-5.6,6.1-8.1,9.2a101.83,101.83,0,0,0-6.8,10.3c-.2.1.2.4.4.2Z" transform="translate(-7.97 -8.17)"/></g></g><g id="_Group_10" data-name="&lt;Group&gt;"><g id="_Group_11" data-name="&lt;Group&gt;"><path id="_Path_5" data-name="&lt;Path&gt;" class="cls-1" d="M32.07,51.83c7.5-3.4,15.1-10.2,19.8-17,.6-.8-.6-2-1.4-1.4a115,115,0,0,0-9.7,8.8,86.69,86.69,0,0,0-8.8,9.4c-.1.1,0,.2.1.2Z" transform="translate(-7.97 -8.17)"/></g></g><g id="_Group_12" data-name="&lt;Group&gt;"><g id="_Group_13" data-name="&lt;Group&gt;"><path id="_Path_6" data-name="&lt;Path&gt;" class="cls-1" d="M43.07,8.43a4.85,4.85,0,0,0-6.3,3.9,5.63,5.63,0,0,0,1.6,4.4,3.6,3.6,0,0,0,4.4.2,1.39,1.39,0,0,0,.3-2.1c-.4-.4-.4-.9-.8-1.4s-.7-.6-.8-1.2c-.2-1.1.7-1.7,1.7-1.9,1,0,.7-1.6-.1-1.9Z" transform="translate(-7.97 -8.17)"/></g></g></g></svg>