<svg id="Layer_1" data-name="Layer 1" xmlns="http://www.w3.org/2000/svg" viewBox="0 0 42.2 50.5"><defs><style>.cls-1{fill:#171617;}</style></defs><title>THUL</title><path id="_Path_" data-name="&lt;Path&gt;" class="cls-1" d="M27.9,6.75a19.06,19.06,0,0,0-4.3,8.5C22.8,20,16.1,40,14.6,41l15.1-8.3,1.7-8.2-4.2.3,8.7-6.3,1,3L34.4,23l-1.5,7.8s7.2-6,8.3-9.8,1-5.3,1-5.3L50.5,24l-6.8.8-5.5,6-5.4,3.6a94,94,0,0,1-2.8,9.3c-1,2.2-3.2,6.7-3.2,6.7s13.3-5.4,14.6-6.9A9.15,9.15,0,0,1,42.8,42l-.5-6.6,3.4-.1L51.1,47l-7.6-1.6L29.8,53l-4.1.8-.9,1.5-3.8-.9,5.4-10.6,2.4-7.3-11.3,7.4-8.6,1.6,1.4-4.6s8.1-11.3,8.8-18.2c.7-7.2.2-9.7.2-9.7l-1.9.9.4-2.6,8.5-6.5Z" transform="translate(-8.9 -4.75)"/></svg>