<svg id="Layer_1" data-name="Layer 1" xmlns="http://www.w3.org/2000/svg" viewBox="0 0 39.09 44.83"><title>TIR</title><g id="_Group_" data-name="&lt;Group&gt;"><g id="_Group_2" data-name="&lt;Group&gt;"><g id="_Group_3" data-name="&lt;Group&gt;"><path id="_Path_" data-name="&lt;Path&gt;" d="M31.8,8.8c-1.4,7,1.3,13.8,3.9,20.2,2.1,5,4.2,11.4,8.8,14.6a1.43,1.43,0,0,0,2.1-.9,27.44,27.44,0,0,1,.9-3.9H45.7c0,.1.1.1.1.2a7.37,7.37,0,0,1,.4-1.4c-.1,0-.1.1-.2.1a1,1,0,0,0,1,1.8c.1,0,.1-.1.2-.1a1.14,1.14,0,0,0,.4-1.4c0-.1-.1-.1-.1-.2a1.08,1.08,0,0,0-1.7-.2c-1.1,1.2-1.4,2.9-2,4.4l2.4-.6C42.2,38.1,40,32.7,38,28c-2.6-5.8-6-12.8-6-19.2,0-.1-.1-.1-.2,0Z" transform="translate(-10.53 -8.28)"/></g></g><g id="_Group_4" data-name="&lt;Group&gt;"><g id="_Group_5" data-name="&lt;Group&gt;"><path id="_Path_2" data-name="&lt;Path&gt;" d="M47.7,22a11.67,11.67,0,0,1-3.4,6,.91.91,0,0,0,0,1.2c.7.6,1.5,1.1,2.2,1.8,1.1,1.2.2,1.9.7,3a1.07,1.07,0,0,0,1.5.8,1.29,1.29,0,0,0,.9-1.2c.2-3.2-2-4.1-4.3-5.8.1.4.1.9.2,1.3A11.69,11.69,0,0,0,48.1,22c0-.1-.3-.2-.4,0Z" transform="translate(-10.53 -8.28)"/></g></g><g id="_Group_6" data-name="&lt;Group&gt;"><g id="_Group_7" data-name="&lt;Group&gt;"><path id="_Path_3" data-name="&lt;Path&gt;" d="M21.5,44.6c5.7-2.6,10.3-7.6,10.9-14,.1-.6-.8-.7-1-.3-3.1,4.9-5.9,9.9-10.1,14-.2.2,0,.4.2.3Z" transform="translate(-10.53 -8.28)"/></g></g><g id="_Group_8" data-name="&lt;Group&gt;"><g id="_Group_9" data-name="&lt;Group&gt;"><path id="_Path_4" data-name="&lt;Path&gt;" d="M37.9,42.6c-1.6-2.7-1.8-5.9-2.5-8.8a1.34,1.34,0,0,0-2.6.3c-.2,5.8-.8,16.1-8.8,15.4a7.14,7.14,0,0,1-3.8-1.4c-5.2-3.9-.9-9.9,2-13.8.4-.6-.4-1-.9-.7-4.5,3.5-8.5,9.8-4.6,15.3a9.93,9.93,0,0,0,4.2,3.4,4.61,4.61,0,0,0,2.3.6c10.7,2,12-11.4,12.1-18.9l-2.6.3c.7,2.7,1.9,7.4,4.9,8.4.2.2.4,0,.3-.1Z" transform="translate(-10.53 -8.28)"/></g></g><g id="_Group_10" data-name="&lt;Group&gt;"><g id="_Group_11" data-name="&lt;Group&gt;"><path id="_Path_5" data-name="&lt;Path&gt;" d="M15.9,35c-2.8-2.8-4.2-6.3-2.5-10.1,1-2.2,2.7-3.7,3.3-6.1H14a19.87,19.87,0,0,0,6,10c1.5,1.4,3.9,2.9,5,.2.3-.7-.5-1.3-1.2-1.2-1.3.4-3.8-2.8-4.4-3.8a16.13,16.13,0,0,1-2.6-6,1.42,1.42,0,0,0-2.7,0c-.9,4-4.1,6.5-3.5,10.9.4,3.1,2.1,5.6,5.2,6.3a.11.11,0,1,0,.1-.2Z" transform="translate(-10.53 -8.28)"/></g></g><g id="_Group_12" data-name="&lt;Group&gt;"><g id="_Group_13" data-name="&lt;Group&gt;"><path id="_Path_6" data-name="&lt;Path&gt;" d="M31.6,8.5C30.3,12.2,29,16,27.5,19.6c-1.4,3.3-3.3,6.3-4.2,9.7-.3,1.1,1.1,1.5,1.7.7,4.4-5.8,6.1-14.5,7.2-21.4,0-.3-.5-.5-.6-.1Z" transform="translate(-10.53 -8.28)"/></g></g><g id="_Group_14" data-name="&lt;Group&gt;"><g id="_Group_15" data-name="&lt;Group&gt;"><path id="_Path_7" data-name="&lt;Path&gt;" d="M15.5,27.1c.2,1.8,1.7,4.4,3.8,4.2a.73.73,0,0,0,.4-1.3,18.58,18.58,0,0,1-1.9-1.1A3.87,3.87,0,0,1,16.6,27c-.3-.6-1.2-.5-1.1.1Z" transform="translate(-10.53 -8.28)"/></g></g></g></svg>