<svg id="Layer_1" data-name="Layer 1" xmlns="http://www.w3.org/2000/svg" viewBox="0 0 30.27 40.81"><defs><style>.cls-1{fill:#171617;}</style></defs><title>UM</title><g id="_Group_" data-name=" Group "><g id="_Group_2" data-name=" Group 2"><g id="_Group_3" data-name=" Group 3"><path id="_Path_" data-name=" Path " class="cls-1" d="M2.31,3.69c-6.6,2.7,2.7,11.2,5.8,12.9,2.3,1.2,3.9,1.1,5.6-.8s3.1-4.5,4.7-6.7c.7-1,1.5-3,2.5-3.6,1.5-1,5.6-2.4,6.1-.1a1.2,1.2,0,0,0,1.8.7c.2-.2.4-.3.6-.5a1.81,1.81,0,0,0,.8-2c-1.3-5.9-7.1-3.5-9.8-.1-2.4,3-5,8.8-8.5,10.5-2.2,1.1-4.3-1.2-6-3-.7-.8-4.1-4.5-2.9-5.9C3.61,4.59,3.11,3.39,2.31,3.69Z" transform="translate(0 0)"/></g></g><g id="_Group_4" data-name=" Group 4"><g id="_Group_5" data-name=" Group 5"><path id="_Path_2" data-name=" Path 2" class="cls-1" d="M17.21,10.69c-2,3.9,1.4,5.6,3.4,8.7,2.2,3.5,3.7,8,1.8,11.9-1.3,2.7-3.7,4.4-4.9,7.1-.5,1.1.4,2.9,1.8,2.3,5.3-2,5.8-8,5.8-13,0-2.8,0-5.1-1.2-7.7-1.4-2.9-6.6-6.1-6.5-9.3C17.41,10.69,17.21,10.59,17.21,10.69Z" transform="translate(0 0)"/></g></g><g id="_Group_6" data-name=" Group 6"><g id="_Group_7" data-name=" Group 7"><path id="_Path_3" data-name=" Path 3" class="cls-1" d="M22.91,21c-4.8,2.6-8.8,6.5-13,10,.9.2,1.8.5,2.7.7-1.2-3.8-5.7-5-7.6-8.5v2.2c.1-.2.3-.4.4-.6,1.3-2-.6-4.6-2.9-4.3-2.1.3-3.5,3.3-1.6,4.9,1.2,1,2,2.2,3.2,3.1,1.5,1.1,4.7,2.3,5.4,4.1a1.63,1.63,0,0,0,2.7.7c3.8-3.8,8.1-7.5,11-12C23.31,21,23.11,20.89,22.91,21Z" transform="translate(0 0)"/></g></g><g id="_Group_8" data-name=" Group 8"><g id="_Group_9" data-name=" Group 9"><path id="_Path_4" data-name=" Path 4" class="cls-1" d="M18.31,9.19c-1.7,1.7-1.6,2.8-.3,4.7a20.44,20.44,0,0,0,2.5,3.3c1.7,1.8,3.4,2.4,3.7,5.3,0,.1.2.1.2,0,.6-5.4-7.3-7.8-5.8-13.2C18.41,9.19,18.31,9.09,18.31,9.19Z" transform="translate(0 0)"/></g></g></g></svg>