<svg id="Layer_1" data-name="Layer 1" xmlns="http://www.w3.org/2000/svg" viewBox="0 0 36.96 44.16"><defs><style>.cls-1{fill:#171617;}</style></defs><title>VEX</title><g id="_Group_" data-name="&lt;Group&gt;"><g id="_Group_2" data-name="&lt;Group&gt;"><g id="_Group_3" data-name="&lt;Group&gt;"><path id="_Path_" data-name="&lt;Path&gt;" class="cls-1" d="M47.54,17c1.3-1.8,1.4-5.4-.6-6.8a3.29,3.29,0,0,0-2-.4c-1.6-.1-3.3.7-5,.5-2-.3-3.8-1.4-5.6-2.2a1.74,1.74,0,0,0-2.1,2.7c2,2.5,4.8,3.8,7,6.1,3.1,3.1,3.8,7.5,3.8,11.7,0,7.5-2.9,15.4.1,22.6a1.24,1.24,0,0,0,2.4-.6c-1.3-9,1.9-17.7.5-26.6a17.89,17.89,0,0,0-3.4-8.3c-2.3-2.8-5.7-4.3-7.9-7.2l-2.1,2.7c2.7,1.2,5.5,2.4,8.5,2.3-.7,0,4.2-.5,3.4-.7,2.2.6,1.9,2.8,2.9,4.4,0-.1.1-.1.1-.2Z" transform="translate(-11.52 -7.92)"/></g></g><g id="_Group_4" data-name="&lt;Group&gt;"><g id="_Group_5" data-name="&lt;Group&gt;"><path id="_Path_2" data-name="&lt;Path&gt;" class="cls-1" d="M34.44,51.51a10.48,10.48,0,0,0,5.2-1.5c1.7-1.2,3.4-2.4,3.5-4.5a1.64,1.64,0,0,0-2.2-1.6c-1.7.4-2.6,1.9-3.8,3s-2.1,2.4-3.2,3.6c-.3.3,0,1,.5,1Z" transform="translate(-11.52 -7.92)"/></g></g><g id="_Group_6" data-name="&lt;Group&gt;"><g id="_Group_7" data-name="&lt;Group&gt;"><path id="_Path_3" data-name="&lt;Path&gt;" class="cls-1" d="M26.34,36.11c7,1.9,15.4-2.3,19-8.5.7-1.2-1-2.5-1.9-1.5-4.2,4.8-11.3,7.2-17.1,9.3a.38.38,0,0,0,0,.7Z" transform="translate(-11.52 -7.92)"/></g></g><g id="_Group_8" data-name="&lt;Group&gt;"><g id="_Group_9" data-name="&lt;Group&gt;"><path id="_Path_4" data-name="&lt;Path&gt;" class="cls-1" d="M26.34,31.31c3.4,1.5,7.2-.4,10-2.5a17.51,17.51,0,0,0,6.5-10.5c.2-1.1-1.1-2.1-2-1.2-2.4,2.5-3.9,5.7-6.2,8.3s-5.6,3.5-8.3,5.6c-.2,0-.1.2,0,.3Z" transform="translate(-11.52 -7.92)"/></g></g><g id="_Group_10" data-name="&lt;Group&gt;"><g id="_Group_11" data-name="&lt;Group&gt;"><path id="_Path_5" data-name="&lt;Path&gt;" class="cls-1" d="M27.74,30.71c-.5-5.1-6.6-6.8-10.9-5.1a8.41,8.41,0,0,0-4.7,10.9,9.13,9.13,0,0,0,10.7,4.9,8,8,0,0,0,4.7-10.7,1.22,1.22,0,0,0-2.1,0c-1.1,1.8-1.5,4.3-2.8,5.9-1.6,1.9-5.1,1.3-6.6-.5-1.8-2.1-.8-5.6,1.6-6.8,2.9-1.5,5.6.3,7.6,2.3.9.9,2.6.4,2.5-.9Z" transform="translate(-11.52 -7.92)"/></g></g></g></svg>