<svg id="Layer_1" data-name="Layer 1" xmlns="http://www.w3.org/2000/svg" viewBox="0 0 32.1 43.74"><defs><style>.cls-1{fill:#171617;}</style></defs><title>ZOD</title><g id="_Group_" data-name="&lt;Group&gt;"><g id="_Group_2" data-name="&lt;Group&gt;"><g id="_Group_3" data-name="&lt;Group&gt;"><path id="_Path_" data-name="&lt;Path&gt;" class="cls-1" d="M39.26,18.17a3.76,3.76,0,0,0-.2-4.3,3.92,3.92,0,0,1-.8-1c-.6-.9-.1-1.5.7-1.9a2.12,2.12,0,0,1,2.3.1c.2.2.3.6.5.8a1.09,1.09,0,0,0,1.5,0l.2-.2a1.21,1.21,0,0,0,.3-1.3c-1.2-3-5.2-2.7-7.3-.8-3.2,2.8,2.1,5.6,2.1,8.4a.4.4,0,0,0,.7.2Z" transform="translate(-13.95 -8.13)"/></g></g><g id="_Group_4" data-name="&lt;Group&gt;"><g id="_Group_5" data-name="&lt;Group&gt;"><path id="_Path_2" data-name="&lt;Path&gt;" class="cls-1" d="M40.16,25.57c-1.1-2.8-3.7-4.4-5.8-6.5-2.9-2.9-6-5.5-8.8-8.5-.9-1-3.1-.3-2.9,1.2a97.37,97.37,0,0,1,.4,17.9l2.1-.9a33.18,33.18,0,0,0-9.1-5.7c-.9-.4-2.2,0-2.1,1.2.6,5.8,1.4,11.6,1.7,17.4.1.9,1.1,1.7,1.9,1.1,8.1-5.2,19.9-4.1,26.5,2.7A1.16,1.16,0,0,0,46,45c1-4.6-6.2-7.2-9.4-8.1a24.41,24.41,0,0,0-20.3,3.7c.6.4,1.3.7,1.9,1.1-.7-5.8-1-11.6-1.5-17.4-.6.4-1.2.9-1.8,1.3a30.82,30.82,0,0,1,8.4,4.9,1.26,1.26,0,0,0,2.1-.9,130.35,130.35,0,0,0,.7-17.7c-1,.4-1.9.8-2.9,1.2,3.6,4.6,10.3,12.9,16.8,12.8.1,0,.2-.2.2-.3Z" transform="translate(-13.95 -8.13)"/></g></g><g id="_Group_6" data-name="&lt;Group&gt;"><g id="_Group_7" data-name="&lt;Group&gt;"><path id="_Path_3" data-name="&lt;Path&gt;" class="cls-1" d="M23.06,49.67a2.77,2.77,0,0,0,.3,1.3,2,2,0,0,0,3.3,0,2.77,2.77,0,0,0,.3-1.3,2,2,0,1,0-3.9,0Z" transform="translate(-13.95 -8.13)"/></g></g><g id="_Group_8" data-name="&lt;Group&gt;"><g id="_Group_9" data-name="&lt;Group&gt;"><path id="_Path_4" data-name="&lt;Path&gt;" class="cls-1" d="M33.76,47.67h-.1a2.14,2.14,0,0,0-1.5,1.9,1.93,1.93,0,0,0,1.5,1.9h.1a2.08,2.08,0,0,0,2.6-2,2.06,2.06,0,0,0-2.6-1.8Z" transform="translate(-13.95 -8.13)"/></g></g></g></svg>