<svg id="Layer_1" data-name="Layer 1" xmlns="http://www.w3.org/2000/svg" viewBox="0 0 56.72 54.4"><defs><style>.cls-1{fill:#787878;}.cls-2{fill:#232323;}.cls-3{fill:#606161;}.cls-4{fill:#9c9d9c;}</style></defs><title>amn</title><g id="_Group_" data-name="&lt;Group&gt;"><g id="_Group_2" data-name="&lt;Group&gt;"><path id="_Path_" data-name="&lt;Path&gt;" class="cls-1" d="M237.4,187.59c-0.75.35-16.85,34.36-16.85,36.3s1,16.15,1.85,17,46.91,0.79,48.7,0,5.55-5.06,5.93-5.93,0.25-4,0-5.93-13.09-40.71-13.89-41.48S238.15,187.23,237.4,187.59Z" transform="translate(-220.55 -187.15)"/><path id="_Path_2" data-name="&lt;Path&gt;" class="cls-2" d="M236.52,215.09c0.14,1.32-7.08,10.69,2.64,17.08s26.11-.56,26.11-6.81-2.78-8.75-2.78-8.75,3.89,1.44,4.17,9.58-14.91,10.74-19,10.37-14.35-1.48-15.46-13.06S236.39,213.77,236.52,215.09Z" transform="translate(-220.55 -187.15)"/><path id="_Path_3" data-name="&lt;Path&gt;" class="cls-2" d="M249.79,228.56a6.08,6.08,0,0,1,.52-5c1.48-2.78,1.82-5.23.15-7.55s-2.31-5.37.65-8.15,4.58-6.39.69-10.83c-8.16-9.33-12.69,3.5-10.56,4.79s2.5-.39,3.33-2c2-3.87,8.54.63,6.9,4.07C250,207,245.32,210.22,246,213s5.52,5.58,4.24,8.13C248.64,224.22,248.31,226.52,249.79,228.56Z" transform="translate(-220.55 -187.15)"/></g><path id="_Path_4" data-name="&lt;Path&gt;" class="cls-3" d="M277,233.33a20.74,20.74,0,0,1-5.93,5.17c-1.8.79-47.82,0.89-48.7,0s-1.59-10.77-1.8-14.9a1.31,1.31,0,0,0-.05.29c0,1.93,1,16.15,1.85,17s46.91,0.79,48.7,0,5.55-5.06,5.93-5.93a10.1,10.1,0,0,0,.22-3.17A5.07,5.07,0,0,1,277,233.33Z" transform="translate(-220.55 -187.15)"/><path id="_Path_5" data-name="&lt;Path&gt;" class="cls-4" d="M237.41,188.83c0.75-.35,24.94-0.77,25.74,0s13.64,39.6,13.89,41.48a29.75,29.75,0,0,1,.23,3,28.94,28.94,0,0,0-.23-4.27c-0.25-1.88-13.09-40.71-13.89-41.48s-25-.35-25.74,0-16.85,34.36-16.85,36.3c0,0.21,0,.58,0,1C221.29,221.64,236.67,189.18,237.41,188.83Z" transform="translate(-220.55 -187.15)"/></g></svg>