<?xml version="1.0" encoding="utf-8"?>
<!-- Generator: Adobe Illustrator 19.0.0, SVG Export Plug-In . SVG Version: 6.00 Build 0)  -->
<svg version="1.1" id="Layer_1" xmlns="http://www.w3.org/2000/svg" xmlns:xlink="http://www.w3.org/1999/xlink" x="0px" y="0px"
	 viewBox="0 0 60 60" enable-background="new 0 0 60 60" xml:space="preserve">
<g id="el" display="none">
	<path id="XMLID_3_" display="inline" fill="#171617" d="M25.6,14.5c7.1,3.9-7.9,3.3-10.4,8.2c-3.3,6.5,1.3,13.4,2.6,17.1
		c0.9,2.4,0.9,5.1,0.9,6.7c0,0.8,0.6,1.4,1.3,1.4c3.5,0,12.8,0.1,17-0.8c5.2-1,8.1-5.4,9.4-9.3c0.4-1.3,0.2-3.3-0.1-4.9
		c-0.2-1.1,0.9-2,1.9-1.4c0.8,0.4,1.6,0.9,1.8,1.3c1.9,3.1-3.4,16.1-12.3,16.7c-8.9,0.6-20.1-0.3-22.5,1.3l-1.7,1.3
		c0,0-0.8-1.6-0.5-2.9c0.3-1.4,2.4-1.5,2-6.2c-0.5-5.5-6.6-11.6-4.3-18.2S14.3,13,25.6,14.5z"/>
	<path id="XMLID_4_" display="inline" fill="#171617" d="M40.4,8c-2.9,0.3-9.2,9.4-11,14.3c-1.8,4.9-2.3,10-1.6,10.4
		c0.7,0.4,1.2-1.7,3.3-7s8.1-14.2,10.3-15.6c1.4-0.9,2.3-0.6,2.3-0.6S42.5,7.8,40.4,8z"/>
	<path id="XMLID_5_" display="inline" fill="#171617" d="M49.6,15.4c0,0-2.5-1.3-5.1,1.2c-4.4,4.2-7.1,11.8-8.5,16.2
		c-1.3,4.4-2.9,5.5-3,1.2s3.3-14,8.7-18.7C45.1,12.3,49.4,11.4,49.6,15.4z"/>
	<path id="XMLID_2_" display="inline" fill="#171617" d="M31.5,41.1c0,1.9-2.3,3.4-4.2,3.4c-1.9,0-3.4-1.5-3.4-3.4s1.5-3.4,3.4-3.4
		C29.2,37.8,31.5,39.3,31.5,41.1z"/>
</g>
<path id="ELD" fill="#171617" d="M26,36.4c-1.1,5.2-9.7,16.1-6.9,15.5c2.8-0.5,3.3-3.4,3.3-3.4s8.8-3,9.1-0.2
	c0.6,5.3,2.2,8.1,3.8,4.6c1.6-3.5-1.5-6.6-4.1-7.1s-7.7,0.3-7.7,0.3s3.5-8,4.7-7.9c1.2,0.1,3.9,2.4,8,4c4.8,1.9,10,3.2,10.2,3
	c0.4-0.3,1.3-1,1.3-1.3c0.1-0.3-1.2-0.7-1.2-0.7l2.4-3.1l-1.4-1.1c0,0-2.8,3-3.7,3.3c-0.9,0.3-4.5-1.2-7.8-3
	c-3.3-1.8-5.5-2.2-6.7-4.3c-1.3-2.1-1-8-1-8l1.2-3c0,0,4.8,0.8,7.7,2.5c2.9,1.7,2.8,2.5,3.6,2.1c0.8-0.3-5.9-5.8-8.5-6.2
	c-2.1-0.3-2.1-0.3-2.1-0.3l3.7-6.7c0,0,5.9,4,8.9,3.5s7.4-6.3,5.7-9.7s-6.2-5.8-9.8-1.8c-3.5,4,1.7,6.6,4,5.9
	c2.3-0.6,3.1-2.4,0.8-2.7s-4.1-1-1.9-2.2s7.9,1.4,5.3,4.9c-2.6,3.5-7.2,4.2-9.9,1.7s-1.6-3.9-3.3-3.6c-1.7,0.2-7.5,16.2-14.6,12.8
	c-2.5-1.2-4.2-3.2-4.2-3.2L14,23.3c0,0,4.4,3.1,4.4,4.5S15.5,32,15.5,32l2.5,2.1l3.5-5.9H25C25,28.2,27.1,31.2,26,36.4z"/>
<g id="XMLID_7_" display="none">
	<g id="XMLID_311_" display="inline">
		<g id="XMLID_55_">
			<path id="XMLID_885_" fill="#171617" d="M44,4c-7.3,1.3-13.5,4.3-19.5,8.6c-4.1,3-10.3,7.7-10.6,13.4c-0.2,4.5,4.3,3.5,7.4,3.2
				c3.1-0.3,8.9-0.9,8.4-5.3c-0.1-1.2-1.4-1.8-2.3-0.9c-2.1,1.9-5.5,2.3-8.3,2.4c-2.6,0.1-1.5,0.1,0.1-2.6c1.1-1.8,2.7-3.3,4.3-4.8
				c6.1-5.4,13.7-9.2,21-12.7C45.4,5,44.8,3.9,44,4L44,4z"/>
		</g>
	</g>
	<g id="XMLID_312_" display="inline">
		<g id="XMLID_49_">
			<path id="XMLID_884_" fill="#171617" d="M30.8,27.6c1.7,0.7,4.2,0.3,6.1,0.5c2.2,0.3,4.5,0.7,6.8,0.6c4-0.3,7.1-3.4,8.2-7.1
				c1.3-4-5.1-5.8-6.3-1.7c-0.7,2.2-0.9,3.6-3.4,4.3c-1.7,0.5-3.8,0.4-5.6,0.5c-2.1,0.2-5,0-6.2,2C30.2,27.1,30.4,27.4,30.8,27.6
				L30.8,27.6z"/>
		</g>
	</g>
	<g id="XMLID_313_" display="inline">
		<g id="XMLID_43_">
			<path id="XMLID_883_" fill="#171617" d="M31.9,32c0.7,0.3,1.6,1,2.3,0.4c0.5-0.4,0.5-1.1,0-1.5c-0.7-0.5-1.6,0.1-2.3,0.4
				C31.7,31.5,31.7,31.9,31.9,32L31.9,32z"/>
		</g>
	</g>
	<g id="XMLID_314_" display="inline">
		<g id="XMLID_37_">
			<path id="XMLID_882_" fill="#171617" d="M31,32.3c0.8,0.5,1.5,1.1,2.3,1.6c-0.3-1-0.5-1.9-0.8-2.9c-2.1,4.1-0.8,8.5-4.3,12.3
				c-4.4,4.9-11,5.4-16.8,3.1c-1.8-0.7-3.1,2.3-1.3,3.1c12.9,6.2,25.7-4,26.3-17.5c0.1-1.1-1-2.1-2.1-2.1c-0.9,0-1.8-0.2-2.7-0.2
				C30.3,29.8,29.8,31.6,31,32.3L31,32.3z"/>
		</g>
	</g>
	<g id="XMLID_316_" display="inline">
		<g id="XMLID_31_">
			<path id="XMLID_881_" fill="#171617" d="M10.3,53.2c0.9,0.6,2.1,0.5,2.9-0.3c0.4-0.4,0.6-1.1,0.4-1.6c-0.2-0.6-0.5-1-1.2-1.2
				c-0.5-0.1-1,0-1.4,0.2c-0.2,0.1-0.1,0.1,0.1,0c0.5,0.1,0.7,0,0.4,0c-0.7-0.3-1.6,0.2-1.9,0.9C9.3,52,9.6,52.8,10.3,53.2
				L10.3,53.2z"/>
		</g>
	</g>
	<g id="XMLID_15_" display="inline">
		<g id="XMLID_34_">
			<path id="XMLID_880_" fill="#171617" d="M40.8,10.5c0,0.3,0,0.6-0.1,0.9c0,1.1,0.5,2.2,1.5,2.6c1,0.5,2,0.5,2.9-0.2
				c0.7-0.6,1.3-1.8,0.9-2.7c-0.3-0.7-0.6-1.3-1.3-1.7c-0.5-0.3-1.1-0.4-1.6-0.4c-0.4,0-0.9,0.1-1.3,0.2C41.2,9.2,40.8,10,40.8,10.5
				L40.8,10.5z"/>
		</g>
	</g>
	<g id="XMLID_16_" display="inline">
		<g id="XMLID_63_">
			<path id="XMLID_879_" fill="#171617" d="M50.4,42.9c-0.6-1.4-1.7-2.5-3.2-2.9c-1.5-0.4-3-0.4-4.3,0.6c-0.9,0.7-1.4,1.7-1.4,2.9
				c0,0.8,0.3,1.6,0.8,2.3c0.3,0.5,0.6,1,1,1.4c0.7,0.7,1.5,1,2.4,1.3c-0.3-0.1-0.6-0.3-1-0.4c0.1,0.1,0.3,0.1,0.4,0.2
				c0.8,0.4,1.6,0.6,2.5,0.5c0.8-0.1,1.7-0.4,2.2-1.1c0.5-0.5,0.8-1.1,1-1.7C51.2,44.8,50.8,43.8,50.4,42.9L50.4,42.9z"/>
		</g>
	</g>
</g>
<g id="ETH" display="none">
	<g id="XMLID_337_" display="inline">
		<g id="XMLID_97_">
			<path id="XMLID_878_" fill="#171617" d="M19.4,47.6c-1.1-0.8,0.8-2.9,1.4-3.5c0.5-0.5,1-0.9,1.5-1.4c0.4-0.5,0.6-1.1,0.9-1.7
				c0.5-1-0.4-2.2-1.5-1.9c-1.5,0.4-2.4,0.9-3.3,2.2c-0.8,1.1-1.5,2.4-1.9,3.7c-0.6,1.9,0.5,5.1,3,3.7
				C19.8,48.5,19.8,47.9,19.4,47.6L19.4,47.6z"/>
		</g>
	</g>
	<g id="XMLID_916_" display="inline">
		<g id="XMLID_91_">
			<path id="XMLID_877_" fill="#171617" d="M31,45.1c-0.2-2.9-1.3-5-3.3-7.2c-1.5-1.7-3.7-2.8-4.6-5c-1.2-2.8-1-3,1.7-3.9
				c3.6-1.2,7-0.6,10.4-2.9c1.8-1.3,3.3-3,4-5.1c1.8-5.5-1.7-11.2-6.7-13.5c-1.7-0.8-4.9-2.1-6.9-1.5c-2.7,0.8-4.1,4.7-5.6,6.8
				c0.7,0.3,1.4,0.6,2.1,0.9c1.3-3.5,2.5-7,3.4-10.6c0.5-1.9-2.6-2.7-2.9-0.8C21.8,6,21,9.6,19.7,13.1c-0.5,1.3,1.4,1.8,2.1,0.9
				c1-1.3,2.6-3.9,4.1-4.5c1-0.4,3.6,0.8,4.5,1.3c3,1.5,5.7,4.2,5.6,7.8c-0.3,7.5-9,8.4-14.8,7.9c-0.5,0-1.1,0.3-1.3,0.7
				c-1.3,2.7-1,5.2,0.7,7.7c1,1.5,2.6,2.5,3.9,3.8c2.1,2,3.6,4.3,5.3,6.7C30.1,45.9,31,45.8,31,45.1L31,45.1z"/>
		</g>
	</g>
	<g id="XMLID_944_" display="inline">
		<g id="XMLID_85_">
			<path id="XMLID_873_" fill="#171617" d="M43.3,23.5c0.1,0,0.1-0.2,0-0.2C43.2,23.3,43.2,23.5,43.3,23.5L43.3,23.5z"/>
		</g>
	</g>
	<g id="XMLID_951_" display="inline">
		<g id="XMLID_79_">
			<path id="XMLID_872_" fill="#171617" d="M40.6,21.3c0.4,1.6,1,2.7,1.7,4.1c1.3,2.5,1,4.8,1.1,7.5c0.2,4.1-0.3,9.3,1.7,12.8
				c1,1.7,3.6,0.9,3.6-1c0.1-2.3-0.7-3.6-1.4-5.8c-0.9-2.6-1.3-5.4-1.7-8.1c-0.2-1.5-0.2-3.6-1-4.9c-1.1-1.8-2.8-2.8-3.7-4.9
				C40.9,20.8,40.6,21,40.6,21.3L40.6,21.3z"/>
		</g>
	</g>
	<g id="XMLID_958_" display="inline">
		<g id="XMLID_73_">
			<path id="XMLID_871_" fill="#171617" d="M37,44.5c2.5-0.9,4-2.8,5.6-4.9c1.7-2.2,3.3-4.3,3.4-7.1c0-0.9-1.2-1.5-1.9-0.8
				c-1.8,1.8-2.5,4.2-3.8,6.4c-1.2,2.1-2.8,3.8-3.6,6.1C36.7,44.4,36.9,44.6,37,44.5L37,44.5z"/>
		</g>
	</g>
	<g id="XMLID_959_" display="inline">
		<g id="XMLID_67_">
			<path id="XMLID_870_" fill="#171617" d="M46.9,14.4c0,1-0.1,1.9-0.3,2.9c-0.2,1,0.1,2,0.1,3c0.1,1.6,2.1,1.7,2.6,0.4
				c0.5-1.3,0.9-2.4,0.4-3.7c-0.4-1.1-1-2-1.8-2.9C47.6,13.5,46.9,13.9,46.9,14.4L46.9,14.4z"/>
		</g>
	</g>
	<g id="XMLID_965_" display="inline">
		<g id="XMLID_108_">
			<path id="XMLID_869_" fill="#171617" d="M30.5,26.5C30.5,26.5,30.5,26.5,30.5,26.5c0-0.5-0.3-1.1-0.7-1.4c-0.7-0.4-1-0.8-1.8-1.2
				c-0.3-0.1,0,0-0.2-0.1c-0.2-0.1-0.3-0.2-0.5-0.2c-0.5-0.1-0.9,0-1.2,0.5c-0.4,0.7-0.1,1.9,0.4,2.4c0.5,0.7,1.4,1.1,2.2,1.4
				c0.5,0.2,1.2,0,1.5-0.4C30.4,27.2,30.5,27,30.5,26.5L30.5,26.5z"/>
		</g>
	</g>
</g>
<g id="XMLID_1_" display="none">
	<path id="XMLID_9_" display="inline" fill="#171617" d="M28.1,16c0,0-15.3,20.1-15.3,22c-0.1,1.9,2.7,2,5,3.2s5.3,4.6,5,5.8
		c-0.3,1.2-10,6.8-10,6.8l-5.8,1l0.8-3c0,0,5.2-1.2,7.5-3.3c2.3-2.2,2.3-2.4,2.3-3.3S6.9,41,6.9,38.9S23.4,18.6,23.6,17
		c0.2-1.6-5.3-6.5-5.2-7.5c0.1-1,4-6.8,4-6.8l0.8,3c0,0-2.2,3.4-2.2,4.2C21.2,10.7,28.1,16,28.1,16z"/>
	<path id="XMLID_8_" display="inline" fill="#171617" d="M40.6,8.2c0,0,3.5,1.3,2.3,3.5c-1.2,2.2-7.1,1.9-7.5,3.8
		c-0.4,2,13.2,21.7,13,22.9c-0.2,1.2-9.1,8.6-9.1,8.6l2,2.3l6.2,3.5c0,0-6.3-5.5-2.2-8.5s7.8-4.4,7.8-6S47,30.1,47,30.1l-6.1-11.4
		c0,0-0.8-2.7,1.7-4.3S50.6,8,40.6,8.2z"/>
	<path id="XMLID_6_" display="inline" fill="#171617" d="M29.9,45.5c0,0,6.6-4.1,4.2-8.8C27.2,27.2,34.8,23,33.8,22
		s-7.5,3.5-6.7,6.8c0.8,3.3,4.8,9.9,3,11.9C28.3,42.7,29.9,45.5,29.9,45.5z"/>
</g>
<g id="XMLID_908_" display="none">
	<g id="XMLID_736_" display="inline">
		<g id="XMLID_137_">
			<path id="XMLID_868_" fill="#171617" d="M8.4,31.3c3.1-2.6,5.6-6.6,8-9.8c2.7-3.5,6.7-6.7,8.8-10.5c0.6-1-0.4-2.7-1.7-2.2
				c-3.9,1.6-6.6,5.8-9,9.2c-2.6,3.7-5.5,8.8-6.3,13.2C8.2,31.3,8.3,31.4,8.4,31.3L8.4,31.3z"/>
		</g>
	</g>
	<g id="XMLID_801_" display="inline">
		<g id="XMLID_131_">
			<path id="XMLID_867_" fill="#171617" d="M23.4,11.6c2.4,5.3,4.2,10.5,3.4,16.4c-0.6,3.9-1.8,7.9-0.5,11.7c0.3,0.7,1.2,0.7,1.4,0
				c1-3,0.8-6.2,1.3-9.3c0.4-2.6,0.8-5.2,0.5-7.8c-0.6-4.6-3-7.7-6-11.1C23.5,11.4,23.3,11.5,23.4,11.6L23.4,11.6z"/>
		</g>
	</g>
	<g id="XMLID_874_" display="inline">
		<g id="XMLID_125_">
			<path id="XMLID_866_" fill="#171617" d="M14.2,28.6c4.5,1.4,8.8,1.8,13.5,1.9c4,0.1,8.3,0.5,12-1.3c0.7-0.3,0.5-1.4-0.2-1.5
				c-3.8-0.9-7.9,0-11.8,0.2c-4.5,0.2-9,0-13.5,0.3C14.1,28.3,14,28.5,14.2,28.6L14.2,28.6z"/>
		</g>
	</g>
	<g id="XMLID_875_" display="inline">
		<g id="XMLID_119_">
			<path id="XMLID_865_" fill="#171617" d="M28.4,47.9c3.2-3.2,6.4-6.4,9.2-9.9c2.3-2.9,5-5.6,6.4-9c0.2-0.6-0.6-1.2-1.1-0.8
				c-3.3,2.3-5.6,6.1-8.1,9.2c-2.6,3.2-4.6,6.8-6.8,10.3C27.8,47.8,28.2,48.1,28.4,47.9L28.4,47.9z"/>
		</g>
	</g>
	<g id="XMLID_876_" display="inline">
		<g id="XMLID_113_">
			<path id="XMLID_864_" fill="#171617" d="M32.3,51.8c7.5-3.4,15.1-10.2,19.8-17c0.6-0.8-0.6-2-1.4-1.4c-3.4,2.6-6.6,5.8-9.7,8.8
				c-3.1,3-6.2,6-8.8,9.4C32.1,51.7,32.2,51.8,32.3,51.8L32.3,51.8z"/>
		</g>
	</g>
	<g id="XMLID_889_" display="inline">
		<g id="XMLID_156_">
			<path id="XMLID_863_" fill="#171617" d="M43.3,8.4c-2.7-1-6,1-6.3,3.9c-0.2,1.6,0.5,3.2,1.6,4.4c1.2,1.2,3.1,1,4.4,0.2
				c0.7-0.4,0.9-1.5,0.3-2.1c-0.4-0.4-0.4-0.9-0.8-1.4c-0.3-0.4-0.7-0.6-0.8-1.2c-0.2-1.1,0.7-1.7,1.7-1.9
				C44.4,10.3,44.1,8.7,43.3,8.4L43.3,8.4z"/>
		</g>
	</g>
</g>
<g id="XMLID_10_" display="none">
	<path id="XMLID_84_" display="inline" fill="#171617" d="M38.9,42.1c0.2,1.8,3.4,6.4,3.4,6.4s2.7-6.7,6-12c0,0,5.9-7.4-0.8-17.4
		S46,7.3,44,6.7c-2-0.7-4.3,5.7-1.3,11.9C49.4,32.4,38.7,40.3,38.9,42.1z"/>
	<path id="XMLID_78_" display="inline" fill="#171617" d="M31.3,33.3l5.5,6.7c0,0,5.2-6,5.2-12.5s-5.5-8.7-5-11.3c0,0-1.3,3.3,0,5.5
		S38.5,31.3,31.3,33.3z"/>
	<path id="XMLID_11_" display="inline" fill="#171617" d="M20.6,28.7c0,0-3.7,0.3-2.8-3.8s-0.9-6.2-1.7-5.7c-0.8,0.5,1.9,2-0.3,4.9
		c-1.1,1.4-2.1,4.5-2.3,6.5c-1.1,8,4.2,12.5,4.2,12.5l-4,4.3l1.3,4l4.5-6.7c0,0,4.2,3,8.2,3c3.9,0,7.5-4.7,7.5-4.7l-4.3-4
		c0,0,1,4.3-1.7,5.2c-2.7,0.8-8-1.5-8-1.5s5.4-4.3,5.3-5c0-0.7-1.6-1-2.3-1c-0.7,0-4.3,4.3-4.3,4.3s-4.7-2.8-3.5-8.3l4.3-0.2V28.7z"
		/>
</g>
<path id="XMLID_90_" display="none" fill="#171617" d="M43,11.9c-4.5,0-7.5,7-5.1,9s5.4,1,4.8-1.6s-1.9-4.4,0.9-3.7
	c7.9,2.2-0.1,16.3-6.5,11.5C34.4,24.4,31.4,10,31.4,10l-2.6,0.5c0,0-4.4,13.2-6.2,14.7c-8.6,3-8.7-10.4-7.1-10.1
	c3.9,0.8-0.6,4.6,2.8,5.4s5.1-0.4,4-3.7s-4.5-5.4-7.7-4.8s-6.2,7.3-0.3,13.1c2.9,2.9,7,4.5,7,4.5s-1.1,3.2-1.4,4.1
	c-2,6.6-1.6,16.2,10.3,16.2c14.7,0,8.4-19.1,8.4-19.1s10.5-2.7,10.5-10.1C49.1,15,47.5,11.9,43,11.9z M28.8,46
	c-4.3,0-6.8-2.6-6.8-7.5s8.1-20.4,8.1-20.4s6.2,15,6.2,20S33,46,28.8,46z"/>
<path id="XMLID_124_" display="none" fill="#171617" d="M27.1,6.8c0,0-3.5,3.8-4.3,8.5S15.3,40,13.8,41l15.1-8.3l1.7-8.2l-4.2,0.3
	l8.7-6.3l1,3l-2.5,1.5l-1.5,7.8c0,0,7.2-6,8.3-9.8c1.2-3.8,1-5.3,1-5.3l8.3,8.3l-6.8,0.8l-5.5,6L32,34.4c0,0-1.8,7.1-2.8,9.3
	S26,50.4,26,50.4s13.3-5.4,14.6-6.9S42,42,42,42l-0.5-6.6l3.4-0.1L50.3,47l-7.6-1.6L29,53l-4.1,0.8L24,55.3l-3.8-0.9l5.4-10.6
	l2.4-7.3l-11.3,7.4l-8.6,1.6l1.4-4.6c0,0,8.1-11.3,8.8-18.2c0.7-7.2,0.2-9.7,0.2-9.7l-1.9,0.9l0.4-2.6l8.5-6.5L27.1,6.8z"/>
<g id="XMLID_130_" display="none">
	<g id="XMLID_144_" display="inline">
		<g id="XMLID_173_">
			<path id="XMLID_862_" d="M25,13c-2.1-1.9-0.6-4.6,2-4.6c2.5,0,5.8,1.6,5.7,4.5c-0.1,4.5-5.7,6.3-6.5,10.5
				c-0.7,4.1,4.6,5.9,3.2,10.1c-1.3,3.8-4.6,6.6-2.5,10.8c0.8,1.6,3.1,0.2,2.3-1.4c-1.6-3.3,2.6-6.8,3.1-10c0.4-2.4-0.5-4.1-1.9-5.9
				c-1.2-1.5-2.1-2.7-0.9-4.7c0.9-1.4,2.4-2.5,3.4-3.8c1.5-1.8,2.5-4,2.3-6.5C35,7.6,29.3,4.8,25.2,5.9c-4,1-5.3,6.3-2.1,9
				C24.4,16,26.3,14.1,25,13L25,13z"/>
		</g>
	</g>
	<g id="XMLID_136_" display="inline">
		<path id="XMLID_150_" d="M15.3,28.8c0,0-0.1,0-0.2,0c-0.1,0-0.4,0-0.6,0.1c-0.5,0.1-1.2,0.5-1.8,1.3c-0.6,0.7-1,1.9-1.2,3.2
			c-0.2,1.4-0.5,3-0.6,4.7c-0.1,1.7,0.1,3.5,0.8,4.9c0.2,0.4,0.4,0.7,0.7,1c0.3,0.3,0.6,0.6,1,0.8c0.7,0.5,1.6,1,2.6,1.4
			c1.8,0.8,4,1.2,6.2,1.5c2.2,0.3,4.6,0.5,6.9,0.5c2.3,0.1,4.6,0.1,6.7-0.1c1.1-0.1,2.1-0.3,3.2-0.6l0.4-0.1l0.4-0.1
			c0.3-0.1,0.5-0.2,0.8-0.2c0.5-0.1,1-0.3,1.4-0.5c1.8-0.8,3.5-1.9,4.8-3.2c0.6-0.7,1.2-1.4,1.6-2.1c0.2-0.3,0.4-0.8,0.6-1.1
			c0.1-0.2,0.2-0.4,0.3-0.6c0.1-0.2,0.1-0.4,0.2-0.5c0.4-1.5,0.5-3.1,0.3-4.4c-0.2-1.3-0.6-2.5-1.2-3.3c-0.5-0.9-1.1-1.4-1.5-1.8
			c-0.4-0.4-0.7-0.5-0.7-0.5s0.3,0.1,0.8,0.4c0.5,0.3,1.2,0.7,1.9,1.6c0.7,0.8,1.5,1.9,1.9,3.4c0.5,1.5,0.7,3.2,0.4,5.2
			C51.1,39.8,51,40,51,40.3c-0.1,0.2-0.1,0.4-0.2,0.7c-0.2,0.5-0.3,1-0.6,1.5c-0.4,1-1,1.9-1.7,2.8c-1.4,1.7-3.3,3.2-5.4,4.3
			c-0.5,0.3-1.1,0.5-1.7,0.8c-0.3,0.1-0.6,0.2-0.8,0.3l-0.4,0.2l-0.4,0.1c-1.2,0.4-2.4,0.6-3.6,0.8c-2.4,0.3-4.9,0.4-7.3,0.3
			c-2.4-0.1-4.8-0.3-7.2-0.7c-2.4-0.4-4.8-1-7-2.1c-1-0.5-2.1-1.1-3.1-1.9c-0.5-0.4-0.9-0.8-1.3-1.4c-0.4-0.5-0.7-1-0.9-1.6
			c-1-2.3-0.8-4.5-0.5-6.3c0.3-1.8,0.8-3.4,1.3-4.8c0.5-1.4,1.2-2.6,2.1-3.4c0.9-0.7,1.8-0.9,2.3-1c0.3,0,0.5,0,0.6,0
			C15.2,28.8,15.3,28.8,15.3,28.8z"/>
	</g>
</g>
<g id="XMLID_142_" display="none">
	<path id="XMLID_154_" display="inline" fill="#171617" d="M23.8,3.4c0,0-2.7,5.3-1.2,10.2s4,10.8,7.8,9.3s6.7-6.8,6.8-9.3
		s-2.5-5.7-1.5-7.2s5.7,0.7,5.5,4.3S37.4,22,34.7,23.6c-4.2,2.4-7,2.5-7,2.5l1.7,4.1l11.7-7.8l2.5,1.5c0,0-10.5,6.3-12,8
		c-1.5,1.7-3.3,6-3.3,6s-6.2-12-7.7-17.8S19.3,2.9,23.8,3.4z"/>
	<g id="XMLID_152_" display="inline">
		<g id="XMLID_207_">
			<path id="XMLID_861_" d="M49.5,14.5c0-0.1,0.1-0.2,0.1-0.2c0.5-0.9,0.2-2.2-0.7-2.7c-1-0.5-2.2-0.2-2.7,0.7
				c0,0.1-0.1,0.2-0.1,0.2c-0.5,0.9-0.2,2.2,0.7,2.7C47.8,15.7,48.9,15.5,49.5,14.5L49.5,14.5z"/>
		</g>
	</g>
	<g id="XMLID_148_" display="inline">
		<g id="XMLID_201_">
			<path id="XMLID_860_" d="M51.6,25.9c0.1,0,0.2-0.1,0.3-0.1c1-0.4,1.3-1.9,0.7-2.7c-0.6-1-1.7-1.2-2.7-0.7c-0.1,0-0.2,0.1-0.3,0.1
				c-1,0.4-1.3,1.9-0.7,2.7C49.5,26.1,50.6,26.3,51.6,25.9L51.6,25.9z"/>
		</g>
	</g>
	<g id="XMLID_147_" display="inline">
		<g id="XMLID_195_">
			<path id="XMLID_859_" d="M49.9,34.9c1-0.5,1.3-1.6,1.1-2.6c-0.3-1-1.4-1.7-2.5-1.4c-1,0.3-1.7,1.4-1.4,2.5c0,0,0,0.1,0,0.1
				c0-0.4,0-0.7,0-1.1c0-0.1,0.1-0.2,0.1-0.3c0.2-0.2,0.5-0.5,0.7-0.7c0,0-0.1,0-0.1,0.1c-0.9,0.5-1.3,1.9-0.7,2.7
				C47.7,35.2,48.9,35.4,49.9,34.9L49.9,34.9z"/>
		</g>
	</g>
	<g id="XMLID_146_" display="inline">
		<g id="XMLID_189_">
			<path id="XMLID_858_" d="M45,43.1c2.6,0,2.6-4,0-4C42.4,39.1,42.4,43.1,45,43.1L45,43.1z"/>
		</g>
	</g>
	<g id="XMLID_145_" display="inline">
		<g id="XMLID_183_">
			<path id="XMLID_857_" d="M38.5,46.5c0,0,0-0.1,0-0.1c0-1-0.9-2-2-2c-1.1,0-2,0.9-2,2c0,0,0,0.1,0,0.1c0,1,0.9,2,2,2
				C37.6,48.4,38.5,47.6,38.5,46.5L38.5,46.5z"/>
		</g>
	</g>
	<g id="XMLID_143_" display="inline">
		<g id="XMLID_181_">
			<path id="XMLID_856_" d="M28.9,49c0,0,0.1-0.1,0.1-0.1c0.7-0.7,0.8-2.1,0-2.8c-0.8-0.7-2-0.8-2.8,0c0,0-0.1,0.1-0.1,0.1
				c-0.7,0.7-0.8,2.1,0,2.8C26.9,49.8,28.1,49.8,28.9,49L28.9,49z"/>
		</g>
	</g>
	<g id="XMLID_155_" display="inline">
		<g id="XMLID_222_">
			<path id="XMLID_855_" d="M19.8,56.5c-1.4-0.5-3.9-1.3-4.9-2.7c-4.1-5.6,4.2-6.3,7-6.4c3.1-0.1,6-0.2,9-0.9
				c5.5-1.4,10.7-4.5,14.2-9c5.9-7.6,6.6-20.7-1.3-27.2c-0.7-0.6-1.9,0.2-1.3,1c4.6,6.4,5.4,16.5,1,23.1
				c-5.4,8.3-14.4,9.5-23.4,10.1c-3.9,0.3-9,2.2-8.7,6.9c0.3,4.3,4.7,5,8.1,5.1C19.9,56.7,19.9,56.5,19.8,56.5L19.8,56.5z"/>
		</g>
	</g>
</g>
<path id="XMLID_153_" display="none" fill="#171617" d="M49.6,12c-0.9,2.4-0.4,7.3-4.5,9.1s-6,2.5-8.9-0.8s-3.9-6.9-2-9.3
	s2.5-4.9-1-6s-3.3,3.9-2.8,5.6s2.1,8.5,0.9,10.5s-5.4,10.2-8.5,11.5s-8.8,2-7.8-5.1s4.3-8.1,6.1-6.3s4.6,4,5.5-0.3s-5.6-8.4-8.4-7.8
	s-6.3,6.6-6,14.3c0,0-0.5,14,5.3,13.3s12.8-11.6,12.8-11.6l-0.1,5.6c0,0-1.8,0.7-1.8,2.6c0,1.9,1.9,2.2,1.9,2.2S30.1,51,30.9,52.1
	c0.8,1.1,2.2-6.2,2.8-6.8c0.6-0.6,2.2,1.4,5.3-1.1c3.1-2.5,5.2-4.8,5.2-6.3c0,0-1.5-1.4-3,1c-1.5,2.4-3.3,4.1-4.7,3.8
	c-1.3-0.3-3.7-0.9-4.1-6s1.5-11.5,1.5-11.5s3.1,2.1,7.9,0.7c4.8-1.4,8.7-4.7,10-8.3C53.2,14.1,51,8.2,49.6,12z"/>
<g id="XMLID_178_" display="none">
	<g id="XMLID_251_" display="inline">
		<path id="XMLID_854_" fill="#171617" d="M21.5,36.9c-2.9,1.7-3.3,6-2.4,8.9c0.9,2.9,2.7,8,6,8.8c0.5,0.1,1.1-0.2,1.1-0.8
			c-0.2-2.1-1.6-3.8-2.6-5.7c-0.8-1.5-1.7-3.1-1.9-4.9c-0.1-0.9,0.4-4.3,0.8-5.2C23,37.3,22.2,36.5,21.5,36.9L21.5,36.9z"/>
	</g>
</g>
<g id="XMLID_161_" display="none">
	<g id="XMLID_177_" display="inline">
		<g id="XMLID_245_">
			<path id="XMLID_853_" fill="#171617" d="M45,5.2c-6,3.5-10.6,8.9-16.2,13.1C24,22,19.5,26.1,14.8,30c-3.4,2.8-9.1,5.9-10.2,10.5
				c-1,4.3,0,8.5,3.3,11.4c1.8,1.5,4.6-0.4,3.4-2.6c-0.9-1.7-2.9-4.9-2.9-6.8c0-3.2,3-5.3,5-7.3c3.3-3.4,6.8-6.6,10.4-9.6
				c3.6-3.1,7-6.3,10.6-9.3c4.1-3.3,8.5-5.2,12.1-9.1C47.4,6.1,46.2,4.5,45,5.2L45,5.2z"/>
		</g>
	</g>
	<g id="XMLID_165_" display="inline">
		<g id="XMLID_239_">
			<path id="XMLID_852_" fill="#171617" d="M21.6,7.7c0.6,4.3,6.7,8.1,9.6,11.2c4,4.3,6.9,9.7,11.2,13.6c1.3,1.1,3.5,0,3-1.7
				c-1.7-5.5-6.4-10.5-10.3-14.6c-2.9-3.1-8.2-9.6-13-9C21.7,7.1,21.6,7.3,21.6,7.7L21.6,7.7z"/>
		</g>
	</g>
	<g id="XMLID_164_" display="inline">
		<g id="XMLID_233_">
			<path id="XMLID_851_" fill="#171617" d="M21.2,45.8c4.8,9.2,18.9,5.1,25.3-0.1c4.6-3.8,6.8-8.9,8.3-14.4
				c1.8-6.4-2.3-9.6-7.5-12.6c-1.1-0.7-2.6,0.4-2.2,1.7c0.9,2.8,2.3,5.3,3.5,8c1.3,2.9,2.2,4.7,1.2,7.8c-0.7,2.4-2,4.4-3.7,6.2
				c-5.3,5.5-19.3,11.1-24.9,3.5C21.2,45.6,21.1,45.7,21.2,45.8L21.2,45.8z"/>
		</g>
	</g>
	<g id="XMLID_163_" display="inline">
		<g id="XMLID_227_">
			<path id="XMLID_850_" fill="#171617" d="M28.7,45.2c2.9-0.5,3.5-4.7,3.9-7.2c0.9-5.3,2.7-10.5,2.6-15.9c0-1-1.2-1.2-1.7-0.5
				c-2.8,4-3.4,8.9-4.2,13.6c-0.4,2.8-1.9,7.1-0.8,9.7C28.4,45.1,28.6,45.2,28.7,45.2L28.7,45.2z"/>
		</g>
	</g>
	<g id="XMLID_162_" display="inline">
		<g id="XMLID_261_">
			<path id="XMLID_849_" fill="#171617" d="M34.5,29.9c0.1-2.9-1.3-5.2-2.3-7.9c-1-2.7-1.7-5.6-2.9-8.1c-0.3-0.7-1.4-0.5-1.5,0.2
				c-0.6,2.8,0.4,6,1.6,8.6c1.3,2.8,2.4,5.6,4.9,7.4C34.3,30.1,34.5,30,34.5,29.9L34.5,29.9z"/>
		</g>
	</g>
</g>
<g id="XMLID_732_" display="none">
	<g id="XMLID_663_" display="inline">
		<g id="XMLID_299_">
			<path id="XMLID_848_" fill="#171617" d="M32.6,13.8c2-1.1-0.4-3.8,0.4-5.6c-0.5,0.1-1,0.2-1.4,0.4c3.4,2.5,6.8,5.1,10,7.9
				c2.7,2.4,5.2,5.5,8.2,7.6c2.1,1.5,6.4,2.1,6.1-1.7c-0.1-1.1-1.5-1.2-1.8-0.2c-1,2.6-6.6-3.3-7.3-3.9c-1.6-1.5-3.2-2.9-4.9-4.3
				c-3-2.5-6.1-4.9-9.2-7.1c-0.4-0.3-1.2-0.1-1.4,0.4c-0.6,1.3-1.1,2.5-0.6,3.9c0.1,0.3,1.4,2,1.4,2.1C31.7,13.5,32.1,14,32.6,13.8
				L32.6,13.8z"/>
		</g>
	</g>
	<g id="XMLID_669_" display="inline">
		<g id="XMLID_293_">
			<path id="XMLID_847_" fill="#171617" d="M35.2,16.1c-4.6-2.7-10.2-5-15.4-2.5c-4.1,2-7.4,8-5.5,12.3c0.7,1.7,3,1.2,3.9,0
				c2.2-3.1,0.4-7.1,4.3-9.3c3.8-2.2,8.4-0.7,12.2,0.7C35.4,17.5,35.9,16.4,35.2,16.1L35.2,16.1z"/>
		</g>
	</g>
	<g id="XMLID_681_" display="inline">
		<g id="XMLID_287_">
			<path id="XMLID_846_" fill="#171617" d="M27.4,21.8c-3.6,0.3-6.9,2.4-8.6,5.7c-1.5,2.8-1.8,9,2.4,9.6c1.2,0.2,2.8-0.8,2.2-2.2
				c-0.4-1-0.9-1.4-1.5-2.2c-0.9-1.3-0.7-3.1-0.1-4.5c1-2.5,3.2-4.2,5.8-4.9C28.4,23.1,28.3,21.8,27.4,21.8L27.4,21.8z"/>
		</g>
	</g>
	<g id="XMLID_682_" display="inline">
		<g id="XMLID_281_">
			<path id="XMLID_845_" fill="#171617" d="M9.5,33.8c4.7,3.7,6.3,11,12.2,13.2c3.5,1.3,7.8,0.5,8.9-3.4c0.2-0.7-0.7-1.2-1.3-0.7
				c-7.4,7-13.8-6.3-19.4-9.5C9.6,33.2,9.2,33.6,9.5,33.8L9.5,33.8z"/>
		</g>
	</g>
	<g id="XMLID_703_" display="inline">
		<g id="XMLID_275_">
			<path id="XMLID_844_" fill="#171617" d="M35.4,48.5c0.1,0,0.1-0.2,0-0.2C35.2,48.3,35.2,48.5,35.4,48.5L35.4,48.5z"/>
		</g>
	</g>
	<g id="XMLID_710_" display="inline">
		<g id="XMLID_269_">
			<path id="XMLID_843_" fill="#171617" d="M34.6,48.1c2.7-0.6,4.6-2.1,5.8-4.6c1-2.1,1.8-5.7-0.3-7.4c-0.8-0.6-1.9-0.4-2.2,0.6
				c-0.6,1.7,0.1,3.7-0.5,5.5C36.8,44,35.4,45.9,34,47C33.4,47.5,34,48.2,34.6,48.1L34.6,48.1z"/>
		</g>
	</g>
	<g id="XMLID_713_" display="inline">
		<g id="XMLID_263_">
			<path id="XMLID_842_" fill="#171617" d="M46.2,41.5c1.3-4.3,1.1-9.1-0.7-13.2c-1.3-3.1-4.1-8.7-8.2-5.4c-0.8,0.6-0.7,1.7-0.3,2.5
				c0.6,1.3,1.8,1.6,3,2.2c2,1,2.7,1.8,3.5,4.1c1.1,3.1,1.5,6.6,2.1,9.8C45.7,41.8,46.1,41.7,46.2,41.5L46.2,41.5z"/>
		</g>
	</g>
	<g id="XMLID_715_" display="inline">
		<g id="XMLID_318_">
			<path id="XMLID_841_" fill="#171617" d="M31.7,34.2c0.3-0.4,0.5-0.8,0.7-1.3c0.1-0.3,0.1-0.5,0.2-0.8c0-0.1,0.1-0.2,0.1-0.3
				c-0.1,0.1,0,0.1,0.1-0.1c0.3-0.7,0.3-1.2,0.2-1.9c-0.1-0.7-0.8-1.3-1.5-1.5c-0.8-0.2-1.4,0.1-2.1,0.5c-0.8,0.6-0.9,1.7-1,2.7
				c-0.1,0.8-0.1,1.6,0.3,2.4C29.3,34.8,30.9,35.2,31.7,34.2L31.7,34.2z"/>
		</g>
	</g>
</g>
<g id="XMLID_179_" display="none">
	<g id="XMLID_280_" display="inline">
		<g id="XMLID_348_">
			<path id="XMLID_840_" fill="#171617" d="M27.5,46.9c-0.7-6.9,0.1-14.3,1.1-21.1c0.5-2.9,1.1-5.9,1.9-8.7c0.8-3.1,2.5-5.8,2.3-9
				c-0.1-1-1.3-1.7-2.1-0.9c-3.8,4.2-4.2,12.7-4.7,18.2c-0.7,7.4,0.2,14.2,1.3,21.5C27.4,47.1,27.5,47.1,27.5,46.9L27.5,46.9z"/>
		</g>
	</g>
	<g id="XMLID_215_" display="inline">
		<g id="XMLID_342_">
			<path id="XMLID_839_" fill="#171617" d="M20.7,44c2.7-1.4,6-1.9,9-1.6c3,0.3,4.9,1.9,7.5,2.9c1.9,0.7,3.2-2.3,1.4-3.3
				c-2.8-1.5-6.4-1.1-9.5-0.8c-3.1,0.3-5.7,1.4-8.5,2.7C20.4,43.9,20.5,44,20.7,44L20.7,44z"/>
		</g>
	</g>
	<g id="XMLID_214_" display="inline">
		<g id="XMLID_335_">
			<path id="XMLID_838_" fill="#171617" d="M17.1,18.8c-0.6,3.8,2,6.5,5.6,7c5.6,0.9,10.6,0.2,15.3-2.9c1.8-1.2,0.1-4.2-1.7-2.9
				c-2.4,1.7-5.1,3.2-8.1,3.1c-2.9-0.1-8.9-0.9-9.6-4.4C18.4,18.1,17.2,18,17.1,18.8L17.1,18.8z"/>
		</g>
	</g>
	<g id="XMLID_213_" display="inline">
		<g id="XMLID_329_">
			<path id="XMLID_837_" fill="#171617" d="M42.4,35.3c5.4-3.8,8.2-10.8,8-17.3C50.2,13,46.8,6,41,7c-1.4,0.2-1.9,2.1-1.3,3.2
				c2.4,4,6.8,4.8,7.3,10.3c0.6,5.7-3.9,9.5-5,14.6C42.1,35.2,42.2,35.4,42.4,35.3L42.4,35.3z"/>
		</g>
	</g>
	<g id="XMLID_212_" display="inline">
		<g id="XMLID_323_">
			<path id="XMLID_836_" fill="#171617" d="M13.1,15.9c0.2,0,0.2-0.4,0-0.4C12.9,15.5,12.9,15.9,13.1,15.9L13.1,15.9z"/>
		</g>
	</g>
	<g id="XMLID_180_" display="inline">
		<g id="XMLID_364_">
			<path id="XMLID_835_" fill="#171617" d="M12.7,13c-3.6,4.2-4.9,9.3-4.6,14.8c0.2,4,1.6,9.7,6.1,10.5c1.9,0.4,3.8-1.6,2.6-3.4
				c-2.1-3.4-5.2-3.8-5.3-8.5c-0.1-4.2,0.7-8.5,2.6-12.2C14.6,13.2,13.4,12.2,12.7,13L12.7,13z"/>
		</g>
	</g>
</g>
<path id="XMLID_286_" display="none" fill="#171617" d="M49.1,19.4C45,0.9,22.1,5.3,18,7.3S1.3,23.7,20.6,33c0,0-3.6-9.5,6.8-16.1
	s16.4,0.7,17.4,4C51.1,43,15.2,36.4,12.6,45.2c-1.5,5.1,5.9,9.5,5.9,9.5s-5.5-5.9-2.8-9C20.1,40.7,55.5,48,49.1,19.4z M17,20.9
	c-2,0-3.6-1.6-3.6-3.6c0-2,1.6-3.6,3.6-3.6s3.6,1.6,3.6,3.6C20.6,19.3,19,20.9,17,20.9z"/>
<g id="XMLID_304_" display="none">
	<g id="XMLID_341_" display="inline">
		<g id="XMLID_369_">
			<path id="XMLID_834_" fill="#171617" d="M27.6,7.6c-2,14.8-0.9,30.4-1.1,45.4c0,1.4,2.2,1.4,2.3,0c0.2-14.9,1.6-30.5,0-45.3
				C28.7,7.1,27.7,6.9,27.6,7.6L27.6,7.6z"/>
		</g>
	</g>
	<g id="XMLID_334_" display="inline">
		<g id="XMLID_381_">
			<path id="XMLID_833_" fill="#171617" d="M28.6,10.3c0.4-0.7,0.7-1.5,1.2-2.2c0.9-1.5-0.4-3.4-2.1-3.2c-0.8,0.1-1.4,0.6-1.7,1.3
				c-0.4,0.9-0.1,1.7,0.4,2.4c0.5,0.6,1.1,1.2,1.6,1.8C28.2,10.6,28.5,10.5,28.6,10.3L28.6,10.3z"/>
		</g>
	</g>
	<path id="XMLID_328_" display="inline" fill="#171617" d="M46.8,18.2c0,0,2.3-6.8-2.6-6.3c-4.9,0.4-10.9,5.9-4.9,11.3
		s10.3,8.8,7.5,14.1S36.1,43,36.1,42.8c0-0.1,0.2,1.7,0.3,3.2c0.1,1.1,1,1.2,2.1,1c2.6-0.6,12.6-6.2,11.4-16.1
		c-0.3-2.3-3.3-1.6-1.3-4.6c1.2-1.9,3.1-0.5,3.4,1s-0.4,1.8,0,3.9c1.4,6.2-2.1,12.6-8.4,16.3c-2.4,1.4-4.3,1.8-5.8,2.1
		c-2.1,0.4-4.1-1.2-4.1-3.4c0-2.6-0.1-5.7,0.1-5.9c0.3-0.3,6.7,0.3,9-3.4c5-8-9.9-10.2-8.3-18.9c1.8-9.3,13-9,15-6s1.4,9.3-2.9,9.8
		c-4.3,0.6-7.6-2.2-5.2-4.3C43.9,15.5,46.8,18.2,46.8,18.2z"/>
	<path id="XMLID_306_" display="inline" fill="#171617" d="M7.8,34.7h9.9c0.6,0,0.8,0.8,0.2,1.1c-1.7,0.8-3.7,2-3.9,4.2
		c-0.3,2.8,0.6,5.9,1.3,7.9c0.2,0.4-0.4,0.8-0.7,0.4C12.1,45.5,7.3,39.6,7.8,34.7z"/>
	<path id="XMLID_305_" display="inline" fill="#171617" d="M16.6,28.7c0,0-2.1-3.6-0.7-8.4s4-4.5,2.5-7.7s-4.6,0.5-4.9,2.1
		s-1.6,12.1-3,12.7s-2.2,3.7-0.4,3.4c1.8-0.3,3-1.9,4.5-0.6c1.5,1.3,2.8,3.2,4.6,2.3c1.8-0.9,1.2-3-0.4-3
		C17.2,29.6,16.6,28.7,16.6,28.7z"/>
</g>
<g id="XMLID_347_" display="none">
	<g id="XMLID_357_" display="inline">
		<g id="XMLID_405_">
			<path id="XMLID_832_" fill="#171617" d="M25.9,11.9c-0.7,2.8,1.4,4.8,2.7,7.1c3,5.4,1.4,9.1-0.3,14.5c-1.8,5.5-0.7,12.3,4.2,15.9
				c1.3,1,3.3-1,2.3-2.3c-3.2-4.6-5.1-8-4.1-13.8c0.5-3.1,1.3-6.2,1.2-9.4c-0.1-3.7,0.1-12.8-5.8-12.3C26,11.7,25.9,11.8,25.9,11.9
				L25.9,11.9z"/>
		</g>
	</g>
	<g id="XMLID_356_" display="inline">
		<g id="XMLID_399_">
			<path id="XMLID_831_" fill="#171617" d="M15,12.8c-1.2,0.3-2.3,1.2-2.9,2.2c-1.1,2-0.1,4.6,2.1,5.2c0.9,0.2,1.9,0.1,2.7-0.4
				c1.1-0.7,1.7-1.8,1.8-3.1c0,0,0-0.1,0-0.1c0,0.3-0.1,0.6-0.1,0.9c0-0.1,0.1-0.2,0.1-0.4c-0.1,0.3-0.2,0.5-0.3,0.8
				c0-0.1,0.1-0.2,0.1-0.2c-0.2,0.2-0.4,0.5-0.5,0.7c0.1-0.1,0.2-0.2,0.3-0.3c0.5-0.4,0.8-1.2,0.9-1.9c0.1-0.7,0-1.5-0.4-2.1
				C17.9,13.1,16.5,12.5,15,12.8L15,12.8z"/>
		</g>
	</g>
	<g id="XMLID_355_" display="inline">
		<g id="XMLID_393_">
			<path id="XMLID_830_" fill="#171617" d="M17.3,27.1C17.3,27.1,17.4,27.2,17.3,27.1c0.3,0.2,0.6,0.1,0.7-0.1c0,0,0-0.1,0.1-0.1
				c0.3-0.5-0.2-1-0.7-0.9c-1.4,0.3-2.4,2.6-3.1,3.7c-0.5,0.8,0,2.1,0.9,2.3c5.4,1.2,10.6,1.2,16.1,0.9c2.6-0.1,5.1-0.6,7.7-0.6
				c2.1,0,4,0.5,6.1,0.2c0.5-0.1,0.8-0.8,0.5-1.2c-2.1-3.6-7-2.7-10.6-2.6c-6.5,0.3-12.9-0.2-19.3,0.2c0.5,0.7,1,1.3,1.5,2
				c0.3-0.9,0.6-1.9,0.7-2.9c0.5-0.8,0.2-1.3-0.7-1.4C17.1,26.9,17.2,27,17.3,27.1L17.3,27.1z"/>
		</g>
	</g>
	<g id="XMLID_354_" display="inline">
		<g id="XMLID_387_">
			<path id="XMLID_829_" fill="#171617" d="M42.6,38.4c0.2,0,0.2-0.4,0-0.4C42.4,38,42.4,38.4,42.6,38.4L42.6,38.4z"/>
		</g>
	</g>
	<g id="XMLID_353_" display="inline">
		<g id="XMLID_417_">
			<path id="XMLID_828_" fill="#171617" d="M38.5,44.3c2-0.6,3.8-1.6,4.8-3.6c0.9-1.7,0.9-4.7-0.7-6.1c-0.5-0.4-1.2-0.5-1.7,0
				c-0.9,0.9-1.8,2.7-2.1,3.9c-0.4,1.5-0.5,3.2-1.1,4.7C37.5,43.7,37.9,44.5,38.5,44.3L38.5,44.3z"/>
		</g>
	</g>
</g>
<g id="XMLID_360_" display="none">
	<g id="XMLID_363_" display="inline">
		<g id="XMLID_427_">
			<path id="XMLID_827_" fill="#171617" d="M34.4,7.5c-5.7,3.4-7.5,9.9-6.9,16.3c0.4,4.7,1.8,9.4,2.3,14.1c0.5,4.4-1,8.4-0.8,12.7
				c0.1,2.2,2.7,3.3,4.3,1.8c4.9-4.6,2.5-12.9,0.8-18.6c-2.3-7.8-4.8-17.2,2.7-23.1C38.7,9.3,36.3,6.4,34.4,7.5L34.4,7.5z"/>
		</g>
	</g>
	<g id="XMLID_362_" display="inline">
		<g id="XMLID_422_">
			<path id="XMLID_826_" fill="#171617" d="M43.3,49.8c3.3-4.2,4-8.7,1.5-13.6c-2.1-4.1-4.4-6.6-3.4-11.4c0.8-4.4,2.8-7.7,6-10.8
				c3.5-3.5-3-8.5-5.3-4.1C39,15.1,36,22.3,36.5,28.5c0.2,3.1,1.8,5.3,3.3,8c2.3,3.9,3.2,8,1.8,12.4C41.3,49.8,42.6,50.6,43.3,49.8
				L43.3,49.8z"/>
		</g>
	</g>
	<g id="XMLID_361_" display="inline">
		<g id="XMLID_445_">
			<path id="XMLID_825_" fill="#171617" d="M14.1,22.5c-1.4,2.3-1.4,6.1-1.9,8.7c-0.2,0.9,0.1,1.7,0.9,2.2c2.3,1.6,6.1-0.3,8.5-0.7
				c4.9-1,10.3-2.2,15.3-1.5c1.5,0.2,2.5-1.3,1.5-2.5c-2.5-2.8-6.6-1.5-10-1.1c-1.8,0.2-3.6,0.5-5.4,0.8c-1.1,0.2-7,2.2-7.9,1.6
				c0.3,0.7,0.6,1.5,0.9,2.2c0.4-3.1,2.4-8.4-1.8-9.8C14.2,22.5,14.2,22.5,14.1,22.5L14.1,22.5z"/>
		</g>
	</g>
</g>
<g id="XMLID_374_" display="none">
	<path id="XMLID_392_" display="inline" fill="#171617" d="M39.2,27.5c0,4.4-3.6,8-8,8s-8-3.6-8-8s8-18.3,8-18.3S39.2,23,39.2,27.5z
		"/>
	<path id="XMLID_386_" display="inline" fill="#171617" d="M35.1,40.5l3,9.8c0,0,1-7.3,2.8-9.3s7-5.7,7.3-9
		c0.3-3.3-1.9-10.6-3.3-15.3c-0.6-1.9-3-2.9-2.2,0.6c0.8,3.5,4.5,11.3,1.5,15c-2.1,2.6-6,4.7-8.1,5.8C35.2,38.5,34.8,39.5,35.1,40.5
		z"/>
	<path id="XMLID_375_" display="inline" fill="#171617" d="M24.9,41.1l-1.3,9.8c0,0-2.7-7.3-4.5-9.3c-1.8-2-7-5.7-7.3-9
		c-0.3-3.3,7.2-11.8,8.6-16.5c0.6-1.9,3-2.9,2.2,0.6s-8.4,12.2-5.4,15.9c2.1,2.6,4.6,5,6.8,6C24.7,39.1,25.2,40.1,24.9,41.1z"/>
</g>
<g id="XMLID_398_" display="none">
	<g id="XMLID_415_" display="inline">
		<g id="XMLID_460_">
			<path id="XMLID_824_" fill="#171617" d="M17.3,13.5c-6.6,2.7,2.7,11.2,5.8,12.9c2.3,1.2,3.9,1.1,5.6-0.8c1.8-2,3.1-4.5,4.7-6.7
				c0.7-1,1.5-3,2.5-3.6c1.5-1,5.6-2.4,6.1-0.1c0.1,0.7,1.2,1.2,1.8,0.7c0.2-0.2,0.4-0.3,0.6-0.5c0.7-0.5,1-1.2,0.8-2
				c-1.3-5.9-7.1-3.5-9.8-0.1c-2.4,3-5,8.8-8.5,10.5c-2.2,1.1-4.3-1.2-6-3c-0.7-0.8-4.1-4.5-2.9-5.9C18.6,14.4,18.1,13.2,17.3,13.5
				L17.3,13.5z"/>
		</g>
	</g>
	<g id="XMLID_414_" display="inline">
		<g id="XMLID_454_">
			<path id="XMLID_823_" fill="#171617" d="M32.2,20.5c-2,3.9,1.4,5.6,3.4,8.7c2.2,3.5,3.7,8,1.8,11.9c-1.3,2.7-3.7,4.4-4.9,7.1
				c-0.5,1.1,0.4,2.9,1.8,2.3c5.3-2,5.8-8,5.8-13c0-2.8,0-5.1-1.2-7.7c-1.4-2.9-6.6-6.1-6.5-9.3C32.4,20.5,32.2,20.4,32.2,20.5
				L32.2,20.5z"/>
		</g>
	</g>
	<g id="XMLID_413_" display="inline">
		<g id="XMLID_449_">
			<path id="XMLID_822_" fill="#171617" d="M37.9,30.8c-4.8,2.6-8.8,6.5-13,10c0.9,0.2,1.8,0.5,2.7,0.7c-1.2-3.8-5.7-5-7.6-8.5
				c0,0.7,0,1.5,0,2.2c0.1-0.2,0.3-0.4,0.4-0.6c1.3-2-0.6-4.6-2.9-4.3c-2.1,0.3-3.5,3.3-1.6,4.9c1.2,1,2,2.2,3.2,3.1
				c1.5,1.1,4.7,2.3,5.4,4.1c0.4,1.1,1.7,1.6,2.7,0.7c3.8-3.8,8.1-7.5,11-12C38.3,30.8,38.1,30.7,37.9,30.8L37.9,30.8z"/>
		</g>
	</g>
	<g id="XMLID_404_" display="inline">
		<g id="XMLID_480_">
			<path id="XMLID_821_" fill="#171617" d="M33.3,19c-1.7,1.7-1.6,2.8-0.3,4.7c0.8,1.2,1.5,2.3,2.5,3.3c1.7,1.8,3.4,2.4,3.7,5.3
				c0,0.1,0.2,0.1,0.2,0c0.6-5.4-7.3-7.8-5.8-13.2C33.4,19,33.3,18.9,33.3,19L33.3,19z"/>
		</g>
	</g>
</g>
<g id="XMLID_416_" display="none">
	<g id="XMLID_442_" display="inline">
		<g id="XMLID_510_">
			<path id="XMLID_820_" fill="#171617" d="M13.3,28.7c-3,2.3,2.6,6.4,4.6,7.2c3.7,1.4,8.5,0.4,10.2-3.5c0.3-0.6-0.3-1.5-1-1
				C25,32.7,22.9,34,20.4,34c-1.8,0-3.6-0.7-4.9-1.9c-1.1-1-1.1-2.2-1.8-3.3C13.5,28.7,13.4,28.7,13.3,28.7L13.3,28.7z"/>
		</g>
	</g>
	<g id="XMLID_441_" display="inline">
		<g id="XMLID_504_">
			<path id="XMLID_819_" fill="#171617" d="M16.2,19.4c-2.4,2.6-0.3,6.1,1.9,8c1.2,1,2.5,1.8,4,2.2c1.8,0.6,3,0.3,4.6-0.6
				c0.6-0.4,0.5-1.3-0.2-1.5c-0.9-0.3-1.7-0.7-2.7-0.9c-1.1-0.2-2-0.5-3-1c-2-1.1-3.7-3.4-3.5-5.8C17.4,19.3,16.6,19,16.2,19.4
				L16.2,19.4z"/>
		</g>
	</g>
	<g id="XMLID_436_" display="inline">
		<g id="XMLID_498_">
			<path id="XMLID_818_" fill="#171617" d="M25.4,14.6c-0.2,5.3-0.5,10.6-0.7,15.9c-0.2,4.4-0.9,8.8,1.1,12.8c0.4,0.8,1.7,0.8,2.1,0
				c1.9-4.1,1-8.4,0.7-12.8c-0.4-5.3-0.8-10.6-1.2-15.9C27.2,13.3,25.4,13.3,25.4,14.6L25.4,14.6z"/>
		</g>
	</g>
	<g id="XMLID_435_" display="inline">
		<g id="XMLID_492_">
			<path id="XMLID_817_" fill="#171617" d="M26.2,14.1c1.6,3.2,5.8,5.2,8.6,7.4c3.7,2.7,7.2,6.2,11.3,8.4c1.3,0.7,2.3-0.9,1.5-1.9
				c-2.8-3.4-7.1-6.1-10.6-8.6c-2.9-2-7-5.5-10.6-5.5C26.2,13.9,26.1,14,26.2,14.1L26.2,14.1z"/>
		</g>
	</g>
	<g id="XMLID_434_" display="inline">
		<g id="XMLID_486_">
			<path id="XMLID_816_" fill="#171617" d="M26.4,24.6c1.5-0.7,3.1-1.2,4.6-1.9c1.2-0.6,2.9-1.4,3.6-2.6c0.5-0.8-0.2-1.8-1.1-1.8
				c-1.4-0.1-3.2,1-4.4,1.8c-1.3,0.9-2.5,2.3-3.6,3.5C25.1,24.1,25.7,24.9,26.4,24.6L26.4,24.6z"/>
		</g>
	</g>
	<g id="XMLID_433_" display="inline">
		<g id="XMLID_485_">
			<path id="XMLID_815_" fill="#171617" d="M26.7,42.8c-2.4-0.7-4.2,2.1-3.9,4.3c0.3,2.3,2.5,4.1,4.8,3.7c2.8-0.5,4.1-3.5,2.9-6
				c-1.1-2.2-3.8-2.7-5.8-1.4c-0.3,0.2-0.1,0.6,0.2,0.5c1.3-0.5,2.7,0,3.4,1.3c0.7,1.3-0.2,2.6-1.2,3.4c-1.6,1.3-3.1-0.5-3-2.2
				c0.1-1.6,1.5-2.2,2.6-2.9C27.1,43.3,27.1,42.9,26.7,42.8L26.7,42.8z"/>
		</g>
	</g>
	<g id="XMLID_432_" display="inline">
		<g id="XMLID_524_">
			<path id="XMLID_814_" fill="#171617" d="M38.5,23.7c4,2.3,8-3.9,8.2-7.2c0.1-2.3-0.3-5.1-1.9-6.9c-2-2.2-5.4-1.8-6.2,1.3
				c-0.2,0.8,0.1,2,1,2.4c0.9,0.4,2.4,0.4,2.9-0.8c0.2-0.6,0.4-0.4-0.3-0.5c0.3,0.1,0.8,0.5,1,0.7c0.8,0.9,0.7,1.7,0.4,2.7
				c-0.6,1.9-1.6,7.8-4.6,7.1C38.3,22.5,37.9,23.4,38.5,23.7L38.5,23.7z"/>
		</g>
	</g>
</g>
<g id="XMLID_443_" display="none">
	<g id="XMLID_467_" display="inline">
		<g id="XMLID_539_">
			<path id="XMLID_813_" fill="#171617" d="M20.6,6.3c-3.7,2.8-6.4,5.9-8.6,10.1c-1.7,3.3-4.4,8.4-3.7,12.2c0.5,3.1,4.1,5.5,6.4,7.3
				c2.2,1.8,4.9,3.3,6.7,5.5c2.3,2.8,2.1,6.2,3.4,9.5c0.5,1.3,2.7,1.7,3.1,0C29.6,42.3,23,38.4,17,34.2c-1.7-1.1-5.1-3.3-6-5.2
				c-0.9-2,0.4-5.3,1.1-7.2c1.9-5.5,5.2-10.6,8.8-15.1C21.1,6.5,20.8,6.1,20.6,6.3L20.6,6.3z"/>
		</g>
	</g>
	<g id="XMLID_466_" display="inline">
		<g id="XMLID_533_">
			<path id="XMLID_812_" fill="#171617" d="M47.1,12.3c-0.7,2.3-1.8,4.4-3.4,6.2c-2.2,2.3-4.4,2.4-7.4,2.8c-3.2,0.4-5.8,2-7.6,4.7
				c-2.4,3.4-2.7,7.7-3,11.7c-0.4,5.2-1.7,11.1-0.4,16.1c0.4,1.6,2.5,1.4,3.1,0c1.8-4.6,1.3-10.3,1.6-15.1c0.2-2.9,0.3-6,1.4-8.7
				c1.5-3.7,3.9-4.8,7.7-5.4c6.3-1,9.1-6,8.9-12.2C47.8,12,47.2,11.9,47.1,12.3L47.1,12.3z"/>
		</g>
	</g>
	<g id="XMLID_465_" display="inline">
		<g id="XMLID_528_">
			<path id="XMLID_811_" fill="#171617" d="M50.4,23.5c-2.9,4.1-8,7.3-13.1,7.4c-3.3,0.1-5-0.3-7.5,2c-3.4,3.2-8.1,11.1-4.7,15.5
				c0.3,0.4,0.9,0.2,1.1-0.1c2.1-3.2,1.2-7.3,3.5-10.8c1.2-1.8,2.6-3.5,4.8-3.9c1.4-0.3,3,0.1,4.5-0.1c5.7-0.9,9.7-4.6,11.6-10
				C50.7,23.4,50.5,23.4,50.4,23.5L50.4,23.5z"/>
		</g>
	</g>
	<g id="XMLID_444_" display="inline">
		<g id="XMLID_552_">
			<path id="XMLID_810_" fill="#171617" d="M15,15c-1.2,2.5-1,4.9-0.3,7.6c0.4,1.6,1.2,3.1,1.5,4.6c0.6,2.6-0.2,4.5-1,6.8
				c-0.4,1.2,1.4,2.3,2.2,1.3c5.7-6.6-3.8-13.3-1.8-20.1C15.7,14.9,15.2,14.6,15,15L15,15z"/>
		</g>
	</g>
</g>
<g id="XMLID_468_" display="none">
	<g id="XMLID_479_" display="inline">
		<g id="XMLID_562_">
			<path id="XMLID_809_" fill="#171617" d="M13.4,13.2c7.3,3.8,13.9,13.2,18.4,19.9c3.4,5,6.5,13,12.9,14.6c0.9,0.2,1.3-0.8,0.8-1.4
				c-2.8-3.5-5.8-6.4-8.1-10.5c-2.1-3.6-4.3-7.2-6.8-10.5c-4.2-5.4-10-11.9-17.2-12.3C13.3,13,13.3,13.2,13.4,13.2L13.4,13.2z"/>
		</g>
	</g>
	<g id="XMLID_478_" display="inline">
		<g id="XMLID_557_">
			<path id="XMLID_808_" fill="#171617" d="M13.3,46.5c1.4-1.4,3.6-2,5.2-3.2c1.8-1.3,3.5-2.7,5.3-4c3.1-2.4,6.2-4.6,8.7-7.6
				c1.2-1.5-0.3-3.6-2.1-2.7c-4,2.2-7.2,5.3-10.6,8.2c-2.8,2.4-6.5,4.9-7.6,8.7C12.1,46.5,12.9,46.9,13.3,46.5L13.3,46.5z"/>
		</g>
	</g>
	<g id="XMLID_477_" display="inline">
		<g id="XMLID_578_">
			<path id="XMLID_807_" fill="#171617" d="M36.4,40.1c1.3,4.1,5.7,8.3,10.1,8.5c2.6,0.1,3.1-3.3,1.2-4.6c-1.6-1.1-3.5-1.4-5.3-2.3
				c-1.7-0.8-3.3-1.7-5-2.5C36.9,39,36.2,39.4,36.4,40.1L36.4,40.1z"/>
		</g>
	</g>
	<path id="XMLID_476_" display="inline" fill="#171617" d="M29,38l-7.3,6.8c-0.5,0.5-0.4,2,0.4,2h14c0.7,0,1-0.6,0.5-1.1l-6.3-7.6
		C29.9,37.7,29.4,37.7,29,38z"/>
</g>
<g id="XMLID_515_" display="none">
	<g id="XMLID_544_" display="inline">
		<g id="XMLID_598_">
			<path id="XMLID_806_" fill="#171617" d="M47.1,16.8c1.3-1.8,1.4-5.4-0.6-6.8c-0.6-0.4-1.2-0.4-2-0.4c-1.6-0.1-3.3,0.7-5,0.5
				c-2-0.3-3.8-1.4-5.6-2.2c-1.8-0.8-3.3,1.1-2.1,2.7c2,2.5,4.8,3.8,7,6.1c3.1,3.1,3.8,7.5,3.8,11.7c0,7.5-2.9,15.4,0.1,22.6
				c0.6,1.5,2.6,0.9,2.4-0.6c-1.3-9,1.9-17.7,0.5-26.6c-0.5-3-1.5-5.9-3.4-8.3c-2.3-2.8-5.7-4.3-7.9-7.2c-0.7,0.9-1.4,1.8-2.1,2.7
				c2.7,1.2,5.5,2.4,8.5,2.3c-0.7,0,4.2-0.5,3.4-0.7c2.2,0.6,1.9,2.8,2.9,4.4C47,16.9,47.1,16.9,47.1,16.8L47.1,16.8z"/>
		</g>
	</g>
	<g id="XMLID_523_" display="inline">
		<g id="XMLID_592_">
			<path id="XMLID_805_" fill="#171617" d="M34,51.3c1.8-0.2,3.7-0.4,5.2-1.5c1.7-1.2,3.4-2.4,3.5-4.5c0.1-1.2-1.1-1.9-2.2-1.6
				c-1.7,0.4-2.6,1.9-3.8,3c-1.2,1.1-2.1,2.4-3.2,3.6C33.2,50.6,33.5,51.3,34,51.3L34,51.3z"/>
		</g>
	</g>
	<g id="XMLID_522_" display="inline">
		<g id="XMLID_586_">
			<path id="XMLID_804_" fill="#171617" d="M25.9,35.9c7,1.9,15.4-2.3,19-8.5c0.7-1.2-1-2.5-1.9-1.5c-4.2,4.8-11.3,7.2-17.1,9.3
				C25.6,35.3,25.6,35.8,25.9,35.9L25.9,35.9z"/>
		</g>
	</g>
	<g id="XMLID_521_" display="inline">
		<g id="XMLID_582_">
			<path id="XMLID_803_" fill="#171617" d="M25.9,31.1c3.4,1.5,7.2-0.4,10-2.5c3.3-2.5,5.8-6.5,6.5-10.5c0.2-1.1-1.1-2.1-2-1.2
				c-2.4,2.5-3.9,5.7-6.2,8.3c-2.4,2.6-5.6,3.5-8.3,5.6C25.7,30.8,25.8,31,25.9,31.1L25.9,31.1z"/>
		</g>
	</g>
	<g id="XMLID_520_" display="inline">
		<g id="XMLID_615_">
			<path id="XMLID_802_" fill="#171617" d="M27.3,30.5c-0.5-5.1-6.6-6.8-10.9-5.1c-4.2,1.6-6.5,6.7-4.7,10.9
				c1.7,3.9,6.6,6.2,10.7,4.9c4.4-1.4,6.5-6.5,4.7-10.7c-0.4-0.9-1.7-0.7-2.1,0c-1.1,1.8-1.5,4.3-2.8,5.9c-1.6,1.9-5.1,1.3-6.6-0.5
				c-1.8-2.1-0.8-5.6,1.6-6.8c2.9-1.5,5.6,0.3,7.6,2.3C25.7,32.3,27.4,31.8,27.3,30.5L27.3,30.5z"/>
		</g>
	</g>
</g>
<g id="XMLID_548_" display="none">
	<g id="XMLID_574_" display="inline">
		<g id="XMLID_635_">
			<path id="XMLID_800_" fill="#171617" d="M15.3,8.5c-3,7.8,5.5,13.3,11.8,15.2c3.5,1.1,6-1,8.9-2.9c1.8-1.2,3.4-2.7,5.2-3.9
				c1.2-0.9,1.1-1.6,2.5-0.3c-0.6-0.5,1.1,3.2,0.9,2.7c0.2,0.5,1,0.4,1.1-0.1c0.5-2.4-0.5-3.9-2-5.7c-0.2-0.2-0.7-0.3-0.9-0.1
				c-3.4,2.4-10.7,8.8-15.1,7.3C22.6,19,17.6,13.4,16,8.5C15.9,8.2,15.4,8.2,15.3,8.5L15.3,8.5z"/>
		</g>
	</g>
	<g id="XMLID_568_" display="inline">
		<g id="XMLID_629_">
			<path id="XMLID_799_" fill="#171617" d="M14.6,21.6c1.1,2.5,1,5.1,3.5,6.7c2.5,1.5,7.6,3.4,10.5,3.4c3.3,0,6.6-3.2,9.4-4.8
				c1.1-0.6,2.2-1.2,3.3-1.7c0.5,0.8,0.9,1.7,1.2,2.6C42,29,40,29.2,39,29.8c-0.7,0.4-1,1.3-0.5,2c0.1,0.2,0.3,0.4,0.4,0.6
				c0.6,0.8,1.5,1.2,2.5,1c2.5-0.6,4.6-2.4,4.6-5.1c0-1.8-1.7-5.4-3.6-6c-1.1-0.3-2.2,0.5-3.1,1c-3.1,1.8-5.5,4.7-9.2,5
				c-6,0.5-10.5-3.8-14.8-7.2C14.8,20.9,14.4,21.2,14.6,21.6L14.6,21.6z"/>
		</g>
	</g>
	<g id="XMLID_567_" display="inline">
		<g id="XMLID_623_">
			<path id="XMLID_798_" fill="#171617" d="M34.6,51.5c0.2,0,0.2-0.3,0-0.3C34.4,51.2,34.4,51.5,34.6,51.5L34.6,51.5z"/>
		</g>
	</g>
	<path id="XMLID_551_" display="inline" fill="#171617" d="M16.9,31.4c0,0,3,1.3,4,5.7c1,4.3,2.6,10.3,2.6,10.3s2.7,2,6.7,2.3
		s7.1,0,7.1,0s0.4-0.9-0.7-1c-2.6-0.1-8-1.4-9.7-1.5C23.3,46.9,23.5,34,23.5,33S20.5,30.7,16.9,31.4z"/>
	<g id="XMLID_550_" display="inline">
		<g id="XMLID_619_">
			<path id="XMLID_797_" fill="#171617" d="M27.5,31c-0.8,3.8-1,8,0.1,11.7c0.7,2.5,4.5,4.1,6.9,3.8c2.5-0.3,3.6-4.4,0.6-4.8
				c-1.2-0.2-2.1-0.1-3.3,0.2c-0.4,0.1-1.2,0.4-1.6,0.3c-1.1-0.2-1.4-1.5-1.5-2.6c-0.1-1.2,0.1-2.5,0.1-3.8c0-1.6-0.2-3.1-0.2-4.7
				C28.7,30.5,27.7,30.3,27.5,31L27.5,31z"/>
		</g>
	</g>
	<g id="XMLID_549_" display="inline">
		<g id="XMLID_648_">
			<path id="XMLID_796_" fill="#171617" d="M29.8,28.9c-0.4,0.3-0.9,0.5-1.2,1c-0.3,0.5-0.2,1.4-0.3,1.9C28.1,33.5,28,35.3,28,37
				c0,0.3,0.4,0.3,0.5,0.1c0.4-1.5,0.8-3,1.1-4.5c0.2-0.7,0.5-1.5,0.5-2.1c0-0.5-0.3-1-0.2-1.4C30,28.9,29.9,28.8,29.8,28.9
				L29.8,28.9z"/>
		</g>
	</g>
</g>
<g id="XMLID_575_" display="none">
	<path id="XMLID_604_" display="inline" fill="#171617" d="M23.1,31.8c0.3-0.9-7.3,10.5-9,11.5s-3.8-1.7-4.2-2.5
		c-0.3-0.8-4.7,1.8-2.8,5.3s3.7,5.2,4.2,4.5C11.8,50,17.1,47.5,23.1,31.8z"/>
	<g id="XMLID_603_" display="inline">
		<g id="XMLID_658_">
			<path id="XMLID_795_" fill="#171617" d="M26.6,22.3c1.4-4.3,2.5-8.5,2.7-13.1c-1,0.3-2.1,0.6-3.1,0.8c4.2,7.1,4,15.9,6.6,23.6
				c2.1,6.2,6.1,10.8,10.4,15.6c0.5,0.6,1.3,0.6,1.9,0.3c3.2-1.6,5.8-4,5.6-7.8c-0.1-1-1.5-1.9-2.3-0.9c-1.7,2-2.8,4.4-4.9,6
				c0.6,0.1,1.3,0.2,1.9,0.3c-11.6-9.5-13-24.5-16.1-38.2c-0.4-1.9-3.3-1.4-3.3,0.4c0,4.3,0.3,8.7,0.2,13
				C26.1,22.5,26.5,22.5,26.6,22.3L26.6,22.3z"/>
		</g>
	</g>
	<g id="XMLID_577_" display="inline">
		<g id="XMLID_653_">
			<path id="XMLID_794_" fill="#171617" d="M18.6,18.4c-7.2,2.8-11.7,9.1-14,16.3c-0.7,2,1.9,3,3.3,1.9c6.1-4.9,15.4-8.7,23.3-7.8
				c8.3,0.9,14.8,5.2,21.4,9.9c1.4,1,2.9-0.6,2.6-2c-0.7-3.5-1.7-7.4-3.8-10.3c-2.4-3.4-5.6-3.3-8.7-5.5c-1.3-1-2.5,1-1.6,2.1
				c1.1,1.1,1.7,2.4,1.6,4.1c-2.6,0.3-1.8,4.2,0.5,3.4c4.9-1.8,1.4-5.7,0.2-8.8c-0.8,0.3-1.7,0.7-2.5,1c1.1,1.6,2.3,2.4,4.1,3.2
				c5.3,2.3,7.1,5.7,6.8,11.3c1-0.4,2-0.8,3.1-1.3c-6.1-6.4-16.1-10.7-24.9-11.1c-8.6-0.4-18.2,3.8-24.7,9.1
				c1.1,0.6,2.2,1.3,3.3,1.9c2.1-6.4,6.4-10.9,11.6-15.1C21,19.8,19.9,17.9,18.6,18.4L18.6,18.4z"/>
		</g>
	</g>
	<g id="XMLID_576_" display="inline">
		<g id="XMLID_672_">
			<path id="XMLID_793_" fill="#171617" d="M33.2,47.1c-1.3-1.6-1.7-3.6-3.7-4.6c-0.8-0.4-1.8-0.1-2.3,0.7c-0.6,1-1.2,2.4-1.4,3.5
				c-0.1,0.6,0.5,1.2,1.1,0.8c1-0.7,1.5-1.8,2.4-2.5c-0.4,0-0.8,0.1-1.1,0.1c-0.4-0.1-0.5-0.4-0.3,0.1c0.1,0.2,0.2,0.4,0.3,0.6
				c0.3,0.5,0.7,0.9,1.1,1.3c0.7,0.7,1.4,1.4,2.2,2C33,50.1,34.1,48.2,33.2,47.1L33.2,47.1z"/>
		</g>
	</g>
</g>
<g id="XMLID_605_" display="none">
	<g id="XMLID_613_" display="inline">
		<g id="XMLID_684_">
			<path id="XMLID_792_" fill="#171617" d="M15.4,19c0.2-0.1,0.4-0.2,0.5-0.2c-0.7,0-1.4,0-2.1,0c4.6,2.3,0.3,10.5,4.3,12.7
				c2.4,1.3,6-2.1,7.6-3.6c2.8-2.8,3.8-6.1,2.4-9.9c-0.5-1.2-2.3-2.8-1.4-3.9c0.8-1,3.9-0.3,5.1-0.1c2.8,0.6,5.2,2,8.1,2.2
				c1.5,0.1,1.9-1.8,1.1-2.7c-3.9-4.6-11-3.4-16.3-2.5c-0.4,0.1-0.9,0.5-0.9,0.9c-0.4,2.5,0.5,3.8,1.4,6c1.5,3.6,1,7.8-2.7,10
				c-3.9,2.2-4.3,0.8-4.3-2.2c0-3,0.5-11-4-10.9C10.9,15,12,20.6,15.4,19L15.4,19z"/>
		</g>
	</g>
	<g id="XMLID_612_" display="inline">
		<g id="XMLID_677_">
			<path id="XMLID_791_" fill="#171617" d="M46.9,37.8c-3.1-2.4-1.3-6-3.8-8.7c-1.8-1.9-4.7-2.5-7.1-1.6c-2.6,1-4.1,3.5-4.7,6.2
				c-1.2,5.4-0.6,9.9-6,13c0.8,0.4,1.6,0.9,2.3,1.3c-0.3-3.7,2.2-8,2.7-11.7c0.5-3.4,0.5-6.9,0.4-10.3c-0.1-1.3-1.9-1.3-2,0
				c-0.2,4.2-0.9,8.4-1.8,12.5c-0.7,3.1-2.6,6.3-2.4,9.5c0.1,1.2,1.3,1.9,2.3,1.3c6.1-3.4,6.2-8,7.5-14.2c0.2-1.1,0.5-2.1,1.1-3
				c4.1-1,5.7-0.3,4.8,2.2c0.2,0.7-0.1,1.4,0.2,2.1c0.8,2.1,3,3.1,5,3.8C46.8,40.8,48,38.7,46.9,37.8L46.9,37.8z"/>
		</g>
	</g>
	<g id="XMLID_611_" display="inline">
		<g id="XMLID_700_">
			<path id="XMLID_790_" fill="#171617" d="M29.3,29.8c1.9,0,3.7-1.7,3.6-3.6c-0.1-2-1.6-3.6-3.6-3.6c-1.9,0-3.7,1.7-3.6,3.6
				C25.8,28.1,27.3,29.8,29.3,29.8L29.3,29.8z"/>
		</g>
	</g>
</g>
<g id="XMLID_614_" display="none">
	<g id="XMLID_647_" display="inline">
		<g id="XMLID_724_">
			<path id="XMLID_789_" fill="#171617" d="M17.1,2.9c-1.5,8.4-0.2,17.6-0.3,26.1c-0.1,9.3-0.5,18.7-1.4,28
				c-0.1,1.4,1.9,2.1,2.7,1.1c2.2-2.5,4.4-5.3,5-8.6c0.3-1.6-1.6-2.4-2.6-1.1c-1.8,2.4-2.9,5.1-4.7,7.4c0.9,0.4,1.8,0.8,2.7,1.1
				c0.4-9.3,0.8-18.6,0.8-28C19.3,20.7,20,11,17.4,2.9C17.4,2.8,17.1,2.7,17.1,2.9L17.1,2.9z"/>
		</g>
	</g>
	<g id="XMLID_646_" display="inline">
		<g id="XMLID_718_">
			<path id="XMLID_788_" fill="#171617" d="M17.4,35.3c1.4,0,2.8,0.8,4.2,0.9c2.2,0.3,4.5,0.1,6.7,0.2c3.9,0.1,8.8,1.2,12.2-0.9
				c0.6-0.4,0.6-1.3,0-1.6c-3.6-2.1-9-0.7-13.1-0.5c-3.1,0.1-7.3-0.2-10.1,1.4C17.1,34.9,17.2,35.3,17.4,35.3L17.4,35.3z"/>
		</g>
	</g>
	<g id="XMLID_645_" display="inline">
		<g id="XMLID_709_">
			<path id="XMLID_787_" fill="#171617" d="M37.2,35.3c1.2,2,1,3.9,1.1,6.2c0,1,1.5,1,1.5,0c0-1.3,0.2-2.7-0.1-4
				c-0.3-1.3-1.1-1.9-2.2-2.5C37.3,34.9,37.1,35.1,37.2,35.3L37.2,35.3z"/>
		</g>
	</g>
	<g id="XMLID_644_" display="inline">
		<g id="XMLID_705_">
			<path id="XMLID_786_" fill="#171617" d="M17.4,24.6c6.3,4,17.7,4.1,23.8-0.6c0.4-0.3,0.3-0.9,0-1.2c-1.4-2.7-0.9-5.2,1.4-7.5
				c2.6,1.1,3.7-4.4,0-3.8c-2.6,0.4-2.9,3.2-3.4,5.4c-0.6,2.5-1.2,5.2,0.8,7.1c0.1-0.5,0.3-1,0.4-1.4c-7.3,1-15.2,2.8-22.4,0.9
				C17.2,23.2,16.8,24.2,17.4,24.6L17.4,24.6z"/>
		</g>
	</g>
	<g id="XMLID_640_" display="inline">
		<g id="XMLID_735_">
			<path id="XMLID_785_" fill="#171617" d="M30.3,12.6c-0.4,0.5-0.3,0.9-0.2,1.6c0.1,0.9,0.1,1.9,0,2.8c0,0.3-0.2,0.8-0.1,1.2
				c2.1,0.8,2.9,1.1,2.1,0.8c0-0.1,0.1-0.2,0.1-0.3c0.4-0.8,0.5-1.6,0.5-2.4c0-1.2,0-2.9-1.6-2.9c-1.6,0-2.9,2.4-3.1,3.7
				c-0.2,1.6-0.1,3.4,1.4,4.4c1.6,1,3.4,0,3.9-1.7c0.5-1.5,0-3.6-0.7-5C32.4,14.4,31.1,11.7,30.3,12.6L30.3,12.6z"/>
		</g>
	</g>
</g>
<g id="XMLID_667_" display="none">
	<g id="XMLID_690_" display="inline">
		<g id="XMLID_762_">
			<path id="XMLID_784_" fill="#171617" d="M15.3,50.3c1.4-6.7,1.4-12.8,0.9-19.6c-0.2-3.2-0.6-6.5-0.7-9.8c0-2.9,1.3-5.1,1.7-7.8
				c0.2-1.3-0.7-2.4-2.1-2.1c-5.3,1.2-3.6,9-3.1,12.8c1,8.8,2.1,17.6,2.8,26.4C14.8,50.5,15.2,50.6,15.3,50.3L15.3,50.3z"/>
		</g>
	</g>
	<g id="XMLID_689_" display="inline">
		<g id="XMLID_756_">
			<path id="XMLID_783_" fill="#171617" d="M12.7,20.4c13,4.3,22.1,14.8,33.5,21.6c0.8,0.5,1.4-0.6,0.9-1.2
				c-4.6-5.4-11.4-9.6-17.3-13.4c-5.5-3.6-10.5-6.6-17.1-7.3C12.6,20,12.5,20.3,12.7,20.4L12.7,20.4z"/>
		</g>
	</g>
	<g id="XMLID_671_" display="inline">
		<g id="XMLID_750_">
			<path id="XMLID_782_" fill="#171617" d="M45.6,46.7c1-5.8,1.9-11.5,2.4-17.4c0.5-5.7,0.2-12.3,1.6-17.8c0.3-1.2-0.2-2.8-1.4-3.4
				c-0.3-0.1-0.6-0.3-0.9-0.4c-2-1-4.2,0.6-3.7,2.9c0.5,2,1.1,3.1,1.1,5.3c0,3.5-0.3,7-0.4,10.5c-0.2,6.7-0.2,13.4,0.1,20.1
				C44.5,47.1,45.5,47.3,45.6,46.7L45.6,46.7z"/>
		</g>
	</g>
	<g id="XMLID_670_" display="inline">
		<g id="XMLID_744_">
			<path id="XMLID_781_" fill="#171617" d="M15.6,39.7c9.6-8.1,21.4-13.2,31.6-20.5c0.7-0.5,0.1-1.5-0.7-1.1
				c-6.6,3-12.6,7-18.7,10.9c-4.8,3-9.3,5.8-12.7,10.4C14.9,39.6,15.4,39.9,15.6,39.7L15.6,39.7z"/>
		</g>
	</g>
	<g id="XMLID_668_" display="inline">
		<g id="XMLID_749_">
			<path id="XMLID_780_" fill="#171617" d="M29.3,43c-1.6,0.5-4.6,2.3-4.3,4.4c0.1,1.1,1.5,1.9,2.3,2.4c1.1,0.6,2.4,0.9,3.7,0.6
				c2.2-0.5,3.8-2.7,3.2-5c-0.6-2.2-3-3.4-5.1-2.7c-0.8,0.3-1,1.7,0,1.8c0.9,0.1,2.1,0.5,2.6,1.4c0.5,1-0.4,2-1.3,2.3
				c-1,0.4-3.8,0-3.6-1.6c0.1-1.1,1.9-2.1,2.8-2.5C30.3,43.8,29.9,42.8,29.3,43L29.3,43z"/>
		</g>
	</g>
</g>
<g id="XMLID_696_" display="none">
	<g id="XMLID_738_" display="inline">
		<g id="XMLID_775_">
			<path id="XMLID_779_" fill="#171617" d="M21.3,12.4c2,0,3.8,0.6,5.7,0.8c2.2,0.3,4.4,0.6,6.5,1.1c0.5,0.1,1.1,0,1.5-0.4
				c0.4-0.5,0.6-0.8,0.4-1.5c-0.1-0.5-0.5-1-1-1c-4.3-0.7-8.9-1.5-13.2,0C20.7,11.7,20.8,12.4,21.3,12.4L21.3,12.4z"/>
		</g>
	</g>
	<g id="XMLID_730_" display="inline">
		<g id="XMLID_765_">
			<path id="XMLID_773_" fill="#171617" d="M20.8,11.5c-0.5,6.5-0.7,13-1,19.5c-0.2,5.6-1.7,12.2-0.4,17.7c0.1,0.6,0.9,0.5,1.1,0
				c2-5.3,1.2-12.1,1.4-17.7c0.2-6.5,0.2-13-0.3-19.5C21.5,11.1,20.9,11.1,20.8,11.5L20.8,11.5z"/>
		</g>
	</g>
	<g id="XMLID_729_" display="inline">
		<g id="XMLID_721_">
			<path id="XMLID_755_" fill="#171617" d="M19.9,48.7c1.8,0,3.2,0.2,4.9-0.4c1.6-0.6,3.2-1.2,4.8-2c2.7-1.4,6-3.4,8.2-5.6
				c3.2-3.2-4.1-5.7-3.8-1.6c0,0.7-2.2,2.2-2.6,2.6c-1.3,1.1-2.6,2-4,2.8c-2.4,1.4-5,2.8-7.5,4C19.8,48.5,19.8,48.7,19.9,48.7
				L19.9,48.7z"/>
		</g>
	</g>
	<g id="XMLID_699_" display="inline">
		<g id="XMLID_675_">
			<path id="XMLID_714_" fill="#171617" d="M20.5,36c2.9,1.1,7.7-0.6,10.3-1.9c2.8-1.4,7.5-3.7,8.2-7c0.2-1-0.7-2.1-1.7-1.7
				c-1.3,0.4-2,1.2-3,2.1c-1.6,1.4-3.5,2.4-5.3,3.4c-1.6,0.8-3.1,1.7-4.7,2.4c-1.4,0.7-2.8,1-3.9,2.1C20.1,35.6,20.2,35.9,20.5,36
				L20.5,36z"/>
		</g>
	</g>
	<g id="XMLID_698_" display="inline">
		<g id="XMLID_628_">
			<path id="XMLID_655_" fill="#171617" d="M27.8,24.7c2.6,1.3,5.8,2.1,8.8,1.7c1-0.1,1-1.6,0.3-2.1c-2.5-1.5-5.9-1-8.7-0.9
				C27.5,23.5,27.2,24.4,27.8,24.7L27.8,24.7z"/>
		</g>
	</g>
	<g id="XMLID_697_" display="inline">
		<g id="XMLID_589_">
			<path id="XMLID_620_" fill="#171617" d="M21.3,24c2.1,0.6,5.6-1,7.5-1.6c4.2-1.4,8.3-3.3,11.8-6c0.8-0.6,1.1-1.3,0.9-2.3
				c0-0.1,0-0.2-0.1-0.4c-0.1-0.5-0.5-0.9-1-1c-1.7-0.4-2.4,0.5-3.6,1.6c-1.9,1.7-4,3.1-6.2,4.4c-2.1,1.3-6.6,5-9.3,4.8
				C21,23.4,21,23.9,21.3,24L21.3,24z"/>
		</g>
	</g>
</g>
<g id="XMLID_739_" display="none">
	<g id="XMLID_768_" display="inline">
		<g id="XMLID_536_">
			<path id="XMLID_565_" fill="#171617" d="M39.1,18.4c0.8-1.5,0.8-3-0.2-4.3c-0.3-0.3-0.6-0.6-0.8-1c-0.6-0.9-0.1-1.5,0.7-1.9
				c0.7-0.4,1.7-0.4,2.3,0.1c0.2,0.2,0.3,0.6,0.5,0.8c0.4,0.4,1.1,0.4,1.5,0c0.1-0.1,0.1-0.1,0.2-0.2c0.3-0.3,0.5-0.8,0.3-1.3
				c-1.2-3-5.2-2.7-7.3-0.8c-3.2,2.8,2.1,5.6,2.1,8.4C38.4,18.5,38.9,18.7,39.1,18.4L39.1,18.4z"/>
		</g>
	</g>
	<g id="XMLID_767_" display="inline">
		<g id="XMLID_501_">
			<path id="XMLID_530_" fill="#171617" d="M40,25.8c-1.1-2.8-3.7-4.4-5.8-6.5c-2.9-2.9-6-5.5-8.8-8.5c-0.9-1-3.1-0.3-2.9,1.2
				c0.7,6,0.8,11.9,0.4,17.9c0.7-0.3,1.4-0.6,2.1-0.9c-2.8-2.4-5.7-4.3-9.1-5.7c-0.9-0.4-2.2,0-2.1,1.2c0.6,5.8,1.4,11.6,1.7,17.4
				c0.1,0.9,1.1,1.7,1.9,1.1c8.1-5.2,19.9-4.1,26.5,2.7c0.6,0.6,1.7,0.3,1.9-0.5c1-4.6-6.2-7.2-9.4-8.1c-6.8-1.8-14.6-0.5-20.3,3.7
				c0.6,0.4,1.3,0.7,1.9,1.1c-0.7-5.8-1-11.6-1.5-17.4c-0.6,0.4-1.2,0.9-1.8,1.3c3.1,1.2,5.8,2.8,8.4,4.9c0.8,0.7,2,0.2,2.1-0.9
				C25.9,24,26,18,25.9,12.1c-1,0.4-1.9,0.8-2.9,1.2c3.6,4.6,10.3,12.9,16.8,12.8C39.9,26.1,40,25.9,40,25.8L40,25.8z"/>
		</g>
	</g>
	<g id="XMLID_741_" display="inline">
		<g id="XMLID_453_">
			<path id="XMLID_489_" fill="#171617" d="M22.9,49.9c0,0.5,0.1,0.9,0.3,1.3c0.7,1.2,2.6,1.2,3.3,0c0.2-0.4,0.3-0.8,0.3-1.3
				c0-1-0.9-2-2-2C23.8,48,22.9,48.8,22.9,49.9L22.9,49.9z"/>
		</g>
	</g>
	<g id="XMLID_740_" display="inline">
		<g id="XMLID_402_">
			<path id="XMLID_430_" fill="#171617" d="M33.6,47.9c0,0-0.1,0-0.1,0c-0.8,0.3-1.5,1-1.5,1.9c0,1,0.6,1.6,1.5,1.9c0,0,0.1,0,0.1,0
				c1.3,0.5,2.6-0.8,2.6-2C36.2,48.7,34.9,47.4,33.6,47.9L33.6,47.9z"/>
		</g>
	</g>
</g>
<g id="XMLID_769_" display="none">
	<g id="XMLID_1177_" display="inline">
		<g id="XMLID_351_">
			<path id="XMLID_390_" d="M31.8,8.8c-1.4,7,1.3,13.8,3.9,20.2c2.1,5,4.2,11.4,8.8,14.6c0.7,0.5,2,0,2.1-0.9
				c0.2-1.3,0.5-2.6,0.9-3.9c-0.6,0-1.2,0-1.8,0c0,0.1,0.1,0.1,0.1,0.2c0.1-0.5,0.2-0.9,0.4-1.4c-0.1,0-0.1,0.1-0.2,0.1
				c-1.1,0.7-0.1,2.3,1,1.8c0.1,0,0.1-0.1,0.2-0.1c0.5-0.3,0.6-1,0.4-1.4c0-0.1-0.1-0.1-0.1-0.2c-0.3-0.6-1.2-0.7-1.7-0.2
				c-1.1,1.2-1.4,2.9-2,4.4c0.8-0.2,1.6-0.4,2.4-0.6c-4-3.3-6.2-8.7-8.2-13.4c-2.6-5.8-6-12.8-6-19.2C32,8.7,31.9,8.7,31.8,8.8
				L31.8,8.8z"/>
		</g>
	</g>
	<g id="XMLID_1171_" display="inline">
		<g id="XMLID_302_">
			<path id="XMLID_339_" d="M47.7,22c-0.5,2.4-1.7,4.3-3.4,6c-0.3,0.3-0.3,0.8,0,1.2c0.7,0.6,1.5,1.1,2.2,1.8c1.1,1.2,0.2,1.9,0.7,3
				c0.3,0.8,0.7,1,1.5,0.8c0.5-0.1,0.9-0.7,0.9-1.2c0.2-3.2-2-4.1-4.3-5.8c0.1,0.4,0.1,0.9,0.2,1.3c1.7-2.1,2.5-4.5,2.6-7.1
				C48.1,21.9,47.8,21.8,47.7,22L47.7,22z"/>
		</g>
	</g>
	<g id="XMLID_1170_" display="inline">
		<g id="XMLID_266_">
			<path id="XMLID_290_" d="M21.5,44.6c5.7-2.6,10.3-7.6,10.9-14c0.1-0.6-0.8-0.7-1-0.3c-3.1,4.9-5.9,9.9-10.1,14
				C21.1,44.5,21.3,44.7,21.5,44.6L21.5,44.6z"/>
		</g>
	</g>
	<g id="XMLID_1156_" display="inline">
		<g id="XMLID_230_">
			<path id="XMLID_254_" d="M37.9,42.6c-1.6-2.7-1.8-5.9-2.5-8.8c-0.4-1.4-2.5-1.1-2.6,0.3C32.6,39.9,32,50.2,24,49.5
				c-1.1-0.1-2.5-0.4-3.8-1.4c-5.2-3.9-0.9-9.9,2-13.8c0.4-0.6-0.4-1-0.9-0.7c-4.5,3.5-8.5,9.8-4.6,15.3c1,1.5,2.6,2.7,4.2,3.4
				c1.3,0.6,1.3,0.5,2.3,0.6c10.7,2,12-11.4,12.1-18.9c-0.9,0.1-1.7,0.2-2.6,0.3c0.7,2.7,1.9,7.4,4.9,8.4
				C37.8,42.9,38,42.7,37.9,42.6L37.9,42.6z"/>
		</g>
	</g>
	<g id="XMLID_1178_" display="inline">
		<g id="XMLID_192_">
			<path id="XMLID_210_" d="M15.9,35c-2.8-2.8-4.2-6.3-2.5-10.1c1-2.2,2.7-3.7,3.3-6.1c-0.9,0-1.8,0-2.7,0c1,3.8,3,7.4,6,10
				c1.5,1.4,3.9,2.9,5,0.2c0.3-0.7-0.5-1.3-1.2-1.2C22.5,28.2,20,25,19.4,24c-1.3-1.8-2.1-3.8-2.6-6c-0.3-1.3-2.4-1.3-2.7,0
				c-0.9,4-4.1,6.5-3.5,10.9c0.4,3.1,2.1,5.6,5.2,6.3C15.9,35.3,16.1,35.1,15.9,35L15.9,35z"/>
		</g>
	</g>
	<g id="XMLID_1142_" display="inline">
		<g id="XMLID_128_">
			<path id="XMLID_174_" d="M31.6,8.5c-1.3,3.7-2.6,7.5-4.1,11.1c-1.4,3.3-3.3,6.3-4.2,9.7c-0.3,1.1,1.1,1.5,1.7,0.7
				c4.4-5.8,6.1-14.5,7.2-21.4C32.2,8.3,31.7,8.1,31.6,8.5L31.6,8.5z"/>
		</g>
	</g>
	<g id="XMLID_1128_" display="inline">
		<g id="XMLID_100_">
			<path id="XMLID_186_" d="M15.5,27.1c0.2,1.8,1.7,4.4,3.8,4.2c0.7-0.1,0.9-0.9,0.4-1.3c-0.6-0.4-1.3-0.6-1.9-1.1
				c-0.6-0.5-1-1.2-1.2-1.9C16.3,26.4,15.4,26.5,15.5,27.1L15.5,27.1z"/>
		</g>
	</g>
</g>
</svg>
