<svg id="Layer_1" data-name="Layer 1" xmlns="http://www.w3.org/2000/svg" viewBox="0 0 265.86 369.24"><defs><style>.cls-1{fill:#49494a;}.cls-2{fill:none;stroke:#49494a;stroke-miterlimit:10;}</style></defs><title>frame</title><g id="_Group_" data-name="&lt;Group&gt;"><g id="_Group_2" data-name="&lt;Group&gt;"><path id="_Compound_Path_" data-name="&lt;Compound Path&gt;" class="cls-1" d="M217.92,56a4.91,4.91,0,0,0-2.68-1c-2.29-.09-5.46,1.32-7,6.89a9.3,9.3,0,0,1,6.38,6.44A6.11,6.11,0,0,1,210.3,76c0.27-3.93-.9-6.81-4.83-9.29a14.3,14.3,0,0,0-6.72-2.23,23.6,23.6,0,0,1,2.67-9.76l-13.51,0-0.26,13.53a24.58,24.58,0,0,1,10.2-2.55,12,12,0,0,0,2.63,7.34c3.46,4.12,7.39,4.33,8.57,4.3-0.94,3.12-3.91,5.41-8.14,4.4a8.77,8.77,0,0,1-6.3-6.52c-7.71,2-7.2,6.56-7.2,6.56l1,3s-0.51-6.09,3.62-7c0,0,2.21,5.14,6.74,5.87,5.23,0.84,10.52-1.27,11.42-6.46,5.11-.73,7.17-5.86,6.45-11.06-0.63-4.54-5.72-6.86-5.72-6.86C211.85,55.21,217.92,56,217.92,56Zm-20.08,8.52H197.6A32.1,32.1,0,0,0,191,65.78l0.22-8.26,7.83,0.11A26.27,26.27,0,0,0,197.83,64.52Zm11.45,11.75a7.14,7.14,0,0,1-2.61-.16,11,11,0,0,1-7.89-10.35c6.32,0.37,9.65,4.5,10.39,7.74A7.67,7.67,0,0,1,209.28,76.26Z" transform="translate(-187.4 -54.75)"/></g><g id="_Group_3" data-name="&lt;Group&gt;"><path id="_Compound_Path_2" data-name="&lt;Compound Path&gt;" class="cls-1" d="M210.89,419.42s5.09-2.32,5.72-6.86c0.72-5.2-1.34-10.34-6.45-11.06-0.9-5.19-6.19-7.3-11.42-6.46-4.53.73-6.74,5.87-6.74,5.87-4.13-.87-3.62-7-3.62-7l-1,3s-0.51,4.59,7.2,6.56a8.77,8.77,0,0,1,6.3-6.52c4.23-1,7.2,1.28,8.14,4.4-1.19,0-5.11.18-8.57,4.3a12,12,0,0,0-2.63,7.34,24.58,24.58,0,0,1-10.2-2.55L187.91,424l13.51,0a23.6,23.6,0,0,1-2.67-9.76,14.3,14.3,0,0,0,6.72-2.23c3.93-2.48,5.1-5.36,4.83-9.29a6.11,6.11,0,0,1,4.3,7.73,9.3,9.3,0,0,1-6.38,6.44c1.55,5.57,4.72,7,7,6.89a4.91,4.91,0,0,0,2.68-1S211.85,423.53,210.89,419.42Zm-11.83,1.69-7.83.11L191,413a32.1,32.1,0,0,0,6.58,1.25h0.24A26.27,26.27,0,0,0,199.06,421.11Zm10.11-15.87c-0.74,3.24-4.07,7.37-10.39,7.74a11,11,0,0,1,7.89-10.35,7.14,7.14,0,0,1,2.61-.16A7.67,7.67,0,0,1,209.17,405.25Z" transform="translate(-187.4 -54.75)"/></g><g id="_Group_4" data-name="&lt;Group&gt;"><path id="_Compound_Path_3" data-name="&lt;Compound Path&gt;" class="cls-1" d="M429.77,59.32s-5.09,2.32-5.72,6.86c-0.72,5.2,1.34,10.34,6.45,11.06,0.9,5.19,6.19,7.3,11.42,6.46,4.53-.73,6.74-5.87,6.74-5.87,4.13,0.87,3.62,7,3.62,7l1-3s0.51-4.59-7.2-6.56a8.77,8.77,0,0,1-6.3,6.52c-4.23,1-7.2-1.28-8.14-4.4,1.19,0,5.11-.18,8.57-4.3a12,12,0,0,0,2.63-7.34A24.58,24.58,0,0,1,453,68.28l-0.26-13.53-13.51,0a23.6,23.6,0,0,1,2.67,9.76,14.3,14.3,0,0,0-6.72,2.23c-3.93,2.48-5.1,5.36-4.83,9.29a6.11,6.11,0,0,1-4.3-7.73,9.3,9.3,0,0,1,6.38-6.44c-1.55-5.57-4.72-7-7-6.89a4.91,4.91,0,0,0-2.68,1S428.81,55.21,429.77,59.32Zm11.83-1.69,7.83-.11,0.22,8.26a32.1,32.1,0,0,0-6.58-1.25h-0.24A26.27,26.27,0,0,0,441.59,57.63ZM431.49,73.49c0.74-3.24,4.07-7.37,10.39-7.74A11,11,0,0,1,434,76.1a7.14,7.14,0,0,1-2.61.16A7.67,7.67,0,0,1,431.49,73.49Z" transform="translate(-187.4 -54.75)"/></g><g id="_Group_5" data-name="&lt;Group&gt;"><path id="_Compound_Path_4" data-name="&lt;Compound Path&gt;" class="cls-1" d="M422.74,422.75a4.91,4.91,0,0,0,2.68,1c2.29,0.09,5.46-1.32,7-6.89a9.3,9.3,0,0,1-6.38-6.44,6.11,6.11,0,0,1,4.3-7.73c-0.27,3.93.9,6.81,4.83,9.29a14.3,14.3,0,0,0,6.72,2.23,23.6,23.6,0,0,1-2.67,9.76l13.51,0L453,410.46a24.58,24.58,0,0,1-10.2,2.55,12,12,0,0,0-2.63-7.34c-3.46-4.12-7.39-4.33-8.57-4.3,0.94-3.12,3.91-5.41,8.14-4.4a8.77,8.77,0,0,1,6.3,6.52c7.71-2,7.2-6.56,7.2-6.56l-1-3s0.51,6.09-3.62,7c0,0-2.21-5.14-6.74-5.87-5.23-.84-10.52,1.27-11.42,6.46-5.11.73-7.17,5.86-6.45,11.06,0.63,4.54,5.72,6.86,5.72,6.86C428.81,423.53,422.74,422.75,422.74,422.75Zm20.08-8.52h0.24a32.1,32.1,0,0,0,6.58-1.25l-0.22,8.26-7.83-.11A26.27,26.27,0,0,0,442.82,414.23Zm-11.45-11.75a7.14,7.14,0,0,1,2.61.16A11,11,0,0,1,441.88,413c-6.32-.37-9.65-4.5-10.39-7.74A7.67,7.67,0,0,1,431.37,402.48Z" transform="translate(-187.4 -54.75)"/></g><g id="_Group_6" data-name="&lt;Group&gt;"><line id="_Path_" data-name="&lt;Path&gt;" class="cls-2" x1="0.5" y1="26.45" x2="0.5" y2="342.14"/><line id="_Path_2" data-name="&lt;Path&gt;" class="cls-2" x1="265.36" y1="26.45" x2="265.36" y2="342.14"/><line id="_Path_3" data-name="&lt;Path&gt;" class="cls-2" x1="27.35" y1="0.78" x2="236.34" y2="0.78"/><line id="_Path_4" data-name="&lt;Path&gt;" class="cls-2" x1="27.35" y1="368.41" x2="236.34" y2="368.41"/></g></g></svg>