<?xml version="1.0" encoding="utf-8"?>
<!-- Generator: Adobe Illustrator 19.0.0, SVG Export Plug-In . SVG Version: 6.00 Build 0)  -->
<svg version="1.1" id="Layer_1" xmlns="http://www.w3.org/2000/svg" xmlns:xlink="http://www.w3.org/1999/xlink" x="0px" y="0px"
	 viewBox="0 0 60 60" style="enable-background:new 0 0 60 60;" xml:space="preserve">
<style type="text/css">
	.st0{display:none;}
	.st1{display:inline;fill:#171617;}
	.st2{display:none;fill:#171617;stroke:#171617;stroke-width:0.3;stroke-linejoin:round;stroke-miterlimit:10;}
	.st3{display:inline;}
	.st4{fill:#171617;}
	.st5{display:none;fill:#171617;}
</style>
<g id="el" class="st0">
	<path id="XMLID_3_" class="st1" d="M25.6,14.5c7.1,3.9-7.9,3.3-10.4,8.2c-3.3,6.5,1.3,13.4,2.6,17.1c0.9,2.4,0.9,5.1,0.9,6.7
		c0,0.8,0.6,1.4,1.3,1.4c3.5,0,12.8,0.1,17-0.8c5.2-1,8.1-5.4,9.4-9.3c0.4-1.3,0.2-3.3-0.1-4.9c-0.2-1.1,0.9-2,1.9-1.4
		c0.8,0.4,1.6,0.9,1.8,1.3c1.9,3.1-3.4,16.1-12.3,16.7c-8.9,0.6-20.1-0.3-22.5,1.3l-1.7,1.3c0,0-0.8-1.6-0.5-2.9
		c0.3-1.4,2.4-1.5,2-6.2c-0.5-5.5-6.6-11.6-4.3-18.2S14.3,13,25.6,14.5z"/>
	<path id="XMLID_4_" class="st1" d="M40.4,8c-2.9,0.3-9.2,9.4-11,14.3c-1.8,4.9-2.3,10-1.6,10.4c0.7,0.4,1.2-1.7,3.3-7
		s8.1-14.2,10.3-15.6c1.4-0.9,2.3-0.6,2.3-0.6S42.5,7.8,40.4,8z"/>
	<path id="XMLID_5_" class="st1" d="M49.6,15.4c0,0-2.5-1.3-5.1,1.2c-4.4,4.2-7.1,11.8-8.5,16.2c-1.3,4.4-2.9,5.5-3,1.2
		s3.3-14,8.7-18.7C45.1,12.3,49.4,11.4,49.6,15.4z"/>
	<path id="XMLID_2_" class="st1" d="M31.5,41.1c0,1.9-2.3,3.4-4.2,3.4c-1.9,0-3.4-1.5-3.4-3.4s1.5-3.4,3.4-3.4
		C29.2,37.8,31.5,39.3,31.5,41.1z"/>
</g>
<path id="ELD" class="st2" d="M26,36.4c-1.1,5.2-9.7,16.1-6.9,15.5c2.8-0.5,3.3-3.4,3.3-3.4s8.8-3,9.1-0.2c0.6,5.3,2.2,8.1,3.8,4.6
	c1.6-3.5-1.5-6.6-4.1-7.1s-7.7,0.3-7.7,0.3s3.5-8,4.7-7.9c1.2,0.1,3.9,2.4,8,4c4.8,1.9,10,3.2,10.2,3c0.4-0.3,1.3-1,1.3-1.3
	c0.1-0.3-1.2-0.7-1.2-0.7l2.4-3.1l-1.4-1.1c0,0-2.8,3-3.7,3.3c-0.9,0.3-4.5-1.2-7.8-3c-3.3-1.8-5.5-2.2-6.7-4.3c-1.3-2.1-1-8-1-8
	l1.2-3c0,0,4.8,0.8,7.7,2.5c2.9,1.7,2.8,2.5,3.6,2.1c0.8-0.3-5.9-5.8-8.5-6.2c-2.1-0.3-2.1-0.3-2.1-0.3l3.7-6.7c0,0,5.9,4,8.9,3.5
	s7.4-6.3,5.7-9.7s-6.2-5.8-9.8-1.8c-3.5,4,1.7,6.6,4,5.9c2.3-0.6,3.1-2.4,0.8-2.7s-4.1-1-1.9-2.2s7.9,1.4,5.3,4.9
	c-2.6,3.5-7.2,4.2-9.9,1.7s-1.6-3.9-3.3-3.6c-1.7,0.2-7.5,16.2-14.6,12.8c-2.5-1.2-4.2-3.2-4.2-3.2L14,23.3c0,0,4.4,3.1,4.4,4.5
	S15.5,32,15.5,32l2.5,2.1l3.5-5.9H25C25,28.2,27.1,31.2,26,36.4z"/>
<g id="XMLID_7_" class="st0">
	<g id="XMLID_311_" class="st3">
		<g id="XMLID_55_">
			<path id="XMLID_59_" class="st4" d="M44,4c-7.3,1.3-13.5,4.3-19.5,8.6c-4.1,3-10.3,7.7-10.6,13.4c-0.2,4.5,4.3,3.5,7.4,3.2
				c3.1-0.3,8.9-0.9,8.4-5.3c-0.1-1.2-1.4-1.8-2.3-0.9c-2.1,1.9-5.5,2.3-8.3,2.4c-2.6,0.1-1.5,0.1,0.1-2.6c1.1-1.8,2.7-3.3,4.3-4.8
				c6.1-5.4,13.7-9.2,21-12.7C45.4,5,44.8,3.9,44,4L44,4z"/>
		</g>
	</g>
	<g id="XMLID_312_" class="st3">
		<g id="XMLID_49_">
			<path id="XMLID_53_" class="st4" d="M30.8,27.6c1.7,0.7,4.2,0.3,6.1,0.5c2.2,0.3,4.5,0.7,6.8,0.6c4-0.3,7.1-3.4,8.2-7.1
				c1.3-4-5.1-5.8-6.3-1.7c-0.7,2.2-0.9,3.6-3.4,4.3c-1.7,0.5-3.8,0.4-5.6,0.5c-2.1,0.2-5,0-6.2,2C30.2,27.1,30.4,27.4,30.8,27.6
				L30.8,27.6z"/>
		</g>
	</g>
	<g id="XMLID_313_" class="st3">
		<g id="XMLID_43_">
			<path id="XMLID_47_" class="st4" d="M31.9,32c0.7,0.3,1.6,1,2.3,0.4c0.5-0.4,0.5-1.1,0-1.5c-0.7-0.5-1.6,0.1-2.3,0.4
				C31.7,31.5,31.7,31.9,31.9,32L31.9,32z"/>
		</g>
	</g>
	<g id="XMLID_314_" class="st3">
		<g id="XMLID_37_">
			<path id="XMLID_41_" class="st4" d="M31,32.3c0.8,0.5,1.5,1.1,2.3,1.6c-0.3-1-0.5-1.9-0.8-2.9c-2.1,4.1-0.8,8.5-4.3,12.3
				c-4.4,4.9-11,5.4-16.8,3.1c-1.8-0.7-3.1,2.3-1.3,3.1c12.9,6.2,25.7-4,26.3-17.5c0.1-1.1-1-2.1-2.1-2.1c-0.9,0-1.8-0.2-2.7-0.2
				C30.3,29.8,29.8,31.6,31,32.3L31,32.3z"/>
		</g>
	</g>
	<g id="XMLID_316_" class="st3">
		<g id="XMLID_31_">
			<path id="XMLID_35_" class="st4" d="M10.3,53.2c0.9,0.6,2.1,0.5,2.9-0.3c0.4-0.4,0.6-1.1,0.4-1.6c-0.2-0.6-0.5-1-1.2-1.2
				c-0.5-0.1-1,0-1.4,0.2c-0.2,0.1-0.1,0.1,0.1,0c0.5,0.1,0.7,0,0.4,0c-0.7-0.3-1.6,0.2-1.9,0.9C9.3,52,9.6,52.8,10.3,53.2
				L10.3,53.2z"/>
		</g>
	</g>
	<g id="XMLID_15_" class="st3">
		<g id="XMLID_25_">
			<path id="XMLID_29_" class="st4" d="M40.8,10.5c0,0.3,0,0.6-0.1,0.9c0,1.1,0.5,2.2,1.5,2.6c1,0.5,2,0.5,2.9-0.2
				c0.7-0.6,1.3-1.8,0.9-2.7c-0.3-0.7-0.6-1.3-1.3-1.7c-0.5-0.3-1.1-0.4-1.6-0.4c-0.4,0-0.9,0.1-1.3,0.2C41.2,9.2,40.8,10,40.8,10.5
				L40.8,10.5z"/>
		</g>
	</g>
	<g id="XMLID_16_" class="st3">
		<g id="XMLID_19_">
			<path id="XMLID_23_" class="st4" d="M50.4,42.9c-0.6-1.4-1.7-2.5-3.2-2.9c-1.5-0.4-3-0.4-4.3,0.6c-0.9,0.7-1.4,1.7-1.4,2.9
				c0,0.8,0.3,1.6,0.8,2.3c0.3,0.5,0.6,1,1,1.4c0.7,0.7,1.5,1,2.4,1.3c-0.3-0.1-0.6-0.3-1-0.4c0.1,0.1,0.3,0.1,0.4,0.2
				c0.8,0.4,1.6,0.6,2.5,0.5c0.8-0.1,1.7-0.4,2.2-1.1c0.5-0.5,0.8-1.1,1-1.7C51.2,44.8,50.8,43.8,50.4,42.9L50.4,42.9z"/>
		</g>
	</g>
</g>
<g id="ETH" class="st0">
	<g id="XMLID_337_" class="st3">
		<g id="XMLID_97_">
			<path id="XMLID_101_" class="st4" d="M19.4,47.6c-1.1-0.8,0.8-2.9,1.4-3.5c0.5-0.5,1-0.9,1.5-1.4c0.4-0.5,0.6-1.1,0.9-1.7
				c0.5-1-0.4-2.2-1.5-1.9c-1.5,0.4-2.4,0.9-3.3,2.2c-0.8,1.1-1.5,2.4-1.9,3.7c-0.6,1.9,0.5,5.1,3,3.7
				C19.8,48.5,19.8,47.9,19.4,47.6L19.4,47.6z"/>
		</g>
	</g>
	<g id="XMLID_916_" class="st3">
		<g id="XMLID_91_">
			<path id="XMLID_95_" class="st4" d="M31,45.1c-0.2-2.9-1.3-5-3.3-7.2c-1.5-1.7-3.7-2.8-4.6-5c-1.2-2.8-1-3,1.7-3.9
				c3.6-1.2,7-0.6,10.4-2.9c1.8-1.3,3.3-3,4-5.1c1.8-5.5-1.7-11.2-6.7-13.5c-1.7-0.8-4.9-2.1-6.9-1.5c-2.7,0.8-4.1,4.7-5.6,6.8
				c0.7,0.3,1.4,0.6,2.1,0.9c1.3-3.5,2.5-7,3.4-10.6c0.5-1.9-2.6-2.7-2.9-0.8C21.8,6,21,9.6,19.7,13.1c-0.5,1.3,1.4,1.8,2.1,0.9
				c1-1.3,2.6-3.9,4.1-4.5c1-0.4,3.6,0.8,4.5,1.3c3,1.5,5.7,4.2,5.6,7.8c-0.3,7.5-9,8.4-14.8,7.9c-0.5,0-1.1,0.3-1.3,0.7
				c-1.3,2.7-1,5.2,0.7,7.7c1,1.5,2.6,2.5,3.9,3.8c2.1,2,3.6,4.3,5.3,6.7C30.1,45.9,31,45.8,31,45.1L31,45.1z"/>
		</g>
	</g>
	<g id="XMLID_944_" class="st3">
		<g id="XMLID_85_">
			<path id="XMLID_89_" class="st4" d="M43.3,23.5c0.1,0,0.1-0.2,0-0.2C43.2,23.3,43.2,23.5,43.3,23.5L43.3,23.5z"/>
		</g>
	</g>
	<g id="XMLID_951_" class="st3">
		<g id="XMLID_79_">
			<path id="XMLID_83_" class="st4" d="M40.6,21.3c0.4,1.6,1,2.7,1.7,4.1c1.3,2.5,1,4.8,1.1,7.5c0.2,4.1-0.3,9.3,1.7,12.8
				c1,1.7,3.6,0.9,3.6-1c0.1-2.3-0.7-3.6-1.4-5.8c-0.9-2.6-1.3-5.4-1.7-8.1c-0.2-1.5-0.2-3.6-1-4.9c-1.1-1.8-2.8-2.8-3.7-4.9
				C40.9,20.8,40.6,21,40.6,21.3L40.6,21.3z"/>
		</g>
	</g>
	<g id="XMLID_958_" class="st3">
		<g id="XMLID_73_">
			<path id="XMLID_77_" class="st4" d="M37,44.5c2.5-0.9,4-2.8,5.6-4.9c1.7-2.2,3.3-4.3,3.4-7.1c0-0.9-1.2-1.5-1.9-0.8
				c-1.8,1.8-2.5,4.2-3.8,6.4c-1.2,2.1-2.8,3.8-3.6,6.1C36.7,44.4,36.9,44.6,37,44.5L37,44.5z"/>
		</g>
	</g>
	<g id="XMLID_959_" class="st3">
		<g id="XMLID_67_">
			<path id="XMLID_71_" class="st4" d="M46.9,14.4c0,1-0.1,1.9-0.3,2.9c-0.2,1,0.1,2,0.1,3c0.1,1.6,2.1,1.7,2.6,0.4
				c0.5-1.3,0.9-2.4,0.4-3.7c-0.4-1.1-1-2-1.8-2.9C47.6,13.5,46.9,13.9,46.9,14.4L46.9,14.4z"/>
		</g>
	</g>
	<g id="XMLID_965_" class="st3">
		<g id="XMLID_61_">
			<path id="XMLID_65_" class="st4" d="M30.5,26.5C30.5,26.5,30.5,26.5,30.5,26.5c0-0.5-0.3-1.1-0.7-1.4c-0.7-0.4-1-0.8-1.8-1.2
				c-0.3-0.1,0,0-0.2-0.1c-0.2-0.1-0.3-0.2-0.5-0.2c-0.5-0.1-0.9,0-1.2,0.5c-0.4,0.7-0.1,1.9,0.4,2.4c0.5,0.7,1.4,1.1,2.2,1.4
				c0.5,0.2,1.2,0,1.5-0.4C30.4,27.2,30.5,27,30.5,26.5L30.5,26.5z"/>
		</g>
	</g>
</g>
<g id="XMLID_1_" class="st0">
	<path id="XMLID_9_" class="st1" d="M28.1,16c0,0-15.3,20.1-15.3,22c-0.1,1.9,2.7,2,5,3.2s5.3,4.6,5,5.8c-0.3,1.2-10,6.8-10,6.8
		l-5.8,1l0.8-3c0,0,5.2-1.2,7.5-3.3c2.3-2.2,2.3-2.4,2.3-3.3S6.9,41,6.9,38.9S23.4,18.6,23.6,17c0.2-1.6-5.3-6.5-5.2-7.5
		c0.1-1,4-6.8,4-6.8l0.8,3c0,0-2.2,3.4-2.2,4.2C21.2,10.7,28.1,16,28.1,16z"/>
	<path id="XMLID_8_" class="st1" d="M40.6,8.2c0,0,3.5,1.3,2.3,3.5c-1.2,2.2-7.1,1.9-7.5,3.8c-0.4,2,13.2,21.7,13,22.9
		c-0.2,1.2-9.1,8.6-9.1,8.6l2,2.3l6.2,3.5c0,0-6.3-5.5-2.2-8.5s7.8-4.4,7.8-6S47,30.1,47,30.1l-6.1-11.4c0,0-0.8-2.7,1.7-4.3
		S50.6,8,40.6,8.2z"/>
	<path id="XMLID_6_" class="st1" d="M29.9,45.5c0,0,6.6-4.1,4.2-8.8C27.2,27.2,34.8,23,33.8,22s-7.5,3.5-6.7,6.8
		c0.8,3.3,4.8,9.9,3,11.9C28.3,42.7,29.9,45.5,29.9,45.5z"/>
</g>
<g id="XMLID_908_" class="st0">
	<g id="XMLID_736_" class="st3">
		<g id="XMLID_137_">
			<path id="XMLID_141_" class="st4" d="M8.4,31.3c3.1-2.6,5.6-6.6,8-9.8c2.7-3.5,6.7-6.7,8.8-10.5c0.6-1-0.4-2.7-1.7-2.2
				c-3.9,1.6-6.6,5.8-9,9.2c-2.6,3.7-5.5,8.8-6.3,13.2C8.2,31.3,8.3,31.4,8.4,31.3L8.4,31.3z"/>
		</g>
	</g>
	<g id="XMLID_801_" class="st3">
		<g id="XMLID_131_">
			<path id="XMLID_135_" class="st4" d="M23.4,11.6c2.4,5.3,4.2,10.5,3.4,16.4c-0.6,3.9-1.8,7.9-0.5,11.7c0.3,0.7,1.2,0.7,1.4,0
				c1-3,0.8-6.2,1.3-9.3c0.4-2.6,0.8-5.2,0.5-7.8c-0.6-4.6-3-7.7-6-11.1C23.5,11.4,23.3,11.5,23.4,11.6L23.4,11.6z"/>
		</g>
	</g>
	<g id="XMLID_874_" class="st3">
		<g id="XMLID_125_">
			<path id="XMLID_129_" class="st4" d="M14.2,28.6c4.5,1.4,8.8,1.8,13.5,1.9c4,0.1,8.3,0.5,12-1.3c0.7-0.3,0.5-1.4-0.2-1.5
				c-3.8-0.9-7.9,0-11.8,0.2c-4.5,0.2-9,0-13.5,0.3C14.1,28.3,14,28.5,14.2,28.6L14.2,28.6z"/>
		</g>
	</g>
	<g id="XMLID_875_" class="st3">
		<g id="XMLID_119_">
			<path id="XMLID_123_" class="st4" d="M28.4,47.9c3.2-3.2,6.4-6.4,9.2-9.9c2.3-2.9,5-5.6,6.4-9c0.2-0.6-0.6-1.2-1.1-0.8
				c-3.3,2.3-5.6,6.1-8.1,9.2c-2.6,3.2-4.6,6.8-6.8,10.3C27.8,47.8,28.2,48.1,28.4,47.9L28.4,47.9z"/>
		</g>
	</g>
	<g id="XMLID_876_" class="st3">
		<g id="XMLID_113_">
			<path id="XMLID_117_" class="st4" d="M32.3,51.8c7.5-3.4,15.1-10.2,19.8-17c0.6-0.8-0.6-2-1.4-1.4c-3.4,2.6-6.6,5.8-9.7,8.8
				c-3.1,3-6.2,6-8.8,9.4C32.1,51.7,32.2,51.8,32.3,51.8L32.3,51.8z"/>
		</g>
	</g>
	<g id="XMLID_889_" class="st3">
		<g id="XMLID_107_">
			<path id="XMLID_111_" class="st4" d="M43.3,8.4c-2.7-1-6,1-6.3,3.9c-0.2,1.6,0.5,3.2,1.6,4.4c1.2,1.2,3.1,1,4.4,0.2
				c0.7-0.4,0.9-1.5,0.3-2.1c-0.4-0.4-0.4-0.9-0.8-1.4c-0.3-0.4-0.7-0.6-0.8-1.2c-0.2-1.1,0.7-1.7,1.7-1.9
				C44.4,10.3,44.1,8.7,43.3,8.4L43.3,8.4z"/>
		</g>
	</g>
</g>
<g id="XMLID_10_" class="st0">
	<path id="XMLID_84_" class="st1" d="M38.9,42.1c0.2,1.8,3.4,6.4,3.4,6.4s2.7-6.7,6-12c0,0,5.9-7.4-0.8-17.4S46,7.3,44,6.7
		c-2-0.7-4.3,5.7-1.3,11.9C49.4,32.4,38.7,40.3,38.9,42.1z"/>
	<path id="XMLID_78_" class="st1" d="M31.3,33.3l5.5,6.7c0,0,5.2-6,5.2-12.5s-5.5-8.7-5-11.3c0,0-1.3,3.3,0,5.5S38.5,31.3,31.3,33.3
		z"/>
	<path id="XMLID_11_" class="st1" d="M20.6,28.7c0,0-3.7,0.3-2.8-3.8s-0.9-6.2-1.7-5.7c-0.8,0.5,1.9,2-0.3,4.9
		c-1.1,1.4-2.1,4.5-2.3,6.5c-1.1,8,4.2,12.5,4.2,12.5l-4,4.3l1.3,4l4.5-6.7c0,0,4.2,3,8.2,3c3.9,0,7.5-4.7,7.5-4.7l-4.3-4
		c0,0,1,4.3-1.7,5.2c-2.7,0.8-8-1.5-8-1.5s5.4-4.3,5.3-5c0-0.7-1.6-1-2.3-1c-0.7,0-4.3,4.3-4.3,4.3s-4.7-2.8-3.5-8.3l4.3-0.2V28.7z"
		/>
</g>
<path id="XMLID_90_" class="st5" d="M43,11.9c-4.5,0-7.5,7-5.1,9s5.4,1,4.8-1.6s-1.9-4.4,0.9-3.7c7.9,2.2-0.1,16.3-6.5,11.5
	C34.4,24.4,31.4,10,31.4,10l-2.6,0.5c0,0-4.4,13.2-6.2,14.7c-8.6,3-8.7-10.4-7.1-10.1c3.9,0.8-0.6,4.6,2.8,5.4s5.1-0.4,4-3.7
	s-4.5-5.4-7.7-4.8s-6.2,7.3-0.3,13.1c2.9,2.9,7,4.5,7,4.5s-1.1,3.2-1.4,4.1c-2,6.6-1.6,16.2,10.3,16.2c14.7,0,8.4-19.1,8.4-19.1
	s10.5-2.7,10.5-10.1C49.1,15,47.5,11.9,43,11.9z M28.8,46c-4.3,0-6.8-2.6-6.8-7.5s8.1-20.4,8.1-20.4s6.2,15,6.2,20S33,46,28.8,46z"
	/>
<path id="XMLID_124_" class="st5" d="M27.1,6.8c0,0-3.5,3.8-4.3,8.5S15.3,40,13.8,41l15.1-8.3l1.7-8.2l-4.2,0.3l8.7-6.3l1,3
	l-2.5,1.5l-1.5,7.8c0,0,7.2-6,8.3-9.8c1.2-3.8,1-5.3,1-5.3l8.3,8.3l-6.8,0.8l-5.5,6L32,34.4c0,0-1.8,7.1-2.8,9.3S26,50.4,26,50.4
	s13.3-5.4,14.6-6.9S42,42,42,42l-0.5-6.6l3.4-0.1L50.3,47l-7.6-1.6L29,53l-4.1,0.8L24,55.3l-3.8-0.9l5.4-10.6l2.4-7.3l-11.3,7.4
	l-8.6,1.6l1.4-4.6c0,0,8.1-11.3,8.8-18.2c0.7-7.2,0.2-9.7,0.2-9.7l-1.9,0.9l0.4-2.6l8.5-6.5L27.1,6.8z"/>
<g id="XMLID_130_" class="st0">
	<g id="XMLID_144_" class="st3">
		<g id="XMLID_156_">
			<path id="XMLID_160_" d="M25,13c-2.1-1.9-0.6-4.6,2-4.6c2.5,0,5.8,1.6,5.7,4.5c-0.1,4.5-5.7,6.3-6.5,10.5
				c-0.7,4.1,4.6,5.9,3.2,10.1c-1.3,3.8-4.6,6.6-2.5,10.8c0.8,1.6,3.1,0.2,2.3-1.4c-1.6-3.3,2.6-6.8,3.1-10c0.4-2.4-0.5-4.1-1.9-5.9
				c-1.2-1.5-2.1-2.7-0.9-4.7c0.9-1.4,2.4-2.5,3.4-3.8c1.5-1.8,2.5-4,2.3-6.5C35,7.6,29.3,4.8,25.2,5.9c-4,1-5.3,6.3-2.1,9
				C24.4,16,26.3,14.1,25,13L25,13z"/>
		</g>
	</g>
	<g id="XMLID_136_" class="st3">
		<path id="XMLID_150_" d="M15.3,28.8c0,0-0.1,0-0.2,0c-0.1,0-0.4,0-0.6,0.1c-0.5,0.1-1.2,0.5-1.8,1.3c-0.6,0.7-1,1.9-1.2,3.2
			c-0.2,1.4-0.5,3-0.6,4.7c-0.1,1.7,0.1,3.5,0.8,4.9c0.2,0.4,0.4,0.7,0.7,1c0.3,0.3,0.6,0.6,1,0.8c0.7,0.5,1.6,1,2.6,1.4
			c1.8,0.8,4,1.2,6.2,1.5c2.2,0.3,4.6,0.5,6.9,0.5c2.3,0.1,4.6,0.1,6.7-0.1c1.1-0.1,2.1-0.3,3.2-0.6l0.4-0.1l0.4-0.1
			c0.3-0.1,0.5-0.2,0.8-0.2c0.5-0.1,1-0.3,1.4-0.5c1.8-0.8,3.5-1.9,4.8-3.2c0.6-0.7,1.2-1.4,1.6-2.1c0.2-0.3,0.4-0.8,0.6-1.1
			c0.1-0.2,0.2-0.4,0.3-0.6c0.1-0.2,0.1-0.4,0.2-0.5c0.4-1.5,0.5-3.1,0.3-4.4c-0.2-1.3-0.6-2.5-1.2-3.3c-0.5-0.9-1.1-1.4-1.5-1.8
			c-0.4-0.4-0.7-0.5-0.7-0.5s0.3,0.1,0.8,0.4c0.5,0.3,1.2,0.7,1.9,1.6c0.7,0.8,1.5,1.9,1.9,3.4c0.5,1.5,0.7,3.2,0.4,5.2
			C51.1,39.8,51,40,51,40.3c-0.1,0.2-0.1,0.4-0.2,0.7c-0.2,0.5-0.3,1-0.6,1.5c-0.4,1-1,1.9-1.7,2.8c-1.4,1.7-3.3,3.2-5.4,4.3
			c-0.5,0.3-1.1,0.5-1.7,0.8c-0.3,0.1-0.6,0.2-0.8,0.3l-0.4,0.2l-0.4,0.1c-1.2,0.4-2.4,0.6-3.6,0.8c-2.4,0.3-4.9,0.4-7.3,0.3
			c-2.4-0.1-4.8-0.3-7.2-0.7c-2.4-0.4-4.8-1-7-2.1c-1-0.5-2.1-1.1-3.1-1.9c-0.5-0.4-0.9-0.8-1.3-1.4c-0.4-0.5-0.7-1-0.9-1.6
			c-1-2.3-0.8-4.5-0.5-6.3c0.3-1.8,0.8-3.4,1.3-4.8c0.5-1.4,1.2-2.6,2.1-3.4c0.9-0.7,1.8-0.9,2.3-1c0.3,0,0.5,0,0.6,0
			C15.2,28.8,15.3,28.8,15.3,28.8z"/>
	</g>
</g>
<g id="XMLID_142_" class="st0">
	<path id="XMLID_154_" class="st1" d="M23.8,3.4c0,0-2.7,5.3-1.2,10.2s4,10.8,7.8,9.3s6.7-6.8,6.8-9.3s-2.5-5.7-1.5-7.2
		s5.7,0.7,5.5,4.3S37.4,22,34.7,23.6c-4.2,2.4-7,2.5-7,2.5l1.7,4.1l11.7-7.8l2.5,1.5c0,0-10.5,6.3-12,8c-1.5,1.7-3.3,6-3.3,6
		s-6.2-12-7.7-17.8S19.3,2.9,23.8,3.4z"/>
	<g id="XMLID_152_" class="st3">
		<g id="XMLID_207_">
			<path id="XMLID_211_" d="M49.5,14.5c0-0.1,0.1-0.2,0.1-0.2c0.5-0.9,0.2-2.2-0.7-2.7c-1-0.5-2.2-0.2-2.7,0.7
				c0,0.1-0.1,0.2-0.1,0.2c-0.5,0.9-0.2,2.2,0.7,2.7C47.8,15.7,48.9,15.5,49.5,14.5L49.5,14.5z"/>
		</g>
	</g>
	<g id="XMLID_148_" class="st3">
		<g id="XMLID_201_">
			<path id="XMLID_205_" d="M51.6,25.9c0.1,0,0.2-0.1,0.3-0.1c1-0.4,1.3-1.9,0.7-2.7c-0.6-1-1.7-1.2-2.7-0.7c-0.1,0-0.2,0.1-0.3,0.1
				c-1,0.4-1.3,1.9-0.7,2.7C49.5,26.1,50.6,26.3,51.6,25.9L51.6,25.9z"/>
		</g>
	</g>
	<g id="XMLID_147_" class="st3">
		<g id="XMLID_195_">
			<path id="XMLID_199_" d="M49.9,34.9c1-0.5,1.3-1.6,1.1-2.6c-0.3-1-1.4-1.7-2.5-1.4c-1,0.3-1.7,1.4-1.4,2.5c0,0,0,0.1,0,0.1
				c0-0.4,0-0.7,0-1.1c0-0.1,0.1-0.2,0.1-0.3c0.2-0.2,0.5-0.5,0.7-0.7c0,0-0.1,0-0.1,0.1c-0.9,0.5-1.3,1.9-0.7,2.7
				C47.7,35.2,48.9,35.4,49.9,34.9L49.9,34.9z"/>
		</g>
	</g>
	<g id="XMLID_146_" class="st3">
		<g id="XMLID_189_">
			<path id="XMLID_193_" d="M45,43.1c2.6,0,2.6-4,0-4C42.4,39.1,42.4,43.1,45,43.1L45,43.1z"/>
		</g>
	</g>
	<g id="XMLID_145_" class="st3">
		<g id="XMLID_183_">
			<path id="XMLID_187_" d="M38.5,46.5c0,0,0-0.1,0-0.1c0-1-0.9-2-2-2c-1.1,0-2,0.9-2,2c0,0,0,0.1,0,0.1c0,1,0.9,2,2,2
				C37.6,48.4,38.5,47.6,38.5,46.5L38.5,46.5z"/>
		</g>
	</g>
	<g id="XMLID_143_" class="st3">
		<g id="XMLID_181_">
			<path id="XMLID_206_" d="M28.9,49c0,0,0.1-0.1,0.1-0.1c0.7-0.7,0.8-2.1,0-2.8c-0.8-0.7-2-0.8-2.8,0c0,0-0.1,0.1-0.1,0.1
				c-0.7,0.7-0.8,2.1,0,2.8C26.9,49.8,28.1,49.8,28.9,49L28.9,49z"/>
		</g>
	</g>
	<g id="XMLID_155_" class="st3">
		<g id="XMLID_171_">
			<path id="XMLID_175_" d="M19.8,56.5c-1.4-0.5-3.9-1.3-4.9-2.7c-4.1-5.6,4.2-6.3,7-6.4c3.1-0.1,6-0.2,9-0.9
				c5.5-1.4,10.7-4.5,14.2-9c5.9-7.6,6.6-20.7-1.3-27.2c-0.7-0.6-1.9,0.2-1.3,1c4.6,6.4,5.4,16.5,1,23.1
				c-5.4,8.3-14.4,9.5-23.4,10.1c-3.9,0.3-9,2.2-8.7,6.9c0.3,4.3,4.7,5,8.1,5.1C19.9,56.7,19.9,56.5,19.8,56.5L19.8,56.5z"/>
		</g>
	</g>
</g>
<path id="XMLID_153_" class="st4" d="M49.6,12c-0.9,2.4-0.4,7.3-4.5,9.1s-6,2.5-8.9-0.8s-3.9-6.9-2-9.3s2.5-4.9-1-6
	s-3.3,3.9-2.8,5.6s2.1,8.5,0.9,10.5s-5.4,10.2-8.5,11.5s-8.8,2-7.8-5.1s4.3-8.1,6.1-6.3s4.6,4,5.5-0.3s-5.6-8.4-8.4-7.8
	s-6.3,6.6-6,14.3c0,0-0.5,14,5.3,13.3s12.8-11.6,12.8-11.6l-0.1,5.6c0,0-1.8,0.7-1.8,2.6c0,1.9,1.9,2.2,1.9,2.2S30.1,51,30.9,52.1
	c0.8,1.1,2.2-6.2,2.8-6.8c0.6-0.6,2.2,1.4,5.3-1.1c3.1-2.5,5.2-4.8,5.2-6.3c0,0-1.5-1.4-3,1c-1.5,2.4-3.3,4.1-4.7,3.8
	c-1.3-0.3-3.7-0.9-4.1-6s1.5-11.5,1.5-11.5s3.1,2.1,7.9,0.7c4.8-1.4,8.7-4.7,10-8.3C53.2,14.1,51,8.2,49.6,12z"/>
</svg>
