<svg id="Layer_1" data-name="Layer 1" xmlns="http://www.w3.org/2000/svg" viewBox="0 0 56.72 54.4"><defs><style>.cls-1{fill:#787878;}.cls-2{fill:#606161;}.cls-3{fill:#9c9d9c;}</style></defs><title>stone</title><g id="_Group_" data-name="&lt;Group&gt;"><path id="_Path_" data-name="&lt;Path&gt;" class="cls-1" d="M413.44,203.54c-0.75.35-16.85,34.36-16.85,36.3s1,16.15,1.85,17,46.91,0.79,48.7,0,5.55-5.06,5.93-5.93,0.25-4,0-5.93S440,204.31,439.18,203.54,414.18,203.18,413.44,203.54Z" transform="translate(-396.58 -203.1)"/><path id="_Path_2" data-name="&lt;Path&gt;" class="cls-2" d="M453.07,249.28a20.74,20.74,0,0,1-5.93,5.17c-1.8.79-47.82,0.89-48.7,0s-1.59-10.77-1.8-14.9a1.31,1.31,0,0,0-.05.29c0,1.93,1,16.15,1.85,17s46.91,0.79,48.7,0,5.55-5.06,5.93-5.93a10.1,10.1,0,0,0,.22-3.17A5.07,5.07,0,0,1,453.07,249.28Z" transform="translate(-396.58 -203.1)"/><path id="_Path_3" data-name="&lt;Path&gt;" class="cls-3" d="M413.44,204.79c0.75-.35,24.94-0.77,25.74,0s13.64,39.6,13.89,41.48a29.75,29.75,0,0,1,.23,3,28.94,28.94,0,0,0-.23-4.27c-0.25-1.88-13.09-40.71-13.89-41.48s-25-.35-25.74,0-16.85,34.36-16.85,36.3c0,0.21,0,.58,0,1C397.32,237.59,412.71,205.13,413.44,204.79Z" transform="translate(-396.58 -203.1)"/></g></svg>